<svg width="800" height="600" viewBox="0 0 800 600" fill="none" xmlns="http://www.w3.org/2000/svg">
  <rect width="800" height="600" fill="#E5E7EB"/>
  <path d="M400 300C400 355.228 355.228 400 300 400C244.772 400 200 355.228 200 300C200 244.772 244.772 200 300 200C355.228 200 400 244.772 400 300Z" fill="#9CA3AF"/>
  <path d="M400 280C400 297.673 385.673 312 368 312C350.327 312 336 297.673 336 280C336 262.327 350.327 248 368 248C385.673 248 400 262.327 400 280Z" fill="#E5E7EB"/>
  <path d="M500 400H100V500H500V400Z" fill="#9CA3AF"/>
</svg>
