<svg xmlns="http://www.w3.org/2000/svg" id="Layer_1" data-name="Layer 1" viewBox="0 0 1057 250"><defs><style>.cls-1{fill:#409;}</style></defs><title>Playful-LogoV</title><path class="cls-1" d="M355.67,62.94a45.69,45.69,0,0,0-21.12,4.68c-6.06,3.11-11.94,9.52-11.94,9.52-1.91,2.07-3.81,1.38-4.16-1.39l-.69-5.36a6,6,0,0,0-5.88-5.2H283.14a5.1,5.1,0,0,0-5.19,5.2v4.67a6.62,6.62,0,0,0,5.19,6.06l9,1.56a6.28,6.28,0,0,1,5.2,6.06V218.56a6.63,6.63,0,0,1-5.2,6.06l-9,1.56a6.28,6.28,0,0,0-5.19,6.06h-.35v4.67a5.1,5.1,0,0,0,5.2,5.19h51.41a5.1,5.1,0,0,0,5.19-5.19v-4.67a6.62,6.62,0,0,0-5.19-6.06l-9-1.56a6.29,6.29,0,0,1-5.2-6.06V179.79a39.09,39.09,0,0,0,15.24,11.77,52.36,52.36,0,0,0,20.77,4c15.58,0,27.69-5.71,36.52-17C401.2,167.15,405,139.11,405,139.11c.34-2.77.69-6.23.69-7.62,0-20.6-4.33-37.22-13.16-49.68C383.71,69.17,371.42,62.94,355.67,62.94Zm18.7,102.13c-5.72,8.14-14,12.12-25.1,12.12-6.93,0-12.64-1.38-17.31-4.33a31.73,31.73,0,0,1-8.31-8,17.74,17.74,0,0,1-3.12-9.35v-57A34,34,0,0,1,332,86.31a31.37,31.37,0,0,1,17-4.5c11.25,0,19.56,4.5,25.27,13.85s8,30.64,8,30.64c.34,2.77.52,6.23.52,7.61C382.68,146.72,379.73,157.11,374.37,165.07Z"></path><path class="cls-1" d="M473,177.19l-9-1.56a6.28,6.28,0,0,1-5.19-6.06V14a5.1,5.1,0,0,0-5.19-5.2h-32a5.1,5.1,0,0,0-5.19,5.2v4.67a6.62,6.62,0,0,0,5.19,6.06l9,1.56a6.27,6.27,0,0,1,5.2,6V169.57a6.63,6.63,0,0,1-5.2,6.06l-9,1.56a6.29,6.29,0,0,0-5.19,6.06v4.5a5.1,5.1,0,0,0,5.19,5.19H473a5.1,5.1,0,0,0,5.2-5.19v-4.5A6.63,6.63,0,0,0,473,177.19Z"></path><path class="cls-1" d="M601.13,177.36l-4.33-.52a43,43,0,0,1-.34-4.67v-66.3q0-20.5-13.51-31.68c-9-7.44-20.6-11.07-35.14-11.07A84.58,84.58,0,0,0,521,67.27a85.76,85.76,0,0,0-16.79,8.31,10.34,10.34,0,0,0-4.32,8V97.91a5.1,5.1,0,0,0,5.19,5.19h7.61a6.62,6.62,0,0,0,6.06-5.19l1.56-8.31A29,29,0,0,1,531,83.54a46.53,46.53,0,0,1,15.41-2.25c8.48,0,14.89,2.25,19.73,6.58s6.23,12.64,6.23,12.64a69.89,69.89,0,0,1,.87,10.38v4.5a5.1,5.1,0,0,1-5.19,5.2h-18.7c-17.13,0-30.46,3.28-40.33,9.86s-14.71,15.93-14.71,28.05c0,11.77,3.46,20.77,10.38,27.35,6.93,6.4,17,9.69,30.29,9.69a43,43,0,0,0,21.47-5.71,56.54,56.54,0,0,0,16.79-14.37c.17,2.77.52,5.54.87,8.31a37.39,37.39,0,0,0,.69,4.15,6.49,6.49,0,0,0,6.23,5h20.08a5.1,5.1,0,0,0,5.19-5.19v-4.5A6.27,6.27,0,0,0,601.13,177.36Zm-27.87-20.42c-2.77,5.19-7.27,9.69-13.67,13.33a41.87,41.87,0,0,1-21.12,5.54c-6.93,0-12.29-1.39-15.76-4.33s-5.19-7.27-5.19-12.81q0-9.61,8.31-16.1c5.54-4.33,17.48-5.89,17.48-5.89,3-.34,7.45-.69,10.39-.69h14.37a5.1,5.1,0,0,1,5.19,5.2Z"></path><path class="cls-1" d="M736.84,65H695.47a5.1,5.1,0,0,0-5.19,5.19v4.68A6.46,6.46,0,0,0,695.47,81l4.33.69a4.22,4.22,0,0,1,3.46,5.71l-23.2,69.41c-1,2.6-1.73,4.85-2.07,4.85s-1-2.25-1.73-5l-1.56-6.23c-.69-2.77-2.08-7.1-2.94-9.87l-18.7-53.14a4.33,4.33,0,0,1,3.46-5.71l4.16-.69a6.29,6.29,0,0,0,5.19-6.06V70.21A5.1,5.1,0,0,0,660.68,65h-41.2a5.1,5.1,0,0,0-5.19,5.19v4.68A6.46,6.46,0,0,0,619.48,81l1.38.17a10.44,10.44,0,0,1,6.93,5.71l38.43,98.67a15.49,15.49,0,0,1-.18,9.69l-3.46,8.48a67.39,67.39,0,0,1-8,14.89A14.17,14.17,0,0,1,642.5,225c-.86,0-2.94-.18-6.23-.35l-3.29-.17c-.52,0-1.21,2.42-1.56,5.19l-1.73,13.16a65.65,65.65,0,0,0,6.75,1.21,41.78,41.78,0,0,0,7.1.69c10.21,0,18.35-3.12,24.41-9.52s11.59-17.83,11.59-17.83c1.39-2.6,3.12-6.92,4.16-9.52L728.71,87a10,10,0,0,1,6.92-5.71l1.21-.17A6.29,6.29,0,0,0,742,75.06V70.21A5.1,5.1,0,0,0,736.84,65Z"></path><path class="cls-1" d="M814.22,6.17c-12.81,0-22.68,3.63-29.78,11.07s-9.86,26.49-9.86,26.49a103.36,103.36,0,0,0-.69,10.38v5.72a5.1,5.1,0,0,1-5.2,5.19h-9.52A5.1,5.1,0,0,0,754,70.21v6.93a5.1,5.1,0,0,0,5.19,5.19h9.35a5.1,5.1,0,0,1,5.19,5.19v82.05a6.62,6.62,0,0,1-5.19,6.06l-9,1.56a6.29,6.29,0,0,0-5.19,6.06v4.5a5.1,5.1,0,0,0,5.19,5.19h51.41a5.1,5.1,0,0,0,5.19-5.19v-4.5a6.62,6.62,0,0,0-5.19-6.06l-9-1.56a6.28,6.28,0,0,1-5.19-6.06V87.7a5.1,5.1,0,0,1,5.19-5.2H818.2a5.1,5.1,0,0,0,5.19-5.19V70.39a5.1,5.1,0,0,0-5.19-5.2H801.93A5.1,5.1,0,0,1,796.74,60V49.09c0-7.78,1.73-13.67,5-17.65s8.3-6.06,15.23-6.06c2.08,0,4.15.17,6.23.35l2.08.17c1.73.35,3.46-1.73,4-4.5l2.08-12.64a70.29,70.29,0,0,0-9-1.9A44.2,44.2,0,0,0,814.22,6.17Z"></path><path class="cls-1" d="M969,177l-4.5-1a6.85,6.85,0,0,1-5-6.41V70.21A5.1,5.1,0,0,0,954.26,65h-30a5.1,5.1,0,0,0-5.19,5.19v4.68a6.49,6.49,0,0,0,5,6.23l6.92,1.38a6.5,6.5,0,0,1,5,6.24v68.2a31.79,31.79,0,0,1-12.29,14.19c-5.36,3.29-12.12,5-20.42,5-8.49,0-14.72-2.42-18.7-7.61-4-5-5.54-22.85-5.54-22.85-.34-2.95-.52-7.45-.52-10.39V70.21A5.1,5.1,0,0,0,873.42,65H845.9a5.1,5.1,0,0,0-5.2,5.19v4.68a6.85,6.85,0,0,0,5,6.4l4.5,1a6.85,6.85,0,0,1,5,6.41v51.58c0,18.87,3.81,32.72,11.6,41.54s18.52,13.33,32.37,13.33A43.38,43.38,0,0,0,921,189.65c6.41-3.63,12.47-11.59,12.47-11.59,1.73-2.25,3.46-1.74,3.63,1l1,8.83a5.51,5.51,0,0,0,5.54,5.2h25.1a5.1,5.1,0,0,0,5.19-5.2v-4.5A6.85,6.85,0,0,0,969,177Z"></path><path class="cls-1" d="M1042.37,177.19l-9-1.56a6.28,6.28,0,0,1-5.2-6.06V14a5.1,5.1,0,0,0-5.19-5.2H991a5.1,5.1,0,0,0-5.2,5.2v4.67a6.63,6.63,0,0,0,5.2,6.06l9,1.56a6.27,6.27,0,0,1,5.19,6V169.57a6.62,6.62,0,0,1-5.19,6.06l-9,1.56a6.29,6.29,0,0,0-5.2,6.06v4.5a5.1,5.1,0,0,0,5.2,5.19h51.41a5.1,5.1,0,0,0,5.19-5.19v-4.5A6.62,6.62,0,0,0,1042.37,177.19Z"></path><path class="cls-1" d="M209.05,39.4q-34.28-34-82.74-34.1c-32.37,0-60.07,11.42-82.74,34.1S9.64,89.6,9.64,122.14s11.42,60.07,34.1,82.75S93.94,239,126.48,239c32.37,0,60.07-11.43,82.75-34.1s34.1-50.38,34.1-82.75Q243.06,73.58,209.05,39.4ZM168.2,161.61A45.23,45.23,0,0,1,153,185.33a40.53,40.53,0,0,1-26.49,9.52A41.45,41.45,0,0,1,100,185.33a45.45,45.45,0,0,1-15.58-24.07,12.75,12.75,0,0,1-.52-3.46c0-4.84,3.12-6.92,9.18-6.92h67.68C167.68,150.88,170.11,154.17,168.2,161.61Z"></path></svg>