<?xml version="1.0" encoding="UTF-8" standalone="no"?>
<!DOCTYPE svg PUBLIC "-//W3C//DTD SVG 1.1//EN" "http://www.w3.org/Graphics/SVG/1.1/DTD/svg11.dtd">
<svg width="100%" height="100%" viewBox="0 0 2048 2048" version="1.1" xmlns="http://www.w3.org/2000/svg" xmlns:xlink="http://www.w3.org/1999/xlink" xml:space="preserve" xmlns:serif="http://www.serif.com/" style="fill-rule:evenodd;clip-rule:evenodd;stroke-linejoin:round;stroke-miterlimit:2;">
    <g transform="matrix(1,0,0,1,-7655,-17938)">
        <rect id="Playful-Agency.-VALORES.-Franqueza-y-honestidad" serif:id="Playful Agency. VALORES. Franqueza-y-honestidad" x="7655" y="17938" width="2048" height="2048" style="fill:none;"/>
        <g id="Playful-Agency.-VALORES.-Franqueza-y-honestidad1" serif:id="Playful Agency. VALORES. Franqueza-y-honestidad">
            <g transform="matrix(2.021484,0,0,2.021484,8679,18962)">
                <g transform="matrix(1,0,0,1,-512,-512)">
                    <g transform="matrix(0.5,0,0,0.5,0,0)">
                        <path d="M1699.28,1813.84C1689.34,1824.27 1668.48,1833.24 1655.17,1837.91C1710.99,1839.62 1768.36,1837.64 1824.27,1838.49C1834.23,1838.64 1872.55,1837.66 1878.97,1839.28C1879.97,1841.43 1879.69,1840.26 1879.03,1843.01C1874.85,1844.93 1542.8,1843.8 1500,1843.81L177.334,1843.93C174.222,1843.92 170.83,1844.19 168.916,1842.3C168.933,1838.51 171.963,1838.19 175.454,1838.3C192.066,1838.8 208.668,1838.62 225.285,1838.58L348.404,1838.25C328.94,1824.88 321.656,1809.72 312.024,1789.04C292.838,1784.2 276.621,1780.2 258.927,1770.67C223.542,1751.61 194.967,1715.88 184.043,1677.05C170.709,1629.65 176.41,1575.16 200.856,1531.59C215.864,1505.37 240.211,1476.68 268.33,1464.25C277.927,1460 288.297,1470.19 284.451,1481.94C280.12,1495.16 273.422,1504.8 267.519,1517.29C252.005,1550.13 242.769,1588.46 246.322,1624.89C250.965,1663.85 265.724,1690.22 295.987,1714.19L295.957,1713.12C293.743,1621.98 332.068,1568.56 391.07,1506.3C441.457,1453.31 480.261,1417.11 524.248,1355.74C494.271,1340.51 475.221,1316.67 485.56,1281.89C493.736,1254.4 511.954,1225.62 523.34,1198.18C535.956,1167.77 542.386,1128.38 566.138,1105.43C571.709,1100.05 583.157,1097.43 589.925,1093.59C607.245,1081.23 620.934,1071.89 641.886,1065.94C680.105,1055.09 719.275,1057.46 753.667,1078.21C758.663,1081.23 771.828,1082.4 777.425,1086.02C801.624,1098.5 810.996,1133.82 821.179,1158.46C875.684,1164.88 878.356,1168.37 876.443,1229.6C875.948,1245.42 864.573,1256.33 854.349,1268.56C857.41,1276.74 860.9,1286.79 860.647,1295.59C859.277,1343.17 811.445,1359.34 772.91,1347.66C769.277,1366.47 775.472,1382.17 779.716,1400.14C783.367,1415.6 798.593,1485.08 789.844,1494.8C787.791,1494.65 786.607,1494.52 784.582,1494.17C783.097,1503.32 785.548,1515.4 783.894,1524.07C777.486,1557.65 774.259,1589.8 771.227,1623.89C768.176,1682.98 768.805,1729.39 772.476,1788.36C797.066,1796.29 819.82,1807.22 810.197,1838.12C874.355,1838.56 938.514,1838.62 1002.67,1838.3C1003.65,1823.21 1004.35,1817.48 1015.31,1806.31C1024.24,1797.2 1070.2,1782.71 1074.31,1776.91L1074.02,1776.02C1076.31,1774.92 1076.85,1774.62 1078.92,1773.18C1085.43,1776.14 1104.31,1762.62 1108.3,1757.27C1108.48,1754.08 1108.6,1754.6 1109.85,1751.53L1226.38,1751.85L1226.9,1757.15L1256.44,1757.73C1267.49,1734 1279.38,1700.8 1289.89,1675.76C1334,1701.33 1383.9,1722.03 1428.14,1747.96C1430.22,1746.38 1431.96,1745.42 1434.2,1744.12C1438,1746.11 1447.33,1751.26 1450.87,1752.5L1455.63,1747.97C1494.29,1795.52 1532.76,1831.319 1596.98,1837.26C1656.86,1842.799 1698.99,1819.18 1728.57,1768.39C1743.81,1754.03 1745.855,1699.82 1745.04,1678.64C1744.497,1664.53 1739.95,1645.31 1741.67,1631.75C1743.34,1634.57 1743.842,1644.19 1744.35,1647.62C1750.499,1689.107 1748.92,1725.92 1734.17,1765.12C1727.7,1782.28 1699.53,1812.3 1699.28,1813.84Z" style="fill:url(#_Linear1);"/>
                    </g>
                    <g transform="matrix(0.5,0,0,0.5,0,0)">
                        <path d="M1289.89,1675.76C1334,1701.33 1383.9,1722.03 1428.14,1747.96C1398.98,1748.71 1366.9,1737.68 1336.79,1741.15C1319.05,1743.19 1297.87,1747.42 1283.43,1759.29C1261.89,1778.87 1266.87,1805.82 1286.26,1823.74C1267.08,1820.76 1245.58,1815.92 1227.03,1813.46L1226.9,1757.15L1256.44,1757.73C1267.49,1734 1279.38,1700.8 1289.89,1675.76Z" style="fill:rgb(249,198,13);fill-rule:nonzero;"/>
                    </g>
                    <g transform="matrix(0.5,0,0,0.5,0,0)">
                        <path d="M608.032,1344.72C623.43,1352.61 637.209,1357.69 653.855,1362.22C635.342,1407.87 673.485,1449.26 680.513,1492.7C681.601,1499.42 680.028,1523.58 682.038,1526.49C667.908,1539.68 667.721,1685.57 668.124,1713.56C641.425,1716.83 641.555,1738.19 624.795,1754.22C620.959,1757.89 609.171,1760.62 607.264,1763.81C600.495,1730.54 593.31,1697.34 585.712,1664.25C581.934,1647.31 578.155,1631.57 574.847,1613.18C572.261,1598.81 571.288,1573.41 567.88,1558.69C567.606,1557.51 567.318,1557.68 565.393,1557.39L563.788,1559.89C563.168,1570.37 569.81,1622.43 573.123,1633.94C564.224,1645.06 553.8,1654.88 542.159,1663.09C540.846,1664.01 541.302,1663.52 540.555,1664.72C528.156,1605.6 479.841,1576.16 420.682,1597.53C416.556,1599.02 411.887,1601.14 408.38,1603.78L407.371,1605.97L408.461,1608.15C413.231,1609.09 416.14,1606.21 420.312,1604.24C476.692,1577.64 535.591,1617.87 535.825,1679.11C536.007,1726.86 515.849,1757.62 477.366,1783.76C465.882,1791.54 432.168,1784.46 429.508,1792.45C433.025,1795.62 470.623,1792.85 478.819,1793.41C463.138,1799.21 444.992,1814.72 437.973,1830.04C436.764,1832.72 435.621,1835.44 434.545,1838.18C412.116,1838.29 372.903,1841.38 352.122,1833.3C334.761,1826.55 320.849,1796.74 314.678,1779.7C292.807,1719.29 298.572,1658.04 326.543,1600.74C356.029,1542.92 421.924,1485.58 466.693,1436.51C478.337,1423.76 489.572,1410.65 500.382,1397.19C507.82,1387.83 515.592,1376.73 523.457,1367.99L529.97,1358.21C561.459,1365.94 582.571,1366.46 608.032,1344.72Z" style="fill:rgb(200,126,81);fill-rule:nonzero;"/>
                    </g>
                    <g transform="matrix(0.5,0,0,0.5,0,0)">
                        <path d="M326.543,1600.74C356.029,1542.92 421.924,1485.58 466.693,1436.51C478.337,1423.76 489.572,1410.65 500.382,1397.19C507.82,1387.83 515.592,1376.73 523.457,1367.99C548.431,1428.73 558.826,1500.06 484.565,1528.44C471.551,1533.42 437.206,1543.09 428.179,1550.25C399.633,1572.88 374.014,1631.37 326.543,1600.74Z" style="fill:rgb(142,79,50);fill-rule:nonzero;"/>
                    </g>
                    <g transform="matrix(0.5,0,0,0.5,0,0)">
                        <path d="M649.188,1070.07C672.429,1065.16 687.969,1064.06 711.621,1067.75C738.713,1075.04 755.532,1083.16 772.813,1106.95C774.831,1110.07 778.126,1114.82 779.694,1117.99C786.939,1131.2 790.213,1141.4 792.659,1156.3C783.038,1155.86 771.896,1153.14 762.349,1152.65C761.48,1153.22 760.611,1153.8 759.741,1154.38C772.993,1163.45 818.256,1163.55 836.841,1165.88C827.553,1168.84 809.68,1172.04 805.942,1181.38C798.804,1199.22 831.696,1210.52 843.158,1212.3C842.944,1224.84 841.935,1232.08 834.038,1242.53C813.389,1269.85 766.361,1271.72 740.115,1251.97C737.199,1249.77 733.832,1245.28 730.444,1244.26C726.979,1248.41 733.198,1254.98 736.62,1257.21C767.675,1277.49 818.307,1276.12 840.465,1243.59C842.025,1241.26 843.487,1238.87 844.845,1236.42C849.061,1245.38 850.649,1246.31 858.715,1252.08C839.738,1286.88 788.727,1286.84 754.167,1290.96C748.323,1291.66 725.087,1292.25 721.926,1293.84L721.267,1295.38C722.03,1296.87 722.265,1298.19 723.475,1298.31C733.396,1299.34 752.026,1297.29 761.69,1296.18C758.842,1308.38 758.057,1315.83 758.483,1328.43C722.274,1335.49 696.649,1333.83 660.682,1324.01C648.281,1320.64 638.103,1316.81 626.335,1312.05C638.9,1260.37 628.047,1216.57 622.785,1165.62C621.871,1156.77 625.553,1136.22 622.29,1130.76C624.299,1122.52 620.57,1110.67 615.308,1104.14C613.819,1102.29 613.525,1102.28 612.919,1099.79C609.438,1095.49 606.491,1094.81 601.385,1093.12C616.499,1081.06 630.633,1074.89 649.188,1070.07Z" style="fill:white;fill-rule:nonzero;"/>
                    </g>
                    <g transform="matrix(0.5,0,0,0.5,0,0)">
                        <path d="M601.385,1093.12C616.499,1081.06 630.633,1074.89 649.188,1070.07C678.66,1079.26 699.605,1094.06 714.595,1121.92C723.42,1138.32 729.96,1157.07 724.641,1175.92C716.778,1203.77 678.537,1210.35 668.763,1234.68C655.774,1267.02 671.827,1288.39 660.682,1324.01C648.281,1320.64 638.103,1316.81 626.335,1312.05C638.9,1260.37 628.047,1216.57 622.785,1165.62C621.871,1156.77 625.553,1136.22 622.29,1130.76C624.299,1122.52 620.57,1110.67 615.308,1104.14C613.819,1102.29 613.525,1102.28 612.919,1099.79C609.438,1095.49 606.491,1094.81 601.385,1093.12Z" style="fill:rgb(200,126,81);fill-rule:nonzero;"/>
                    </g>
                    <g transform="matrix(0.5,0,0,0.5,0,0)">
                        <path d="M687.223,1147.89C703.16,1146.49 705.919,1162.85 696.457,1172.99C680.589,1175.36 677.52,1157.99 687.223,1147.89Z" style="fill:rgb(57,32,91);fill-rule:nonzero;"/>
                    </g>
                    <g transform="matrix(0.5,0,0,0.5,0,0)">
                        <path d="M685.269,1120.65C687.637,1121.22 686.529,1120.76 688.407,1122.48C687.903,1128.54 674.92,1132.56 666.762,1143.8C663.687,1143.69 664.917,1144.32 662.784,1142.38C663.295,1133.2 677.932,1124.88 685.269,1120.65Z" style="fill:rgb(61,36,58);fill-rule:nonzero;"/>
                    </g>
                    <g transform="matrix(0.5,0,0,0.5,0,0)">
                        <path d="M711.621,1067.75C738.713,1075.04 755.532,1083.16 772.813,1106.95C774.831,1110.07 778.126,1114.82 779.694,1117.99C786.939,1131.2 790.213,1141.4 792.659,1156.3C783.038,1155.86 771.896,1153.14 762.349,1152.65C761.48,1153.22 760.611,1153.8 759.741,1154.38C741.334,1139.95 735.894,1113.29 726.823,1092.92C722.468,1083.14 717.949,1076.3 711.621,1067.75Z" style="fill:rgb(200,126,81);fill-rule:nonzero;"/>
                    </g>
                    <g transform="matrix(0.5,0,0,0.5,0,0)">
                        <path d="M775.481,1116.58C770.114,1117.33 755.027,1117.11 752.721,1111.26C756.713,1107.74 764.338,1109.82 769.208,1110.63C773.256,1112.31 772.888,1111.8 775.481,1116.58Z" style="fill:rgb(61,36,58);fill-rule:nonzero;"/>
                    </g>
                    <g transform="matrix(0.5,0,0,0.5,0,0)">
                        <path d="M772.813,1106.95C774.831,1110.07 778.126,1114.82 779.694,1117.99L775.481,1116.58C772.888,1111.8 773.256,1112.31 769.208,1110.63L772.813,1106.95Z" style="fill:rgb(187,121,102);fill-rule:nonzero;"/>
                    </g>
                    <g transform="matrix(0.5,0,0,0.5,0,0)">
                        <path d="M767.265,1128.62C781.723,1128.31 782.132,1141.49 775.921,1151.41C760.482,1150.72 760.041,1139.03 767.265,1128.62Z" style="fill:rgb(57,32,91);fill-rule:nonzero;"/>
                    </g>
                    <g transform="matrix(0.5,0,0,0.5,0,0)">
                        <path d="M622.29,1130.76C610.102,1143.77 622.217,1207.96 624.503,1228.06C631.76,1291.84 620.175,1378.39 533.26,1352.49C499.56,1341.47 479.709,1314.73 493.264,1278.79C506.503,1243.69 526.916,1212.26 538.072,1176.24C549.572,1139.11 562.527,1091.51 611.875,1100.16C612.223,1100.04 612.571,1099.92 612.919,1099.79C613.525,1102.28 613.819,1102.29 615.308,1104.14C620.57,1110.67 624.299,1122.52 622.29,1130.76Z" style="fill:rgb(142,79,50);fill-rule:nonzero;"/>
                    </g>
                    <g transform="matrix(0.5,0,0,0.5,0,0)">
                        <path d="M653.855,1362.22C681.124,1368.6 697.851,1370.69 725.966,1370.03C719.554,1377.89 715.679,1382.26 716.148,1393.25C717.1,1415.52 742.982,1423.73 755.341,1404.4C758.788,1399.1 759.95,1392.64 758.563,1386.48C756.506,1377.68 750.754,1372.66 743.589,1367.95C750.898,1366.34 758.149,1364.48 765.331,1362.37C772.107,1393.11 788.335,1454.86 786.209,1485.51C781.528,1485.43 782.173,1482.45 778.277,1482.85C777.253,1486.46 778.894,1501.95 778.847,1507.04C778.69,1524.02 777.651,1535.79 772.521,1551.8C771.8,1545.93 771.831,1537.69 767.449,1534.26L765.662,1535.02C761.385,1547.71 757.178,1560.94 751.718,1573.16C733.889,1613.04 703.714,1642.73 673.473,1673.21C673.608,1628.27 675.091,1584.11 683.096,1539.75C683.945,1535.04 684.932,1530.5 682.038,1526.49C680.028,1523.58 681.601,1499.42 680.513,1492.7C673.485,1449.26 635.342,1407.87 653.855,1362.22Z" style="fill:white;fill-rule:nonzero;"/>
                    </g>
                    <g transform="matrix(0.5,0,0,0.5,0,0)">
                        <path d="M186.37,1588.24C195.161,1543.02 220.485,1502.58 258.363,1476.11C263.89,1472.25 272.705,1466.38 278.25,1472.25C280.749,1480.57 275.159,1491.23 270.961,1498.48C253.645,1528.39 244.022,1559.67 240.2,1594.23C239.107,1638.25 245.343,1669.19 274.867,1703.21C270.059,1720.81 266.048,1749.78 267.071,1767.88C197.346,1730.68 174.82,1663.54 186.37,1588.24Z" style="fill:rgb(200,126,81);fill-rule:nonzero;"/>
                    </g>
                    <g transform="matrix(0.5,0,0,0.5,0,0)">
                        <path d="M186.37,1588.24C195.161,1543.02 220.485,1502.58 258.363,1476.11C263.89,1472.25 272.705,1466.38 278.25,1472.25C280.749,1480.57 275.159,1491.23 270.961,1498.48C253.645,1528.39 244.022,1559.67 240.2,1594.23L230.372,1588.88C227.09,1595.16 222.79,1611.15 215.816,1612.18C208.408,1608.3 205.048,1589.05 204.7,1581.17C202.943,1583.56 201.141,1585.92 199.295,1588.25C197.025,1591.06 195.746,1592.29 192.129,1592.68C189.064,1591.64 188.518,1590.63 186.37,1588.24Z" style="fill:white;fill-rule:nonzero;"/>
                    </g>
                    <g transform="matrix(0.5,0,0,0.5,0,0)">
                        <path d="M573.123,1633.94C581.226,1668.24 588.719,1709.89 597.525,1742.97C577.018,1760.07 554.887,1775.12 531.45,1787.91C515.47,1786.98 499.458,1786.72 483.456,1787.12C526.967,1753.83 546.051,1720.66 540.555,1664.72C541.302,1663.52 540.846,1664.01 542.159,1663.09C553.8,1654.88 564.224,1645.06 573.123,1633.94Z" style="fill:white;fill-rule:nonzero;"/>
                    </g>
                    <g transform="matrix(0.5,0,0,0.5,0,0)">
                        <path d="M607.264,1763.81C609.171,1760.62 620.959,1757.89 624.795,1754.22C641.555,1738.19 641.425,1716.83 668.124,1713.56C668.984,1741.33 669.726,1765.94 672.31,1793.78C688.412,1798.23 713.614,1809.03 708.437,1830.81C707.725,1833.8 706.905,1835.28 705.013,1837.64L702.713,1838.41C695.495,1832.86 700.752,1809.25 686.196,1809.26L685.132,1810.51C687.701,1820.01 697.682,1827.49 693.4,1836.8C689.44,1839.62 678.683,1838.42 673.359,1838.23C672.943,1827.82 671.33,1812.33 658.265,1810.54L656.583,1811.71C656.66,1817.15 667.39,1817.51 667.65,1838.14C656.007,1838.22 644.127,1838.45 632.509,1837.98C614.816,1820.78 612.063,1787.18 607.264,1763.81Z" style="fill:white;fill-rule:nonzero;"/>
                    </g>
                    <g transform="matrix(0.5,0,0,0.5,0,0)">
                        <path d="M696.399,1716.57C700.746,1705.95 709.062,1691.13 714.427,1680.13C725.047,1658.85 734.76,1637.12 743.542,1615.02C747.847,1604.44 763.387,1558.44 766.661,1554.38C767.472,1555.18 770.898,1558.87 770.833,1559.82C767.641,1606.28 761.541,1652.38 763.385,1699.19C763.472,1699.83 763.558,1700.46 763.645,1701.09C752.579,1704.46 742.08,1753.43 705.618,1759.59C701.931,1745.64 699.741,1730.81 696.399,1716.57Z" style="fill:rgb(142,79,50);fill-rule:nonzero;"/>
                    </g>
                    <g transform="matrix(0.5,0,0,0.5,0,0)">
                        <path d="M705.618,1759.59C742.08,1753.43 752.579,1704.46 763.645,1701.09C763.83,1733.43 764.714,1760.32 767.417,1792.81C780.631,1796.67 797.902,1802.04 804.754,1815.12C808.487,1822.24 808.076,1831.77 802.525,1837.87L800.178,1838.76C792.456,1833.84 796.733,1806.97 782.105,1809.29L780.954,1810.74C781.745,1813.11 782.509,1813.99 784.317,1815.73C791.025,1822.21 790.562,1829.29 790.781,1838.12C784.697,1838.2 778.444,1838.36 772.379,1838.27C771.662,1828.44 769.781,1811.82 757.058,1810.75L755.425,1811.7L755.342,1813.59C766.168,1824.28 765.793,1822.65 767.074,1838.22C755.143,1838.31 743.119,1838.61 731.225,1837.79C711.182,1816.84 713.738,1783.65 705.618,1759.59Z" style="fill:rgb(235,234,232);fill-rule:nonzero;"/>
                    </g>
                    <g transform="matrix(0.5,0,0,0.5,0,0)">
                        <path d="M478.819,1793.41C507.698,1790.52 574.357,1788.01 580.14,1825.72C580.461,1827.81 579.849,1835.42 579.677,1837.97C576.009,1838.08 571.044,1838.66 567.818,1837.32C565.858,1827.61 565.054,1814.24 556.789,1808.57C553.365,1807.79 553.563,1807.62 550.34,1808.89L549.834,1810.45C555.151,1816.95 563.171,1825.82 562.722,1834.58C561.665,1836.32 561.099,1838.05 558.592,1838.13C552.668,1838.3 546.078,1838.19 540.181,1838.13C539.671,1827.22 536.788,1811.01 523.521,1808.94L521.356,1809.54L520.481,1811.6C531.112,1823.33 533.965,1818.33 534.254,1838.2C501.018,1838.42 467.781,1838.41 434.545,1838.18C435.621,1835.44 436.764,1832.72 437.973,1830.04C444.992,1814.72 463.138,1799.21 478.819,1793.41Z" style="fill:white;fill-rule:nonzero;"/>
                    </g>
                    <g transform="matrix(0.5,0,0,0.5,0,0)">
                        <path d="M848.813,1273.82C849.357,1274.21 850.112,1274.67 850.37,1275.3C860.048,1299.03 853.506,1324.61 830.127,1337.22C811.496,1347.27 793.759,1347.33 774.136,1342.29C767.188,1336.47 774.542,1333 765.048,1326.27C762.29,1319.94 765.836,1302.69 767.194,1295.62C799.46,1292.1 820.738,1290.74 848.813,1273.82Z" style="fill:rgb(142,79,50);fill-rule:nonzero;"/>
                    </g>
                    <g transform="matrix(0.5,0,0,0.5,0,0)">
                        <path d="M624.196,1317.62C644.303,1328.77 675.763,1334.04 698.517,1337.02C704.63,1337.82 725.181,1337.71 729.182,1340.66C733.059,1346.11 735.441,1358.47 731.003,1363.78L722.089,1364.34C679.251,1364.66 651.189,1357.86 612.088,1340.5C617.189,1333.18 620.55,1325.71 624.196,1317.62Z" style="fill:rgb(254,107,94);fill-rule:nonzero;"/>
                    </g>
                    <g transform="matrix(0.5,0,0,0.5,0,0)">
                        <path d="M681.714,1672.78C684.473,1685.75 709.526,1805.89 708.893,1807.54L704.995,1803.69C698.639,1796.91 685.658,1792.31 677.2,1789.14C675.884,1751.34 672.803,1719.36 673.366,1680.52C676.179,1678.27 679.08,1675.31 681.714,1672.78Z" style="fill:white;fill-rule:nonzero;"/>
                    </g>
                    <g transform="matrix(0.5,0,0,0.5,0,0)">
                        <path d="M1481.48,1787.55C1483.64,1788.71 1504.64,1806.88 1509.93,1810.66C1530.98,1825.67 1544.02,1828.18 1565.52,1837.98L1547.11,1837.99C1517.53,1838.06 1491.2,1835.59 1463.24,1835.34C1481.73,1819.49 1482.62,1810.91 1481.48,1787.55Z" style="fill:rgb(249,198,13);fill-rule:nonzero;"/>
                    </g>
                    <g transform="matrix(0.5,0,0,0.5,0,0)">
                        <path d="M578.718,1792.06C588.113,1791.81 598.557,1793.4 607.762,1795.22C614.056,1815.35 610.424,1817.57 622.505,1837.24C620.649,1838.5 618.961,1838.04 616.25,1838.12L585.291,1837.86C585.908,1816.37 583.381,1810.51 567.939,1795.67C572.08,1793.88 574.339,1793.24 578.718,1792.06Z" style="fill:rgb(142,79,50);fill-rule:nonzero;"/>
                    </g>
                    <g transform="matrix(0.5,0,0,0.5,0,0)">
                        <path d="M1227,1819.27C1248.94,1822.38 1298.24,1830.37 1317.44,1838.14L1226.95,1838.27L1227,1819.27Z" style="fill:white;fill-rule:nonzero;"/>
                    </g>
                    <g transform="matrix(0.5,0,0,0.5,0,0)">
                        <path d="M868.581,1190.77C874.044,1198.24 873.164,1237.86 864.479,1245.92C860.513,1246.56 861.419,1246.13 856.999,1243.98C846.748,1232.89 848.592,1226.26 849,1211.62C859.213,1204.13 861.374,1201.36 868.581,1190.77Z" style="fill:white;fill-rule:nonzero;"/>
                    </g>
                    <g transform="matrix(0.5,0,0,0.5,0,0)">
                        <path d="M734.525,1372.65C754.278,1373.19 760.203,1398.59 740.902,1409.18C718.561,1408.6 716.265,1384.86 734.525,1372.65Z" style="fill:rgb(249,198,13);fill-rule:nonzero;"/>
                    </g>
                    <g transform="matrix(0.5,0,0,0.5,0,0)">
                        <path d="M765.231,1087.24C793.003,1091.37 805.827,1135.32 814.802,1158.22C809.399,1158.16 804.764,1157.67 799.409,1157.16C796.521,1137.09 787.908,1118.83 776.011,1102.53C773.137,1098.58 766.641,1091.09 765.231,1087.24Z" style="fill:rgb(142,79,50);fill-rule:nonzero;"/>
                    </g>
                    <g transform="matrix(0.5,0,0,0.5,0,0)">
                        <path d="M761.64,1333.15C763.635,1332.89 762.659,1332.68 764.49,1334.05C766.296,1340.72 766.43,1348.19 766.848,1355.15C757.011,1358.79 750.941,1360.69 740.74,1362.72C740.313,1362.29 739.886,1361.86 739.46,1361.43C738.939,1352.06 738.973,1346.9 735.399,1338.32C744.789,1336.79 752.395,1335.6 761.64,1333.15Z" style="fill:rgb(254,107,94);fill-rule:nonzero;"/>
                    </g>
                    <g transform="matrix(0.5,0,0,0.5,0,0)">
                        <path d="M603.248,1775.68C605.986,1778.72 606.927,1783.76 605.709,1787.61C602.628,1789.53 602.887,1788.75 598.238,1788.24C596.65,1788.11 596.386,1787.92 594.846,1787.46C595.574,1783.94 600.562,1778.96 603.248,1775.68Z" style="fill:white;fill-rule:nonzero;"/>
                    </g>
                    <g transform="matrix(0.5,0,0,0.5,0,0)">
                        <path d="M715.018,1824.73L721.806,1836.97L720.975,1838.54C718.207,1838.54 716.138,1838.83 713.68,1837.63C711.981,1833.83 713.927,1829.54 715.018,1824.73Z" style="fill:white;fill-rule:nonzero;"/>
                    </g>
                    <g transform="matrix(0.5,0,0,0.5,0,0)">
                        <path d="M1163.67,1522.83C1174.19,1498.1 1182.96,1470.34 1192.23,1444.97C1192.8,1443.4 1190.71,1441.57 1189.65,1440.18C1191.03,1439.46 1190.32,1439.75 1192.46,1440.24L1194.54,1438.19C1200.18,1424.92 1203.88,1411.16 1210.53,1397.54C1227.78,1362.19 1246.62,1344.28 1283.32,1331.25L1288.94,1329.64C1295.55,1330.07 1298.8,1329.57 1305.37,1328.82C1324.2,1303.23 1343.28,1277.82 1362.61,1252.61C1388.42,1218.44 1407.01,1188.11 1447.05,1168.36C1470.06,1157.01 1488.35,1152.19 1513.69,1147.61L1514.08,1129.39C1500.41,1125.16 1491.6,1120.61 1484.5,1106.91C1473.68,1085.99 1478.37,1050.88 1481.34,1027.78C1469.4,1010.39 1465.27,1000.24 1477.01,980.846C1471.91,969.292 1469.14,960.884 1473.56,948.067C1480.32,928.418 1504.39,918.943 1523.34,925.86C1531.8,928.945 1539.16,935.543 1548.18,937.102C1569.24,941.06 1596.24,929.409 1606.98,956.006C1609.25,961.617 1609.21,965.616 1609.36,971.554C1640.52,982.605 1630.8,1010.29 1621.73,1033.84L1619.58,1039.36C1632.17,1063.86 1623.07,1078.91 1596.07,1081.95L1597.32,1146.99C1644.68,1154.68 1697.53,1172.53 1725.7,1213.62C1757.26,1259.63 1791.36,1346.1 1805.11,1399.9C1821.69,1455.45 1843.48,1522.99 1814.52,1577.87C1800.02,1605.33 1773.43,1621.73 1743.48,1627.86C1755,1688.73 1754.38,1773.24 1699.28,1813.84C1699.53,1812.3 1727.7,1782.28 1734.17,1765.12C1748.92,1725.92 1750.499,1689.107 1744.35,1647.62C1743.842,1644.19 1743.34,1634.57 1741.67,1631.75C1739.95,1645.31 1744.497,1664.53 1745.04,1678.64C1745.855,1699.82 1743.81,1754.03 1728.57,1768.39C1748.98,1715.1 1745.44,1684.15 1738.14,1628.67C1704.53,1633.03 1681.43,1629.12 1648.79,1621.13C1654.93,1627.56 1676.15,1648.06 1677.3,1655.75C1672.39,1658.01 1648.79,1629.55 1644.57,1624.97C1586.62,1563.1 1527.84,1502 1468.26,1441.69L1417.38,1391.03C1407.12,1380.97 1396.9,1370.8 1385.91,1361.52C1352.73,1333.5 1306.6,1325.85 1266.86,1344.46C1222.17,1365.38 1208.58,1416.53 1193.21,1459.53L1167.34,1530.97C1140.24,1604.16 1113.6,1677.52 1087.42,1751.05L1109.85,1751.53C1108.6,1754.6 1108.48,1754.08 1108.3,1757.27C1099.35,1756.91 1088.02,1757.29 1078.88,1757.34C1082.5,1743.67 1093.44,1716.01 1098.55,1702.07C1110.13,1670.66 1121.52,1639.17 1132.72,1607.62C1069.8,1611.04 1031.41,1658.56 1042.68,1720.75C1041.68,1723.84 1041.14,1727.76 1039.45,1730.21C1022.65,1682.65 1048.22,1625.81 1096.14,1609.37C1111.02,1604.26 1119.35,1603 1135.1,1601.93C1144.93,1575.67 1154.45,1549.3 1163.67,1522.83Z" style="fill:url(#_Linear2);"/>
                    </g>
                    <g transform="matrix(0.5,0,0,0.5,0,0)">
                        <path d="M1109.85,1751.53L1226.38,1751.85L1226.9,1757.15L1256.44,1757.73C1267.49,1734 1279.38,1700.8 1289.89,1675.76C1334,1701.33 1383.9,1722.03 1428.14,1747.96C1430.22,1746.38 1431.96,1745.42 1434.2,1744.12C1438,1746.11 1447.33,1751.26 1450.87,1752.5L1455.63,1747.97C1494.29,1795.52 1532.76,1831.319 1596.98,1837.26C1656.86,1842.799 1698.99,1819.18 1728.57,1768.39C1748.98,1715.1 1745.44,1684.15 1738.14,1628.67C1704.53,1633.03 1681.43,1629.12 1648.79,1621.13C1654.93,1627.56 1676.15,1648.06 1677.3,1655.75C1672.39,1658.01 1648.79,1629.55 1644.57,1624.97C1586.62,1563.1 1527.84,1502 1468.26,1441.69L1417.38,1391.03C1407.12,1380.97 1396.9,1370.8 1385.91,1361.52C1352.73,1333.5 1306.6,1325.85 1266.86,1344.46C1222.17,1365.38 1208.58,1416.53 1193.21,1459.53L1167.34,1530.97C1140.24,1604.16 1113.6,1677.52 1087.42,1751.05L1109.85,1751.53Z" style="fill:rgb(249,198,13);"/>
                    </g>
                    <g transform="matrix(0.5,0,0,0.5,0,0)">
                        <path d="M1315.32,1611.69C1327.85,1612.98 1341.85,1614.28 1354.45,1614.45C1369.06,1632.87 1388.67,1666.14 1403.35,1687.1C1413.47,1701.42 1423.75,1715.63 1434.18,1729.73C1437.44,1734.1 1449.3,1748.96 1450.87,1752.5C1447.33,1751.26 1438,1746.11 1434.2,1744.12C1389.88,1721.11 1336.8,1691.88 1292.2,1670.88C1299.6,1651.03 1307.31,1631.3 1315.32,1611.69Z" style="fill:rgb(249,198,13);fill-rule:nonzero;"/>
                    </g>
                    <g transform="matrix(0.5,0,0,0.5,0,0)">
                        <path d="M1252.29,1751.76C1261.2,1733 1271.66,1704.76 1279.56,1685.04L1327.2,1565.83L1342.74,1526.97C1345.31,1520.51 1349.19,1506.59 1354.43,1502.77L1356.42,1503.16L1357.33,1504.86C1352.14,1522.04 1339.19,1551.64 1332.19,1569.05C1342.63,1582.36 1362.88,1615.7 1373.11,1631.26C1398.92,1671.34 1426.45,1710.28 1455.63,1747.97L1450.87,1752.5C1449.3,1748.96 1437.44,1734.1 1434.18,1729.73C1423.75,1715.63 1413.47,1701.42 1403.35,1687.1C1388.67,1666.14 1369.06,1632.87 1354.45,1614.45C1341.85,1614.28 1327.85,1612.98 1315.32,1611.69C1307.31,1631.3 1299.6,1651.03 1292.2,1670.88C1336.8,1691.88 1389.88,1721.11 1434.2,1744.12C1431.96,1745.42 1430.22,1746.38 1428.14,1747.96C1383.9,1722.03 1334,1701.33 1289.89,1675.76C1279.38,1700.8 1267.49,1734 1256.44,1757.73L1226.9,1757.15L1226.38,1751.85L1252.29,1751.76Z" style="fill:rgb(61,36,58);fill-rule:nonzero;"/>
                    </g>
                    <g transform="matrix(0.5,0,0,0.5,0,0)">
                        <path d="M1329.95,1575.63C1336.41,1584.45 1345.38,1599.43 1351.66,1609.08C1347.52,1608.86 1343.38,1608.58 1339.24,1608.25L1317.63,1606.67C1321.5,1596.4 1325.36,1585.56 1329.95,1575.63Z" style="fill:white;fill-rule:nonzero;"/>
                    </g>
                    <g transform="matrix(0.5,0,0,0.5,0,0)">
                        <path d="M1078.92,1773.18C1085.43,1776.14 1104.31,1762.62 1108.3,1757.27C1099.35,1756.91 1088.02,1757.29 1078.88,1757.34C1082.5,1743.67 1093.44,1716.01 1098.55,1702.07C1110.13,1670.66 1121.52,1639.17 1132.72,1607.62C1069.8,1611.04 1031.41,1658.56 1042.68,1720.75C1049.22,1745.6 1058.47,1757.64 1078.92,1773.18Z" style="fill:rgb(249,198,13);"/>
                    </g>
                    <g transform="matrix(0.5,0,0,0.5,0,0)">
                        <path d="M1074.02,1776.02C1076.31,1774.92 1076.85,1774.62 1078.92,1773.18C1058.47,1757.64 1049.22,1745.6 1042.68,1720.75C1041.68,1723.84 1041.14,1727.76 1039.45,1730.21C1044.77,1746.05 1058.64,1768.48 1074.02,1776.02Z" style="fill:rgb(61,36,58);"/>
                    </g>
                    <g transform="matrix(0.5,0,0,0.5,0,0)">
                        <path d="M1597.11,1152.17C1644.61,1161.6 1696.35,1176.87 1724.45,1222.06C1773.55,1303.23 1804.13,1400.58 1821.82,1493.35C1823.67,1510.08 1823.91,1528.6 1820.54,1544.99C1804.57,1622.75 1727.41,1634.76 1660.87,1618.29C1631.54,1611.02 1621.98,1592.77 1601.67,1571.23C1579.94,1548.19 1558.06,1525.31 1536.03,1502.57C1524.95,1491.16 1511.22,1476.36 1499.55,1465.96C1541.02,1465.73 1601.98,1473.28 1644.1,1477.54L1643.13,1471.74C1601.53,1467.48 1536.75,1459.56 1496.02,1460.03C1489.03,1455.15 1482.53,1447.91 1476.44,1441.88C1454.23,1419.89 1432.52,1397.19 1409.85,1375.67C1411.33,1349.05 1412.86,1322.95 1416.3,1296.5C1416.66,1293.73 1416.14,1289.69 1415.39,1286.97L1414.34,1286.84C1410.55,1294.4 1408.77,1302.81 1405.31,1310.45C1398.85,1324.68 1391.25,1338.36 1385.15,1352.77C1355.3,1334.95 1348.05,1331.5 1313.13,1327.84L1370.99,1251.01C1417.69,1188.35 1433.59,1170.77 1512.99,1153.1C1513.15,1176.13 1522.15,1190.08 1547.76,1189.07C1569.69,1188.21 1588.91,1172.29 1597.11,1152.17Z" style="fill:rgb(254,170,163);fill-rule:nonzero;"/>
                    </g>
                    <g transform="matrix(0.5,0,0,0.5,0,0)">
                        <path d="M1643.13,1471.74L1636.57,1406.23C1635.4,1393.45 1634.9,1383.25 1632.99,1370.32C1631.52,1360.38 1620.81,1334.65 1623.1,1329.09L1624.92,1328.12C1628.01,1330.04 1631.78,1344.14 1633,1348.45C1644.97,1390.79 1661.36,1432.53 1673.66,1474.67C1681.16,1475.54 1704.58,1477.09 1708.78,1481.27L1708.32,1482.99C1704.6,1485.1 1653.5,1478.36 1644.1,1477.54L1643.13,1471.74Z" style="fill:rgb(57,32,91);fill-rule:nonzero;"/>
                    </g>
                    <g transform="matrix(0.5,0,0,0.5,0,0)">
                        <path d="M1493.24,993.872C1524.11,1004.79 1541.47,1001.48 1573.87,996.042C1571.27,1020.1 1573.49,1029.76 1585.88,1050.89C1614.65,1021.64 1629.45,1057.78 1612.52,1071.21C1607.76,1075.02 1601.63,1076.66 1595.61,1075.74C1594.23,1075.52 1592.85,1075.27 1591.48,1074.99L1589.83,1075.62C1589.73,1082.72 1591.1,1090.2 1591.04,1097.08C1590.89,1113.1 1594.18,1134.9 1591.06,1150.25C1586.03,1174.92 1542.91,1196.38 1523.73,1174.8C1517.05,1167.6 1518.59,1155.97 1518.93,1146.82C1533.64,1142.6 1544.62,1137.27 1555.05,1125.74C1557.55,1122.97 1561.11,1120.1 1561.51,1116.2C1557.04,1113.42 1545.68,1122.03 1540.49,1123.24C1529.65,1125.77 1515.43,1126.02 1505.51,1120.64C1478.97,1106.25 1481.91,1071.12 1484.86,1045.81C1485.4,1041.21 1484.45,1036.22 1486.72,1031.95C1488.36,1028.8 1490.24,1028.83 1493.69,1027.52C1490.64,1027.42 1489.75,1026.36 1488.08,1024.65C1485.94,1020.43 1491.81,999.814 1493.24,993.872Z" style="fill:rgb(251,172,165);fill-rule:nonzero;"/>
                    </g>
                    <g transform="matrix(0.5,0,0,0.5,0,0)">
                        <path d="M1488.08,1024.65C1493.4,1022.29 1501.48,1020.01 1506.6,1024.06C1504.62,1028.72 1498.16,1027.08 1493.69,1027.52C1490.64,1027.42 1489.75,1026.36 1488.08,1024.65Z" style="fill:rgb(57,32,91);fill-rule:nonzero;"/>
                    </g>
                    <g transform="matrix(0.5,0,0,0.5,0,0)">
                        <path d="M1515.87,1036.53L1516.87,1037.04C1521.51,1044.72 1505.52,1058.82 1510.49,1065.12C1513.75,1066.15 1516.37,1066.55 1518.64,1068.99L1518.48,1072.41C1493.58,1071.18 1507.93,1048.48 1515.87,1036.53Z" style="fill:rgb(57,32,91);fill-rule:nonzero;"/>
                    </g>
                    <g transform="matrix(0.5,0,0,0.5,0,0)">
                        <path d="M1537.81,1078.7C1539.38,1079.17 1539.82,1079.78 1541.25,1080.84C1539.9,1090.46 1518.73,1092.95 1510.83,1091.85C1508.07,1090.35 1508.95,1091.46 1507.64,1088.9C1513.09,1084.36 1523.07,1093.21 1537.81,1078.7Z" style="fill:rgb(57,32,91);fill-rule:nonzero;"/>
                    </g>
                    <g transform="matrix(0.5,0,0,0.5,0,0)">
                        <path d="M1605.87,1046.6C1608.61,1047.76 1607.68,1047.21 1609.88,1049.27C1609.59,1053.06 1601.67,1053.49 1598.15,1064.46C1597.49,1064.77 1596.15,1064.77 1595.32,1064.84C1591.82,1057.57 1600.46,1050.06 1605.87,1046.6Z" style="fill:rgb(57,32,91);fill-rule:nonzero;"/>
                    </g>
                    <g transform="matrix(0.5,0,0,0.5,0,0)">
                        <path d="M1534.71,1025.28C1543.65,1024.67 1555.96,1024.51 1557.19,1035.55C1553.62,1034.59 1550.43,1032.38 1546.84,1031.4C1542.71,1030.27 1539.49,1029.74 1535.42,1028.17L1534.71,1025.28Z" style="fill:rgb(57,32,91);fill-rule:nonzero;"/>
                    </g>
                    <g transform="matrix(0.5,0,0,0.5,0,0)">
                        <path d="M1495.97,1036.76C1497.49,1036.06 1499.27,1036.25 1500.61,1037.25C1501.95,1038.25 1502.64,1039.9 1502.41,1041.55C1502.17,1043.21 1501.05,1044.61 1499.49,1045.19C1497.18,1046.06 1494.61,1044.94 1493.66,1042.67C1492.72,1040.4 1493.74,1037.79 1495.97,1036.76Z" style="fill:rgb(57,32,91);fill-rule:nonzero;"/>
                    </g>
                    <g transform="matrix(0.5,0,0,0.5,0,0)">
                        <path d="M1541.4,1038.67C1545.09,1041.73 1544,1039.9 1545.33,1044C1544.77,1047.84 1544,1048.29 1541.48,1051.18C1538.85,1048.81 1538.53,1048.85 1537.26,1045.45C1537.67,1042.05 1539.01,1041.19 1541.4,1038.67Z" style="fill:rgb(57,32,91);fill-rule:nonzero;"/>
                    </g>
                    <g transform="matrix(0.5,0,0,0.5,-40,-40)">
                        <path d="M358.025,346.076L444.432,305.115C458.097,298.649 483.463,285.891 496.865,281.552C501.803,288.589 506.402,296.148 511.145,303.356C555.967,371.478 599.594,440.651 645.066,508.316C661.011,535.322 681.319,563.113 698.038,589.811C705.913,602.385 717.792,616.763 724.67,628.453C740.279,654.918 744.668,686.521 736.861,716.237C729.384,745.644 710.396,770.809 684.17,786.068C658.173,801.246 627.175,805.363 598.117,797.496C582.42,793.222 566.934,785.373 554.634,774.63C548.565,769.33 540.973,758.864 533.358,758.802C529.909,758.774 528.371,758.328 526.204,755.438C517.024,742.943 508.218,728.64 499.774,715.646L447.08,635.028C439.879,624.03 427.951,604.419 420.403,594.478C413.253,582.033 400.322,563.53 392.238,551.103C369.528,516.614 347.042,481.977 324.782,447.196L358.025,346.076ZM424.073,589.246C415.139,576.684 404.94,560.042 396.42,546.935C375.243,514.054 353.851,481.312 332.244,448.712C355.255,439.075 378.708,428.504 401.623,418.501L406.742,416.585C422.5,409.626 439.649,402.457 455.136,395.185C483.073,439.602 512.829,483.271 541.142,527.647C551.43,542.627 569.051,568.38 577.802,583.691C558.461,594.697 549.1,602.228 535.129,619.908L531.923,624.556C529.239,628.146 521.744,644.435 520.143,649.547C507.372,690.343 515.009,715.92 532.688,751.745C518.905,737.3 504.524,712.5 493.252,695.294L424.073,589.246ZM398.506,413.6C376.538,422.863 354.661,432.34 332.878,442.031C340.417,415.184 352.64,381.17 361.342,354.016C362.063,351.511 362.396,351.572 364.335,349.708L491.18,289.736C480.708,316.15 462.428,362.528 454.331,389.371L403.013,411.521C402.041,411.981 399.367,413.329 398.506,413.6ZM547.227,526.103C519.485,481.775 488.211,435.46 459.526,391.485L496.166,291.534C543.119,361.313 590.12,434.913 636.043,505.679C654.991,532.133 675.911,566.733 694.119,594.356C665.745,575.326 637.266,568.665 603.508,575.447C596.561,576.868 589.739,578.844 583.108,581.356C571.413,562.682 559.054,544.636 547.227,526.103Z" style="fill:rgb(156,132,233);"/>
                    </g>
                    <g transform="matrix(0.5,0,0,0.5,-40,-40)">
                        <path d="M406.742,416.585C422.5,409.626 439.649,402.457 455.136,395.185C483.073,439.602 512.829,483.271 541.142,527.647C523.96,533.79 507.236,541.142 491.093,549.647C462.48,506.487 434.816,460.343 406.742,416.585Z" style="fill:white;fill-opacity:0.71;"/>
                    </g>
                    <g transform="matrix(0.5,0,0,0.5,-40,-40)">
                        <path d="M424.073,589.246C415.139,576.684 404.94,560.042 396.42,546.935C375.243,514.054 353.851,481.312 332.244,448.712C355.255,439.075 378.708,428.504 401.623,418.501C420.006,449.258 440.283,479.446 459.128,509.934C466.448,521.777 478.47,539.03 484.722,550.986C482.84,551.599 424.53,589.023 424.073,589.246Z" style="fill:white;fill-opacity:0.71;"/>
                    </g>
                    <g transform="matrix(0.5,0,0,0.5,-40,-40)">
                        <path d="M541.142,527.647C551.43,542.627 569.051,568.38 577.802,583.691C558.461,594.697 549.1,602.228 535.129,619.908C521.219,596.136 505.319,573.325 491.093,549.647C507.236,541.142 523.96,533.79 541.142,527.647Z" style="fill:white;fill-opacity:0.71;"/>
                    </g>
                    <g transform="matrix(0.5,0,0,0.5,-40,-40)">
                        <path d="M401.623,418.501L406.742,416.585C434.816,460.343 462.48,506.487 491.093,549.647C505.319,573.325 521.219,596.136 535.129,619.908L531.923,624.556C515.754,601.301 500.864,574.862 484.743,551.025C484.784,550.981 484.776,550.968 484.722,550.986C478.47,539.03 466.448,521.777 459.128,509.934C440.283,479.446 420.006,449.258 401.623,418.501Z" style="fill:rgb(145,130,175);"/>
                    </g>
                    <g transform="matrix(0.5,0,0,0.5,-40,-40)">
                        <path d="M547.227,526.103C519.485,481.775 488.211,435.46 459.526,391.485L496.166,291.534C543.119,361.313 590.12,434.913 636.043,505.679C630.684,507.838 617.78,509.331 611.443,510.492C595.585,513.397 560.864,519.7 547.227,526.103Z" style="fill:white;fill-opacity:0.71;"/>
                    </g>
                    <g transform="matrix(0.5,0,0,0.5,-40,-40)">
                        <path d="M364.335,349.708L491.18,289.736C480.708,316.15 462.428,362.528 454.331,389.371L403.013,411.521C399.218,402.586 370.477,358.366 364.335,349.708Z" style="fill:white;fill-opacity:0.71;"/>
                    </g>
                    <g transform="matrix(0.5,0,0,0.5,-40,-40)">
                        <path d="M398.506,413.6C376.538,422.863 354.661,432.34 332.878,442.031C340.417,415.184 352.64,381.17 361.342,354.016C370.524,371.183 387.524,396.767 398.506,413.6Z" style="fill:white;fill-opacity:0.71;"/>
                    </g>
                    <g transform="matrix(0.5,0,0,0.5,-40,-40)">
                        <path d="M361.342,354.016C362.063,351.511 362.396,351.572 364.335,349.708C370.477,358.366 399.218,402.586 403.013,411.521C402.041,411.981 399.367,413.329 398.506,413.6C387.524,396.767 370.524,371.183 361.342,354.016Z" style="fill:rgb(145,130,175);"/>
                    </g>
                    <g transform="matrix(0.5,0,0,0.5,-40,-40)">
                        <path d="M531.923,624.556C529.239,628.146 521.744,644.435 520.143,649.547C507.372,690.343 515.009,715.92 532.688,751.745C518.905,737.3 504.524,712.5 493.252,695.294L424.073,589.246C424.53,589.023 482.84,551.599 484.722,550.986C484.729,550.999 484.736,551.012 484.743,551.025C500.864,574.862 515.754,601.301 531.923,624.556Z" style="fill:white;fill-opacity:0.71;"/>
                    </g>
                    <g transform="matrix(0.5,0,0,0.5,-40,-40)">
                        <path d="M484.743,551.025C484.784,550.981 484.776,550.968 484.722,550.986C484.729,550.999 484.736,551.012 484.743,551.025Z" style="fill:white;fill-opacity:0.71;"/>
                    </g>
                    <g transform="matrix(0.5,0,0,0.5,-40,-40)">
                        <path d="M636.043,505.679C654.991,532.133 675.911,566.733 694.119,594.356C665.745,575.326 637.266,568.665 603.508,575.447C596.561,576.868 589.739,578.844 583.108,581.356C571.413,562.682 559.054,544.636 547.227,526.103C560.864,519.7 595.585,513.397 611.443,510.492C617.78,509.331 630.684,507.838 636.043,505.679Z" style="fill:white;fill-opacity:0.71;"/>
                    </g>
                    <g transform="matrix(0.5,0,0,0.5,0,-40)">
                        <path d="M848.686,521.899C832.457,481.96 830.155,437.719 842.152,396.311C855.917,347.906 888.491,307.028 932.601,282.802C977.088,258.614 1029.34,253.017 1077.94,267.233C1133.57,283.628 1168.36,317.643 1195.21,367.362C1216.53,417.892 1220.79,469.253 1199.65,521.01C1180.83,567.929 1144.03,605.376 1097.44,625.015C1086.71,629.488 1075.19,632.729 1063.9,635.567C1059.26,644.927 1029.16,706.646 1023.79,709.722C1017.41,703.221 990.353,647.556 984.095,635.573C920.668,619.641 874.245,583.022 848.686,521.899ZM1012.31,265.395C1049.17,262.943 1085.9,271.804 1117.59,290.792C1159.38,315.672 1189.65,356.07 1201.77,403.175C1214.14,451.147 1206.82,502.072 1181.44,544.618C1152.98,592.106 1112.56,617.224 1060.13,630.492L1028.62,691.641L1023.97,700.894C1013.2,678.594 999.477,652.201 987.766,630.391C956.778,622.75 934.047,613.526 908.739,593.259C871.126,562.738 846.967,518.697 841.441,470.575C831.179,375.421 893.482,288.077 987.139,268.909C995.654,267.167 1003.67,266.235 1012.31,265.395Z" style="fill:rgb(57,32,91);"/>
                    </g>
                    <g transform="matrix(0.5,0,0,0.5,0,-40)">
                        <path d="M1012.31,265.395C1049.17,262.943 1085.9,271.804 1117.59,290.792C1159.38,315.672 1189.65,356.07 1201.77,403.175C1214.14,451.147 1206.82,502.072 1181.44,544.618C1152.98,592.106 1112.56,617.224 1060.13,630.492L1028.62,691.641L1023.97,700.894C1013.2,678.594 999.477,652.201 987.766,630.391C956.778,622.75 934.047,613.526 908.739,593.259C871.126,562.738 846.967,518.697 841.441,470.575C831.179,375.421 893.482,288.077 987.139,268.909C995.654,267.167 1003.67,266.235 1012.31,265.395Z" style="fill:white;fill-opacity:0.4;"/>
                    </g>
                    <g transform="matrix(0.5,0,0,0.5,0,-40)">
                        <path d="M1098.03,361.665C1102.8,363.998 1130.96,393.543 1136.26,399.209C1130.64,405.877 1123.9,413.035 1117.84,419.377C1076.28,462.907 1037.33,510.276 995.614,553.474C984.86,544.444 960.287,518.517 949.69,507.928C937.808,495.961 922.291,481.609 911.726,469.215C920.64,458.74 938.452,440.621 948.334,431.101C957.014,437.418 985.032,466.641 994.118,475.786C1014.27,452.86 1035.5,430.05 1056.01,407.361C1069.11,392.869 1084.33,375.083 1098.03,361.665Z" style="fill:rgb(57,32,91);fill-rule:nonzero;"/>
                    </g>
                    <g transform="matrix(0.5,0,0,0.5,0,-40)">
                        <path d="M1098.26,369.914C1108.49,379.647 1118.61,389.503 1128.61,399.482C1111.68,416.469 1094.23,436.448 1077.98,454.28L994.893,545.584C986.718,534.88 961.819,511.336 951.376,500.949C940.692,490.496 930.106,479.944 919.619,469.293C929.032,458.953 938.681,448.83 948.559,438.932C960.331,450.691 982.628,474.28 994.553,483.904C1003.26,475.882 1015.11,461.228 1023.67,451.905L1098.26,369.914Z" style="fill:rgb(160,235,233);fill-rule:nonzero;"/>
                    </g>
                    <g transform="matrix(0.5,0,0,0.5,60,-10)">
                        <path d="M1529.24,222.802L1634.09,220.012C1640.56,233.349 1654.25,266.933 1660.3,277.158C1664.49,288.569 1672.49,304.845 1677.63,316.62C1664.87,341.193 1648.93,367.994 1635.29,392.596L1544.02,557.207C1529.5,583.408 1510.7,615.111 1497.89,641.38C1462,649.067 1421.43,656.042 1385.22,662.22C1378.02,648.806 1368.88,625.523 1361.85,610.945C1356.8,600.462 1343.21,571.436 1340.03,561.35L1524.64,229.483C1525.28,228.539 1528.7,223.409 1529.24,222.802ZM1537.27,233.348L1535.96,229.467L1536.71,228.315C1563.54,226.397 1603.32,226.155 1630.8,225.786C1636.65,239.177 1642.6,252.525 1648.65,265.828C1653.68,274.926 1664.89,301.897 1669.82,312.816C1651.73,313.179 1632.77,314.264 1614.63,315.028C1596.8,304.457 1578.02,294.288 1559.86,284.187C1552.1,267.926 1544.67,249.966 1537.27,233.348Z" style="fill:rgb(57,32,91);"/>
                    </g>
                    <g transform="matrix(0.5,0,0,0.5,60,-10)">
                        <path d="M1558.36,290.382C1575.3,299.083 1592.95,309.448 1609.91,318.628L1517.17,484.951C1501.23,513.456 1482.74,549.401 1465.75,576.52C1465.58,576.578 1465.43,576.675 1465.25,576.696C1460,577.315 1422.57,552.004 1415.61,547.695C1425.87,525.394 1447.19,490.084 1459.78,467.254L1558.36,290.382Z" style="fill:rgb(112,226,222);fill-rule:nonzero;"/>
                    </g>
                    <g transform="matrix(0.5,0,0,0.5,60,-10)">
                        <path d="M1529.61,232.823C1533.01,236.905 1550.61,278.24 1553.85,285.667C1535.55,321.352 1511.76,361.612 1491.95,397.005L1408.92,546.079L1369.55,553.785L1349.7,557.714C1354.84,545.557 1364.3,529.521 1370.95,517.593L1406.23,454.293L1529.61,232.823Z" style="fill:rgb(201,244,242);fill-rule:nonzero;"/>
                    </g>
                    <g transform="matrix(0.5,0,0,0.5,60,-10)">
                        <path d="M1645.57,319.5C1653.01,318.981 1661.94,319.052 1669.5,318.918C1659.76,338.106 1646.43,360.228 1635.83,379.432L1557.24,521.019L1518.1,591.763C1512.57,601.893 1501.75,623.218 1495.39,632.085C1487.19,617.577 1477.36,597.059 1469.99,582.079L1615.64,320.881C1623.77,319.795 1637.01,319.768 1645.57,319.5Z" style="fill:rgb(253,237,178);fill-rule:nonzero;"/>
                    </g>
                    <g transform="matrix(0.5,0,0,0.5,60,-10)">
                        <path d="M1407.68,552.38C1413.01,551.742 1456.93,579.711 1464.61,584.337L1490.87,636.379C1475.36,640.966 1444.77,645.753 1427.8,648.812C1414.72,651.29 1401.6,653.521 1388.43,655.503C1375.32,627.618 1359.2,592.574 1347.82,564.338C1365.19,559.991 1390.2,554.902 1407.68,552.38Z" style="fill:rgb(255,198,193);fill-rule:nonzero;"/>
                    </g>
                    <g transform="matrix(0.5,0,0,0.5,60,-10)">
                        <path d="M1537.27,233.348L1535.96,229.467L1536.71,228.315C1563.54,226.397 1603.32,226.155 1630.8,225.786C1636.65,239.177 1642.6,252.525 1648.65,265.828C1653.68,274.926 1664.89,301.897 1669.82,312.816C1651.73,313.179 1632.77,314.264 1614.63,315.028C1596.8,304.457 1578.02,294.288 1559.86,284.187C1552.1,267.926 1544.67,249.966 1537.27,233.348Z" style="fill:rgb(236,235,233);fill-opacity:0.55;"/>
                    </g>
                    <g transform="matrix(0.5,0,0,0.5,0,0)">
                        <path d="M1083.55,1293.65C1112,1266.19 1140.83,1239.14 1170.05,1212.51C1177.05,1221.76 1200.9,1245.03 1209.94,1254.43L1283.32,1331.25C1246.62,1344.28 1227.78,1362.19 1210.53,1397.54C1203.88,1411.16 1200.18,1424.92 1194.54,1438.19C1151.77,1392.55 1117.69,1345.68 1083.55,1293.65Z" style="fill:rgb(254,170,163);fill-rule:nonzero;"/>
                    </g>
                    <g transform="matrix(0.5,0,0,0.5,0,0)">
                        <path d="M1070.63,1184.17C1069.43,1183.05 1062.94,1176.41 1060.78,1174.86C1049.34,1166.61 1040.41,1144.62 1061.71,1144.71C1070.74,1146.83 1084.13,1157.57 1091.24,1160.83C1127.38,1177.36 1134.57,1185.13 1154.85,1218.24C1159.6,1214.36 1165.42,1208.86 1170.1,1204.69C1204.47,1239.02 1237.42,1275.73 1271.35,1310.54C1277.37,1316.71 1283.27,1323.15 1288.94,1329.64L1283.32,1331.25L1209.94,1254.43C1200.9,1245.03 1177.05,1221.76 1170.05,1212.51C1140.83,1239.14 1112,1266.19 1083.55,1293.65C1117.69,1345.68 1151.77,1392.55 1194.54,1438.19L1192.46,1440.24C1190.32,1439.75 1191.03,1439.46 1189.65,1440.18C1185.08,1437.82 1171.23,1421.32 1167.22,1416.53C1135.71,1378.91 1101.46,1335.07 1076.65,1292.86C1081.23,1287.85 1090.5,1280.24 1092.78,1274.43C1087.31,1262.78 1066.16,1263.38 1054.78,1261.56C1041.58,1259.38 1028.58,1256.13 1015.9,1251.84C1005,1248.08 982.513,1237.82 973.452,1229.44C972.217,1228.3 968.85,1218.37 966.065,1215.44C962.427,1211.61 956.594,1208.01 954.695,1203.24C954.105,1201.76 954.97,1197.45 954.916,1195.25C954.748,1188.34 951.536,1182.17 955.341,1176.01C960.563,1171.9 964.728,1172.34 971.327,1172.27L971.95,1171.66C974.929,1168.78 980.392,1163.59 984.674,1163.74C1000.54,1164.28 1017.25,1174.26 1032.69,1178.42C1048.27,1182.61 1055.15,1183.9 1070.63,1184.17Z" style="fill:rgb(57,32,91);fill-rule:nonzero;"/>
                    </g>
                    <g transform="matrix(0.5,0,0,0.5,0,0)">
                        <path d="M1057.49,1149.63C1067.37,1150.76 1079.96,1160.77 1088.88,1165.93C1100.61,1172.71 1117.43,1178.78 1126.87,1188.14C1135.78,1196.96 1143.43,1211.01 1151.36,1221.31C1135.6,1237.4 1114.57,1256.06 1097.8,1271.68C1086.87,1258.41 1074.53,1257.97 1058.11,1256.1C1041.51,1254.22 975.73,1237.1 974.138,1217.69C981.648,1204.95 1015.79,1235.63 1031.07,1228.24L1031.47,1226.7C1030.12,1225.55 1029.47,1225.05 1027.64,1224.82C1011.95,1222.85 993.316,1211.04 979.311,1207.92C969.419,1211.01 969.553,1211.91 962.401,1204.33C960.446,1199.76 960.327,1201.3 961.244,1197.16C963.565,1194.35 964.369,1193.5 968.579,1193.37C977.737,1193.1 1030.45,1222.03 1034.92,1211.65L1034.03,1209.95C1027.58,1206.57 1016.93,1206.07 1009.75,1203.41C997.647,1198.92 985.302,1191.92 972.982,1188.13C971.4,1187.64 963.834,1188.91 960.139,1188.66C958.743,1186.88 957.881,1185.65 958.488,1183.37C962.616,1169.93 985.468,1183.37 993.5,1186.13C1003.53,1189.58 1032.67,1204.81 1041.05,1199.46C1041.06,1198.9 1041.07,1198.33 1041.07,1197.77C1030.38,1193.32 984.902,1180.62 979.435,1172.86L980.221,1171.24C981.476,1170.6 984.431,1168.99 985.911,1169.17C1005.27,1171.5 1026.14,1184.52 1045.65,1187.3C1055.02,1188.63 1073.2,1192.56 1080.06,1187.94C1083.08,1179.97 1044.9,1165.99 1057.49,1149.63Z" style="fill:rgb(251,172,165);fill-rule:nonzero;"/>
                    </g>
                    <g transform="matrix(0.5,0,0,0.5,0,0)">
                        <path d="M1072.65,1217.32C1084.86,1215.48 1101.37,1218.39 1111.67,1225.56L1110.91,1227.97L1112.12,1226.1L1110.09,1228.2C1105.29,1228.68 1095.85,1223.53 1086.7,1222.59L1085.3,1222.46C1069.54,1221.51 1060.85,1227.31 1047.76,1227.91C1047.4,1221.32 1067.35,1218.13 1072.65,1217.32Z" style="fill:rgb(57,32,91);fill-rule:nonzero;"/>
                    </g>
                    <g transform="matrix(0.330801,0,0,0.330801,382.964323,537.663196)">
                        <path d="M1771.61,964.39C1743.4,979.927 1708.27,974.508 1686.05,951.194C1663.83,927.879 1660.12,892.524 1677,865.099C1693.88,837.674 1727.12,825.065 1757.94,834.396C1785.24,842.662 1804.94,866.484 1807.92,894.856C1810.9,923.228 1796.6,950.626 1771.61,964.39Z" style="fill:rgb(57,32,91);fill-rule:nonzero;"/>
                    </g>
                    <g transform="matrix(0.330801,0,0,0.330801,382.964323,537.663196)">
                        <path d="M1729.42,837.691C1765.07,833.32 1797.52,858.641 1801.96,894.284C1806.39,929.926 1781.13,962.428 1745.5,966.925C1709.77,971.434 1677.17,946.093 1672.72,910.362C1668.28,874.63 1693.68,842.074 1729.42,837.691Z" style="fill:rgb(221,248,247);fill-rule:nonzero;"/>
                    </g>
                    <g transform="matrix(0.5,0,0,0.5,0,0)">
                        <path d="M275.158,1308.53C289.404,1306.33 303.256,1314.37 308.418,1327.82C313.579,1341.28 308.65,1356.52 296.584,1364.41C286.118,1371.25 272.544,1371.04 262.296,1363.87C252.049,1356.71 247.189,1344.03 250.019,1331.86C252.849,1319.68 262.801,1310.44 275.158,1308.53Z" style="fill:rgb(57,32,91);fill-rule:nonzero;"/>
                    </g>
                    <g transform="matrix(0.5,0,0,0.5,0,0)">
                        <path d="M275.06,1314.56C288.502,1311.91 301.542,1320.68 304.156,1334.13C306.771,1347.58 297.966,1360.59 284.509,1363.17C271.106,1365.73 258.152,1356.97 255.548,1343.58C252.944,1330.18 261.671,1317.2 275.06,1314.56Z" style="fill:rgb(249,198,13);fill-rule:nonzero;"/>
                    </g>
                    <g transform="matrix(0.691778,0,0,0.691778,-39.192979,-113.220722)">
                        <path d="M254.664,845.876C257.606,846.388 259.942,846.715 262.597,847.878C269.884,850.8 277.157,872.342 286.753,865.334C296.231,857.994 295.482,845.125 310.809,846.669C321.584,847.755 322.89,863.706 330.826,866.25C345.747,868.75 344.162,843.68 361.056,846.835C365.547,847.674 367.653,849.2 370.336,852.906C377.13,862.293 374.923,863.685 386.441,867.574C386.999,870.621 387.118,869.179 386.138,872.068C380.985,875.156 372.699,867.41 370.4,863.355C352.516,831.817 350.797,877.385 330.409,872.388C318.072,869.364 317.824,847.289 303.841,853.471C297.522,857.005 291.915,875.468 281.062,873.015C271.669,870.893 266.667,858.897 260.495,852.105C246.966,850.905 248.211,866.595 237.047,871.455C221.198,878.354 219.408,856.917 208.44,852.739C205.964,851.796 206.627,852.254 204.477,850.62L204.366,848.598C206.999,845.862 205.443,846.672 209.2,846.088C217.977,849.583 221.815,859.382 229.778,866.535C238.482,867.829 243.708,851.772 254.664,845.876Z" style="fill:rgb(254,176,169);fill-rule:nonzero;"/>
                    </g>
                    <g transform="matrix(0,0.691778,-0.691778,0,1529.86318,218.246809)">
                        <path d="M254.664,845.876C257.606,846.388 259.942,846.715 262.597,847.878C269.884,850.8 277.157,872.342 286.753,865.334C296.231,857.994 295.482,845.125 310.809,846.669C321.584,847.755 322.89,863.706 330.826,866.25C345.747,868.75 344.162,843.68 361.056,846.835C365.547,847.674 367.653,849.2 370.336,852.906C377.13,862.293 374.923,863.685 386.441,867.574C386.999,870.621 387.118,869.179 386.138,872.068C380.985,875.156 372.699,867.41 370.4,863.355C352.516,831.817 350.797,877.385 330.409,872.388C318.072,869.364 317.824,847.289 303.841,853.471C297.522,857.005 291.915,875.468 281.062,873.015C271.669,870.893 266.667,858.897 260.495,852.105C246.966,850.905 248.211,866.595 237.047,871.455C221.198,878.354 219.408,856.917 208.44,852.739C205.964,851.796 206.627,852.254 204.477,850.62L204.366,848.598C206.999,845.862 205.443,846.672 209.2,846.088C217.977,849.583 221.815,859.382 229.778,866.535C238.482,867.829 243.708,851.772 254.664,845.876Z" style="fill:rgb(254,176,169);fill-rule:nonzero;"/>
                    </g>
                    <g transform="matrix(0.5,0,0,0.5,-171,-203)">
                        <path d="M1806.08,529.827C1828.34,511.302 1828.93,543.774 1844.45,545.362C1845.72,547.965 1844.63,550.423 1842.77,552.532C1831.32,554.96 1822.86,510.118 1804.42,543.272C1784.86,565.591 1781.07,537.746 1769.22,531.073C1759.21,525.439 1755.1,548.324 1745.61,550.587C1729.84,554.35 1729.75,537.342 1719.24,531.301C1708.22,526.147 1703.43,549.627 1693.23,551.541C1681.54,553.734 1675.74,535.506 1666.76,530.53C1664.61,529.333 1664.35,528.826 1663.38,527.053L1664.19,525.051C1673.31,522.454 1679.56,535.74 1683.91,541.303C1693.71,553.82 1702.39,532.578 1708.54,527.991C1727.44,513.902 1728.16,542.987 1741.47,544.994C1749.09,544.986 1752.68,532.418 1757.08,528.608C1774.31,513.691 1780.97,544.783 1793.19,545.18C1799.66,542.753 1802.4,536.001 1806.08,529.827Z" style="fill:rgb(57,32,91);fill-rule:nonzero;"/>
                    </g>
                    <g transform="matrix(0.5,0,0,0.5,0,0)">
                        <path d="M1074.31,749.934C1085.71,749.832 1097.32,749.968 1108.73,750.001L1141.98,750.037L1176.09,749.994C1176.18,762.149 1176.15,774.305 1176.01,786.46C1187,786.371 1198.43,786.133 1209.39,786.232C1209.45,798.446 1209.36,810.659 1209.13,822.871L1242.86,822.884L1242.82,930.759C1231.65,930.963 1220.47,931.024 1209.3,930.942L1209.16,967.002C1198.33,967.035 1186.8,967.249 1176.03,967.048L1176.05,1003.58C1164.77,1003.77 1153.49,1003.82 1142.22,1003.73L1142.11,1040.1C1131.35,1040.1 1119.39,1040.35 1108.73,1040.06L1074.91,1040.12L1074.5,1076.5L1041.79,1076.81L1041.31,1076.58C1031.07,1076.26 1017.18,1075.87 1006.98,1076.68C996.082,1076.95 983.923,1076.68 972.931,1076.66L972.912,1047.51C972.595,1044.17 972.727,1043.84 971.393,1040.66C967.366,1039.64 945.144,1040.05 939.095,1040.05L905.165,1040.04L904.956,1003.8L871.804,1003.48L871.353,967.138L838.333,966.983C837.911,955.606 838.171,942.468 838.145,930.955L805.047,930.889L804.838,822.836C813.055,822.948 821.273,822.889 829.488,822.659C832.321,822.28 835.288,822.465 838.163,822.523L838.063,786.335C848.444,786.137 858.828,786.154 869.208,786.383C872.775,783.035 870.453,758.5 871.513,749.911L972.975,749.989L972.956,786.275C984.176,786.299 995.749,786.18 1006.94,786.38L1006.93,822.89L1040.97,822.945C1040.53,811.357 1040.76,798.058 1040.69,786.347L1074.75,786.436C1074.39,774.541 1074.46,761.892 1074.31,749.934Z" style="fill:rgb(18,206,200);fill-rule:nonzero;"/>
                    </g>
                    <g transform="matrix(0.5,0,0,0.5,0,0)">
                        <path d="M1141.98,750.037L1176.09,749.994C1176.18,762.149 1176.15,774.305 1176.01,786.46C1187,786.371 1198.43,786.133 1209.39,786.232C1209.45,798.446 1209.36,810.659 1209.13,822.871L1242.86,822.884L1242.82,930.759C1231.65,930.963 1220.47,931.024 1209.3,930.942L1209.16,967.002C1198.33,967.035 1186.8,967.249 1176.03,967.048L1176.05,1003.58C1164.77,1003.77 1153.49,1003.82 1142.22,1003.73L1142.11,1040.1C1131.35,1040.1 1119.39,1040.35 1108.73,1040.06C1108.38,1028.37 1108.62,1015.49 1108.63,1003.73L1142.15,1003.4L1142.3,967.016L1175.94,967.016C1175.73,955.169 1175.92,942.773 1175.94,930.88C1176.47,907.468 1176.03,882.292 1176.05,858.741C1175.73,847.281 1175.95,834.733 1175.94,823.187C1169.76,822.513 1149.49,822.992 1142.44,823.018C1142.2,815.211 1143.36,792.871 1141.13,787.111L1138.22,786.199C1128.99,787.075 1118,786.797 1108.6,786.8L1108.73,750.001L1141.98,750.037Z" style="fill:rgb(18,206,200);fill-rule:nonzero;"/>
                    </g>
                    <g transform="matrix(0.5,0,0,0.5,0,0)">
                        <path d="M1108.73,750.001L1141.98,750.037C1142.05,757.366 1142.67,779.177 1141.61,785.467C1148.55,787.703 1167.59,786.787 1175.88,787.056C1175.86,792.522 1174.45,820.63 1177.9,823.087C1187.99,822.539 1198.58,823.004 1208.72,823.248L1208.98,858.699C1198,858.788 1187.03,858.802 1176.05,858.741C1175.73,847.281 1175.95,834.733 1175.94,823.187C1169.76,822.513 1149.49,822.992 1142.44,823.018C1142.2,815.211 1143.36,792.871 1141.13,787.111L1138.22,786.199C1128.99,787.075 1118,786.797 1108.6,786.8L1108.73,750.001Z" style="fill:rgb(126,94,226);fill-rule:nonzero;"/>
                    </g>
                    <g transform="matrix(0.5,0,0,0.5,0,0)">
                        <path d="M1176.05,858.741C1187.03,858.802 1198,858.788 1208.98,858.699L1209.08,930.604L1175.94,930.88C1176.47,907.468 1176.03,882.292 1176.05,858.741Z" style="fill:rgb(57,32,91);fill-rule:nonzero;"/>
                    </g>
                    <g transform="matrix(0.5,0,0,0.5,0,0)">
                        <path d="M871.513,749.911L972.975,749.989L972.956,786.275C984.176,786.299 995.749,786.18 1006.94,786.38L1006.93,822.89C995.571,823.061 984.208,823.047 972.848,822.848L938.996,822.782C928.307,823.145 916.018,822.894 905.208,822.913C905.036,834.818 904.996,846.724 905.09,858.629C894.021,858.79 882.952,858.887 871.882,858.919C871.855,870.823 871.709,882.966 871.858,894.846C871.494,906.875 871.681,918.806 871.791,930.836L838.457,930.838C838.648,900.214 840.124,853.15 838.052,824.162C836.296,822.873 832.077,822.909 829.488,822.659C832.321,822.28 835.288,822.465 838.163,822.523L838.063,786.335C848.444,786.137 858.828,786.154 869.208,786.383C872.775,783.035 870.453,758.5 871.513,749.911Z" style="fill:rgb(138,230,222);fill-rule:nonzero;"/>
                    </g>
                    <g transform="matrix(0.5,0,0,0.5,0,0)">
                        <path d="M871.513,749.911L972.975,749.989L972.956,786.275C984.176,786.299 995.749,786.18 1006.94,786.38L1006.93,822.89C995.571,823.061 984.208,823.047 972.848,822.848L938.996,822.782L938.903,786.909C928.003,786.586 916.117,786.786 905.131,786.782C894.092,786.929 883.051,786.86 872.015,786.576C872.004,776.317 872.576,759.535 871.513,749.911Z" style="fill:rgb(18,206,200);fill-rule:nonzero;"/>
                    </g>
                    <g transform="matrix(0.5,0,0,0.5,0,0)">
                        <path d="M938.903,786.909L972.882,786.644L972.848,822.848L938.996,822.782L938.903,786.909Z" style="fill:rgb(138,230,222);fill-rule:nonzero;"/>
                    </g>
                    <g transform="matrix(0.5,0,0,0.5,0,0)">
                        <path d="M869.208,786.383L871.323,787.346C872.442,792.904 872.007,815.683 871.996,822.981C865.505,823.002 843.567,823.467 838.163,822.523L838.063,786.335C848.444,786.137 858.828,786.154 869.208,786.383Z" style="fill:rgb(18,206,200);fill-rule:nonzero;"/>
                    </g>
                    <g transform="matrix(0.5,0,0,0.5,0,0)">
                        <path d="M905.131,786.782C916.117,786.786 928.003,786.586 938.903,786.909L938.996,822.782C928.307,823.145 916.018,822.894 905.208,822.913L905.131,786.782Z" style="fill:white;fill-rule:nonzero;"/>
                    </g>
                    <g transform="matrix(0.5,0,0,0.5,0,0)">
                        <path d="M872.022,823.009L905.208,822.913C905.036,834.818 904.996,846.724 905.09,858.629C894.021,858.79 882.952,858.887 871.882,858.919L872.022,823.009Z" style="fill:white;fill-rule:nonzero;"/>
                    </g>
                    <g transform="matrix(0.5,0,0,0.5,0,0)">
                        <path d="M804.838,822.836C813.055,822.948 821.273,822.889 829.488,822.659C832.077,822.909 836.296,822.873 838.052,824.162C840.124,853.15 838.648,900.214 838.457,930.838L871.791,930.836L871.857,967.001L905.289,967.109L905.183,1003.57C916.507,1003.38 927.833,1003.35 939.158,1003.5L939.095,1040.05L905.165,1040.04L904.956,1003.8L871.804,1003.48L871.353,967.138L838.333,966.983C837.911,955.606 838.171,942.468 838.145,930.955L805.047,930.889L804.838,822.836Z" style="fill:rgb(18,206,200);fill-rule:nonzero;"/>
                    </g>
                    <g transform="matrix(0.5,0,0,0.5,0,0)">
                        <path d="M1074.84,822.837C1085.64,822.84 1097.64,822.613 1108.33,822.934L1142.04,823.112C1142.05,834.831 1141.85,847.279 1142.11,858.934L1142.08,930.296L1108.54,930.6C1107.85,909.813 1110.07,878.227 1107.88,858.962C1096.85,859.054 1085.83,859.043 1074.8,858.927L1074.84,822.837Z" style="fill:rgb(126,94,226);fill-rule:nonzero;"/>
                    </g>
                    <g transform="matrix(0.5,0,0,0.5,0,0)">
                        <path d="M1108.33,822.934L1142.04,823.112C1142.05,834.831 1141.85,847.279 1142.11,858.934C1133.61,858.946 1115.8,859.437 1107.99,858.391L1108.33,822.934Z" style="fill:rgb(249,198,13);fill-rule:nonzero;"/>
                    </g>
                    <g transform="matrix(0.5,0,0,0.5,0,0)">
                        <path d="M1108.57,967.043L1142.3,967.016L1142.15,1003.4L1108.63,1003.73C1108.62,1015.49 1108.38,1028.37 1108.73,1040.06L1074.91,1040.12L1074.5,1076.5L1041.79,1076.81L1041.31,1076.58C1040.42,1069.84 1041,1048.56 1040.71,1039.93C1051.92,1040.08 1063.42,1039.95 1074.66,1039.95L1074.9,1003.44C1085.32,1003.89 1098.11,1003.55 1108.73,1003.51L1108.57,967.043Z" style="fill:rgb(57,32,91);fill-rule:nonzero;"/>
                    </g>
                    <g transform="matrix(0.5,0,0,0.5,0,0)">
                        <path d="M871.791,930.836L905.052,930.969L905.329,966.933L939.07,967.09L939.266,1003.52C950.46,1003.6 961.654,1003.74 972.847,1003.94C972.64,1016.27 972.346,1027.5 973.119,1039.82L972.912,1047.51C972.595,1044.17 972.727,1043.84 971.393,1040.66C967.366,1039.64 945.144,1040.05 939.095,1040.05L939.158,1003.5C927.833,1003.35 916.507,1003.38 905.183,1003.57L905.289,967.109L871.857,967.001L871.791,930.836Z" style="fill:rgb(138,230,222);fill-rule:nonzero;"/>
                    </g>
                    <g transform="matrix(0.5,0,0,0.5,0,0)">
                        <path d="M1006.68,1040.04C1018.02,1040.08 1029.36,1040.05 1040.71,1039.93C1041,1048.56 1040.42,1069.84 1041.31,1076.58C1031.07,1076.26 1017.18,1075.87 1006.98,1076.68C996.082,1076.95 983.923,1076.68 972.931,1076.66L972.912,1047.51L973.119,1039.82L1006.68,1040.04Z" style="fill:rgb(18,206,200);fill-rule:nonzero;"/>
                    </g>
                    <g transform="matrix(0.5,0,0,0.5,0,0)">
                        <path d="M1040.61,894.983L1074.99,895.051L1074.78,931.03L1074.84,967.006C1063.62,967.038 1052.08,967.199 1040.9,967.029C1040.55,943.165 1040.69,918.881 1040.61,894.983Z" style="fill:rgb(249,198,13);fill-rule:nonzero;"/>
                    </g>
                    <g transform="matrix(0.5,0,0,0.5,0,0)">
                        <path d="M1074.78,931.03L1108.17,930.966L1108.07,966.895C1097.12,966.947 1085.98,967.101 1075.05,967.004L1074.68,1003.08C1063.24,1003.45 1052.41,1003.97 1040.97,1003.34C1040.86,991.237 1040.84,979.133 1040.9,967.029C1052.08,967.199 1063.62,967.038 1074.84,967.006L1074.78,931.03Z" style="fill:rgb(126,94,226);fill-rule:nonzero;"/>
                    </g>
                    <g transform="matrix(0.5,0,0,0.5,0,0)">
                        <path d="M972.848,822.848C984.208,823.047 995.571,823.061 1006.93,822.89L1007.03,858.839L972.628,858.93L972.848,822.848Z" style="fill:rgb(138,230,222);fill-rule:nonzero;"/>
                    </g>
                    <g transform="matrix(0.5,0,0,0.5,0,0)">
                        <path d="M972.847,1003.94L1006.8,1003.9C1006.82,1015.42 1007.1,1028.66 1006.68,1040.04L973.119,1039.82C972.346,1027.5 972.64,1016.27 972.847,1003.94Z" style="fill:rgb(252,231,153);fill-rule:nonzero;"/>
                    </g>
                    <g transform="matrix(0.5,0,0,0.5,0,0)">
                        <path d="M905.208,822.913C916.018,822.894 928.307,823.145 938.996,822.782C939.039,834.785 939.18,846.942 939.078,858.929C927.923,858.851 916.199,858.933 905.09,858.629C904.996,846.724 905.036,834.818 905.208,822.913Z" style="fill:rgb(252,231,153);fill-rule:nonzero;"/>
                    </g>
                    <g transform="matrix(0.5,0,0,0.5,0,0)">
                        <path d="M1006.93,822.89L1040.97,822.945C1040.92,833.594 1041.28,848.465 1040.69,858.773C1029.73,859.021 1018.05,858.842 1007.03,858.839L1006.93,822.89Z" style="fill:rgb(18,206,200);fill-rule:nonzero;"/>
                    </g>
                    <g transform="matrix(0.5,0,0,0.5,0,0)">
                        <path d="M1074.84,822.837L1074.8,858.927L1040.69,858.773C1041.28,848.465 1040.92,833.594 1040.97,822.945C1051.66,822.973 1064.34,823.289 1074.84,822.837Z" style="fill:rgb(249,198,13);fill-rule:nonzero;"/>
                    </g>
                    <g transform="matrix(0.5,0,0,0.5,0,0)">
                        <path d="M939.07,967.09L972.881,967.284C972.754,979.277 972.392,992.012 972.847,1003.94C961.654,1003.74 950.46,1003.6 939.266,1003.52L939.07,967.09Z" style="fill:rgb(253,240,190);fill-rule:nonzero;"/>
                    </g>
                    <g transform="matrix(0.5,0,0,0.5,0,0)">
                        <path d="M1006.8,1003.9L1040.82,1003.71C1040.65,1015.35 1040.15,1028.42 1040.71,1039.93C1029.36,1040.05 1018.02,1040.08 1006.68,1040.04C1007.1,1028.66 1006.82,1015.42 1006.8,1003.9Z" style="fill:rgb(253,240,190);fill-rule:nonzero;"/>
                    </g>
                    <g transform="matrix(0.5,0,0,0.5,0,0)">
                        <path d="M1142.22,930.66C1153.3,930.999 1164.82,930.859 1175.94,930.88C1175.92,942.773 1175.73,955.169 1175.94,967.016L1142.3,967.016L1142.22,930.66Z" style="fill:rgb(57,32,91);fill-rule:nonzero;"/>
                    </g>
                    <g transform="matrix(0.5,0,0,0.5,0,0)">
                        <path d="M905.052,930.969L938.997,931.032C938.954,942.107 938.544,956.252 939.07,967.09L905.329,966.933L905.052,930.969Z" style="fill:rgb(253,240,190);fill-rule:nonzero;"/>
                    </g>
                    <g transform="matrix(0.5,0,0,0.5,0,0)">
                        <path d="M1007.03,858.839C1018.05,858.842 1029.73,859.021 1040.69,858.773C1040.49,869.948 1039.85,884.048 1040.61,894.983C1029.36,894.962 1018.11,894.873 1006.86,894.718L1007.03,858.839Z" style="fill:rgb(249,198,13);fill-rule:nonzero;"/>
                    </g>
                    <g transform="matrix(0.5,0,0,0.5,0,0)">
                        <path d="M1074.9,786.642C1085.95,786.852 1097,786.934 1108.05,786.889C1108.13,798.708 1108.01,811.171 1108.33,822.934C1097.64,822.613 1085.64,822.84 1074.84,822.837C1074.8,810.914 1074.59,798.517 1074.9,786.642Z" style="fill:rgb(249,198,13);fill-rule:nonzero;"/>
                    </g>
                    <g transform="matrix(0.5,0,0,0.5,0,0)">
                        <path d="M871.882,858.919C882.952,858.887 894.021,858.79 905.09,858.629L905.333,894.943C894.245,894.914 882.924,895.005 871.858,894.846C871.709,882.966 871.855,870.823 871.882,858.919Z" style="fill:rgb(253,240,190);fill-rule:nonzero;"/>
                    </g>
                    <g transform="matrix(0.5,0,0,0.5,0,0)">
                        <path d="M973.967,1454.6C979.691,1456.91 1004.01,1502.36 1008.39,1510.91C997.423,1511.09 985.934,1510.91 974.922,1510.91C964.093,1510.99 953.264,1510.97 942.435,1510.84C945.401,1502.5 968.422,1462.31 973.967,1454.6Z" style="fill:rgb(57,32,91);fill-rule:nonzero;"/>
                    </g>
                    <g transform="matrix(0.5,0,0,0.5,0,0)">
                        <path d="M974.652,1464.87C978.689,1469.38 995.029,1498.11 999.133,1505.16C991.766,1505.45 984.31,1505.6 976.933,1505.8L951.215,1505.65C958.6,1491.82 966.416,1478.22 974.652,1464.87Z" style="fill:rgb(166,237,234);fill-rule:nonzero;"/>
                    </g>
                    <g transform="matrix(0.5,0,0,0.5,0,0)">
                        <path d="M1041.31,1076.58L1041.79,1076.81C1040.16,1082.04 1040.79,1106.09 1040.83,1112.85L1006.92,1112.74L1006.98,1076.68C1017.18,1075.87 1031.07,1076.26 1041.31,1076.58Z" style="fill:rgb(126,94,226);fill-rule:nonzero;"/>
                    </g>
                    <g transform="matrix(0.5,0,0,0.5,0,0)">
                        <path d="M740.545,275.643C755.126,272.127 769.803,281.074 773.358,295.645C776.913,310.217 768.005,324.918 753.443,328.512C738.826,332.119 724.057,323.171 720.489,308.544C716.92,293.917 725.909,279.172 740.545,275.643Z" style="fill:rgb(57,32,91);fill-rule:nonzero;"/>
                    </g>
                    <g transform="matrix(0.5,0,0,0.5,0,0)">
                        <path d="M741.246,281.667C752.672,278.485 764.504,285.21 767.617,296.655C770.729,308.099 763.932,319.891 752.469,322.934C741.104,325.95 729.436,319.224 726.35,307.878C723.264,296.531 729.919,284.822 741.246,281.667Z" style="fill:rgb(253,238,185);fill-rule:nonzero;"/>
                    </g>
                    <g transform="matrix(0.5,0,0,0.5,-42,52)">
                        <path d="M290.606,590.39C296.626,593.916 319.473,637.775 324.531,646.968C315.243,647.421 303.937,647.13 294.5,647.137C282.779,647.271 271.057,647.236 259.338,647.033C266.928,630.72 281.288,606.338 290.606,590.39Z" style="fill:rgb(57,32,91);fill-rule:nonzero;"/>
                    </g>
                    <g transform="matrix(0.5,0,0,0.5,-42,52)">
                        <path d="M290.818,600.636C294.616,603.426 312.046,635.633 315.663,641.918L293.401,641.927L268.196,641.766C275.928,628.302 284.069,614.578 290.818,600.636Z" style="fill:rgb(18,206,200);fill-rule:nonzero;"/>
                    </g>
                    <g transform="matrix(0.5,0,0,0.5,-67,50)">
                        <path d="M1820.8,719.749C1830.34,717.959 1839.53,724.221 1841.35,733.752C1843.17,743.284 1836.93,752.492 1827.41,754.343C1817.84,756.202 1808.58,749.935 1806.75,740.361C1804.92,730.786 1811.22,721.547 1820.8,719.749Z" style="fill:rgb(253,238,184);fill-rule:nonzero;"/>
                    </g>
                </g>
            </g>
        </g>
    </g>
    <defs>
        <linearGradient id="_Linear1" x1="0" y1="0" x2="1" y2="0" gradientUnits="userSpaceOnUse" gradientTransform="matrix(1419.216,777.01,-777.01,1419.216,292.794,1365.34)"><stop offset="0" style="stop-color:rgb(60,33,73);stop-opacity:1"/><stop offset="1" style="stop-color:rgb(62,33,108);stop-opacity:1"/></linearGradient>
        <linearGradient id="_Linear2" x1="0" y1="0" x2="1" y2="0" gradientUnits="userSpaceOnUse" gradientTransform="matrix(439.82,-849.31,849.31,439.82,1299.02,1867.39)"><stop offset="0" style="stop-color:rgb(65,32,57);stop-opacity:1"/><stop offset="1" style="stop-color:rgb(62,31,100);stop-opacity:1"/></linearGradient>
    </defs>
</svg>
