<?xml version="1.0" encoding="UTF-8" standalone="no"?>
<!DOCTYPE svg PUBLIC "-//W3C//DTD SVG 1.1//EN" "http://www.w3.org/Graphics/SVG/1.1/DTD/svg11.dtd">
<svg width="100%" height="100%" viewBox="0 0 2048 2048" version="1.1" xmlns="http://www.w3.org/2000/svg" xmlns:xlink="http://www.w3.org/1999/xlink" xml:space="preserve" xmlns:serif="http://www.serif.com/" style="fill-rule:evenodd;clip-rule:evenodd;stroke-linejoin:round;stroke-miterlimit:2;">
    <g transform="matrix(1,0,0,1,-7655,-17938)">
        <rect id="Playful-Agency.-VALORES.-Franqueza-y-honestidad" serif:id="Playful Agency. VALORES. Franqueza-y-honestidad" x="7655" y="17938" width="2048" height="2048" style="fill:none;"/>
        <g id="Playful-Agency.-VALORES.-Franqueza-y-honestidad1" serif:id="Playful Agency. VALORES. Franqueza-y-honestidad">
            <g transform="matrix(2.015625,0,0,2.015625,8679,18962)">
                <g transform="matrix(1,0,0,1,-512,-512)">
                    <g transform="matrix(0.5,0,0,0.5,0,0)">
                        <path d="M1734.41,1486.88C1756.92,1514.55 1787.37,1542.87 1812.68,1568.5C1822.08,1578.03 1839.92,1593.02 1847.95,1602.52C1843.45,1608.4 1839.99,1612.53 1835.02,1618.03C1851.41,1629.94 1885.68,1654 1898.74,1666.91C1873.91,1705.14 1848.59,1743.05 1822.79,1780.63C1811.22,1797.53 1793.44,1821.78 1783.17,1838.69C1796.84,1838.68 1870.12,1837.26 1878.35,1839.95L1878.4,1841.31C1872.16,1844.78 1835.28,1843.24 1825.58,1843.26L1705.94,1843.31L1346.32,1843.31L171.037,1843.21L169.155,1842.1L169.437,1839.82C174.825,1836.77 298.99,1840.3 317.296,1838.37C299.217,1829.63 286.916,1815.69 276.02,1799.1C275.496,1796.24 275.364,1797.3 276.042,1794.65L280.13,1794.66C260.296,1763.33 259.994,1738.08 254.343,1705.2C252.8,1705.59 251.289,1705.35 249.574,1705.29C234.946,1552.07 354.659,1420.53 443.91,1309.93C471.805,1275.36 501.448,1239.97 522.99,1201.04C519.772,1195.72 526.727,1170.29 530.102,1164.63C531.773,1163.91 533.094,1163.3 534.717,1162.49L535.859,1158.88C536.519,1163.65 535.447,1163.46 539.646,1166.03C600.542,1196.09 656.36,1205.64 723.865,1196.15C729.751,1197.44 733.137,1195.92 737.412,1198.97L738.092,1199.03C740.868,1208.54 741.138,1225.01 738.584,1234.71L738.264,1235.86C745.644,1256.82 758.029,1321.24 758.116,1344.07C760.444,1369.43 759.22,1395 754.479,1420.03C751.395,1436.4 746.889,1449.64 747.064,1466.33C748.222,1472.62 749.037,1500.33 749.474,1508.16L755.113,1602.09C757.486,1638.35 760.006,1675.6 763.45,1711.75C765.827,1736.71 770.422,1761.67 772.681,1786.95C797.768,1795.55 820.799,1806.52 812.573,1838.58C842.719,1839.37 875.128,1838.73 905.52,1838.72L1104.78,1838.83C1116.27,1782.6 1181.94,1795.77 1203.11,1756.17C1192.71,1755.38 1182.4,1755.11 1171.93,1754.26C1172.13,1737.11 1174.64,1713.89 1176.11,1696.45L1184.5,1599.53L1196.23,1470.49C1197.4,1457.67 1198.7,1444.77 1199.81,1431.99C1208.48,1331.43 1240.23,1233.86 1264.25,1136.25C1268.11,1120.57 1273.04,1101.22 1278.57,1086.09C1286.12,1050.93 1301.3,1014.28 1306.5,978.557C1307.01,975.013 1304.96,965.342 1304.24,961.426C1291.53,977.513 1274.93,1000.69 1259.27,1013.71C1226.3,1050.36 1143.73,1102.66 1099.12,1122.56C1094.64,1116.76 1092.05,1112.79 1088.16,1106.54L1085.46,1102.11C1080.52,1096.2 1077.02,1086.43 1070.15,1079.32C1069.33,1077.75 1068.11,1076.12 1067.1,1074.64L1067.19,1073.71C1069.56,1071.36 1072.24,1067.64 1074.34,1064.93C1079.41,1057.5 1087.37,1046.06 1090.65,1037.85C1093.52,1033.57 1096.87,1023.84 1098.01,1018.7C1103.39,994.531 1098.39,975.494 1085.71,955.029C1087.48,953.5 1088.06,953.434 1090.24,952.345L1089.24,950.961C1119.25,925.4 1159.18,890.384 1181.78,857.398C1207.29,820.16 1225.4,770.52 1244.86,729.559C1267.28,682.347 1291.2,632.463 1337.64,604.115C1352.1,595.283 1366.29,589.899 1382.02,584.193C1387.33,582.697 1388.83,583.069 1390.99,577.872L1392.15,578.992C1392.78,581.91 1392.72,582.463 1394.82,584.584L1397.13,582.726L1397.97,583.288C1392.56,594.801 1408,602.574 1417.4,603.608C1426.9,604.569 1436.39,601.707 1443.77,595.656C1450.12,590.502 1454.23,582.661 1455.17,574.563C1459.01,572.839 1457.55,574.192 1459.42,570.07L1463.07,571.084C1549.3,571.719 1631.75,606.565 1692.3,667.965C1735.47,712.194 1781.84,785.566 1779.81,849.443C1779.7,875.43 1773.83,917.637 1763.78,942.576C1758.56,956.501 1746.17,987.835 1738.42,1000.09C1728.39,1024.94 1684.03,1091.01 1665.56,1110.51C1661.39,1107.92 1657.24,1105.31 1653.1,1102.67C1644.29,1127.59 1637.19,1143.6 1623.01,1166.55C1623.45,1191.92 1636.05,1363.03 1640.43,1372.2C1645.78,1383.4 1656.52,1394.33 1664.33,1404.02C1687.01,1432.16 1710.02,1460.22 1734.41,1486.88ZM1341.91,1757.93C1326.04,1758.29 1301.15,1756.16 1284.27,1755.25C1248.6,1753.37 1212.94,1751.3 1177.29,1749.02C1183.5,1672.19 1190.2,1595.39 1197.37,1518.64C1202.36,1463.18 1205.92,1406.06 1216.69,1351.43C1222.15,1323.77 1229.24,1296.05 1235.95,1268.63C1251.28,1205.87 1267.77,1143.4 1285.42,1081.25C1293.71,1051.86 1305.53,1013.5 1311.65,984.006C1316.07,981.293 1551.72,971.436 1584.37,970.897C1580.07,979.438 1549.06,1035.33 1549.87,1039.07L1552.35,1040.37C1554.96,1042.12 1562.02,1046.69 1564.18,1048.53L1564.95,1048.4C1565.9,1048.82 1568.54,1049.92 1569.28,1050.39C1569.02,1050.66 1568.75,1050.94 1568.48,1051.21C1559.39,1060.23 1503.9,1097.46 1504.53,1108.32C1504.61,1109.85 1504.7,1110.25 1505.85,1110.91C1509.75,1113.11 1517.55,1112.12 1521.59,1110.67C1522.93,1110.19 1524.2,1109.57 1525.49,1109L1529.03,1107.45L1529.94,1107.27C1533.77,1106.48 1533.93,1106.43 1537.19,1104.42L1538.48,1104.77L1538.56,1108.35C1528.24,1128.15 1514.35,1143.48 1503.24,1162.35C1494.54,1177.13 1503.26,1182.65 1516.85,1184.12C1517.16,1193.21 1512.6,1192.76 1518.08,1202.2C1530.91,1210.76 1533,1201.24 1540.48,1202.13C1542.9,1206.44 1544.57,1210.99 1549.47,1212.76C1562,1217.27 1564.81,1202.63 1574.02,1200.9C1575.87,1200.55 1583.06,1207.75 1587.46,1205.34C1599.6,1201.43 1611.05,1184.05 1617.67,1173.97L1627.97,1307.56C1629.5,1327.28 1630.81,1352.9 1634.47,1371.93C1635.81,1378.91 1653.96,1399.38 1659.66,1406.53C1695.39,1452.04 1733.44,1495.69 1773.65,1537.3C1796.05,1560.32 1818.96,1580.82 1841.14,1603.02C1804.72,1646.37 1769.22,1689.79 1731.67,1732.19C1661.25,1671.41 1590.68,1593.9 1532.28,1521.4C1516.36,1501.63 1493.34,1471.55 1481.28,1449.37C1475.49,1438.5 1470.97,1427.02 1467.79,1415.12C1456.96,1376.06 1452.79,1332.09 1445.63,1292.01C1444.77,1287.2 1442.61,1266.48 1441.18,1263.37C1436.85,1258.26 1438.49,1244.49 1435.9,1237.56C1432.41,1241.71 1437.77,1259.42 1438.23,1266.37L1436.74,1267.79C1440.86,1310.97 1454.01,1388.3 1466.57,1429.4C1478.57,1468.67 1533.24,1532.21 1560.68,1564.67C1601.92,1613.02 1645.67,1659.19 1691.73,1702.98C1701.3,1712.04 1723.26,1733.29 1732.8,1740.08C1739.89,1732.19 1750.71,1718.4 1757.65,1711.86C1783.71,1761.72 1734.07,1800.67 1774.98,1838.67L1323.88,1838.69C1324.81,1813.48 1325.22,1788.24 1325.12,1763.01L1340.16,1763.73C1343.02,1758.87 1340.67,1764.51 1345.59,1760.44L1348.14,1729.09L1346.92,1728.47C1344.63,1734.24 1347.95,1753.37 1341.91,1757.93Z" style="fill:url(#_Linear1);"/>
                    </g>
                    <g transform="matrix(0.5,0,0,0.5,0,0)">
                        <path d="M1341.91,1757.93C1326.04,1758.29 1301.15,1756.16 1284.27,1755.25C1248.6,1753.37 1212.94,1751.3 1177.29,1749.02C1183.5,1672.19 1190.2,1595.39 1197.37,1518.64C1202.36,1463.18 1205.92,1406.06 1216.69,1351.43C1222.15,1323.77 1229.24,1296.05 1235.95,1268.63C1251.28,1205.87 1267.77,1143.4 1285.42,1081.25C1293.71,1051.86 1305.53,1013.5 1311.65,984.006C1316.07,981.293 1551.72,971.436 1584.37,970.897C1580.07,979.438 1549.06,1035.33 1549.87,1039.07L1552.35,1040.37C1554.96,1042.12 1562.02,1046.69 1564.18,1048.53L1564.95,1048.4C1565.9,1048.82 1568.54,1049.92 1569.28,1050.39C1569.02,1050.66 1568.75,1050.94 1568.48,1051.21C1559.39,1060.23 1503.9,1097.46 1504.53,1108.32C1504.61,1109.85 1504.7,1110.25 1505.85,1110.91C1509.75,1113.11 1517.55,1112.12 1521.59,1110.67C1522.93,1110.19 1524.2,1109.57 1525.49,1109L1529.03,1107.45L1529.94,1107.27C1533.77,1106.48 1533.93,1106.43 1537.19,1104.42L1538.48,1104.77L1538.56,1108.35C1528.24,1128.15 1514.35,1143.48 1503.24,1162.35C1494.54,1177.13 1503.26,1182.65 1516.85,1184.12C1517.16,1193.21 1512.6,1192.76 1518.08,1202.2C1530.91,1210.76 1533,1201.24 1540.48,1202.13C1542.9,1206.44 1544.57,1210.99 1549.47,1212.76C1562,1217.27 1564.81,1202.63 1574.02,1200.9C1575.87,1200.55 1583.06,1207.75 1587.46,1205.34C1599.6,1201.43 1611.05,1184.05 1617.67,1173.97L1627.97,1307.56C1629.5,1327.28 1630.81,1352.9 1634.47,1371.93C1635.81,1378.91 1653.96,1399.38 1659.66,1406.53C1695.39,1452.04 1733.44,1495.69 1773.65,1537.3C1796.05,1560.32 1818.96,1580.82 1841.14,1603.02C1804.72,1646.37 1769.22,1689.79 1731.67,1732.19C1661.25,1671.41 1590.68,1593.9 1532.28,1521.4C1516.36,1501.63 1493.34,1471.55 1481.28,1449.37C1475.49,1438.5 1470.97,1427.02 1467.79,1415.12C1456.96,1376.06 1452.79,1332.09 1445.63,1292.01C1444.77,1287.2 1442.61,1266.48 1441.18,1263.37C1436.9,1221.83 1429.27,1180.01 1424.61,1138.46C1423.92,1132.35 1423.06,1125.95 1422.13,1119.88C1417.23,1114.49 1398.1,1097 1391.07,1097.99C1391.44,1104.86 1408.16,1113.98 1413.39,1120.06C1411.88,1176.01 1410.2,1232.88 1409.27,1288.91C1409.09,1299.76 1402.36,1315.19 1400.09,1325.96C1392.92,1352.5 1383.83,1378.73 1378.25,1405.67C1372.56,1438.17 1369.33,1476.14 1366.25,1509.34L1355.05,1624.39C1353.16,1642.94 1349.42,1671.04 1348.83,1688.92C1345.8,1711.7 1344.67,1735.04 1341.91,1757.93Z" style="fill:rgb(119,228,225);"/>
                    </g>
                    <g transform="matrix(0.5,0,0,0.5,0,0)">
                        <path d="M1441.18,1263.37C1436.85,1258.26 1438.49,1244.49 1435.9,1237.56C1432.41,1241.71 1437.77,1259.42 1438.23,1266.37L1436.74,1267.79C1434.72,1260.38 1433.11,1245.72 1432.15,1237.8C1420.37,1275.9 1408.96,1314.12 1397.92,1352.45C1394.9,1363.18 1391.839,1373.84 1388.92,1384.71C1375.535,1434.559 1375.244,1487.732 1368.52,1538.8C1367.831,1544.03 1367.08,1552.01 1367.01,1557.14C1365.21,1572.6 1362.75,1611.24 1360.06,1624.17C1359.25,1622.27 1358.79,1620.23 1358.24,1618.22C1357.23,1620.42 1356.21,1622.28 1355.05,1624.39L1366.25,1509.34C1369.33,1476.14 1372.56,1438.17 1378.25,1405.67C1383.83,1378.73 1392.92,1352.5 1400.09,1325.96C1402.36,1315.19 1409.09,1299.76 1409.27,1288.91C1410.2,1232.88 1411.88,1176.01 1413.39,1120.06C1408.16,1113.98 1391.44,1104.86 1391.07,1097.99C1398.1,1097 1417.23,1114.49 1422.13,1119.88C1423.06,1125.95 1423.92,1132.35 1424.61,1138.46C1429.27,1180.01 1436.9,1221.83 1441.18,1263.37Z" style="fill:url(#_Linear2);"/>
                    </g>
                    <g transform="matrix(0.5,0,0,0.5,0,0)">
                        <path d="M1564.95,1048.4C1565.9,1048.82 1568.54,1049.92 1569.28,1050.39C1569.02,1050.66 1568.75,1050.94 1568.48,1051.21C1559.39,1060.23 1503.9,1097.46 1504.53,1108.32C1504.61,1109.85 1504.7,1110.25 1505.85,1110.91C1509.75,1113.11 1517.55,1112.12 1521.59,1110.67C1522.93,1110.19 1524.2,1109.57 1525.49,1109L1529.03,1107.45L1529.94,1107.27C1533.77,1106.48 1533.93,1106.43 1537.19,1104.42L1538.48,1104.77L1538.56,1108.35C1526.76,1112.34 1513.97,1125.01 1501.3,1113.02C1495.85,1107.86 1500.47,1099.54 1504.81,1095.63C1523.53,1078.74 1544.44,1064.2 1564.18,1048.53L1564.95,1048.4Z" style="fill:rgb(35,41,78);fill-rule:nonzero;"/>
                    </g>
                    <g transform="matrix(0.5,0,0,0.5,0,0)">
                        <path d="M535.859,1158.88C536.519,1163.65 535.447,1163.46 539.646,1166.03C600.542,1196.09 656.36,1205.64 723.865,1196.15C729.751,1197.44 733.137,1195.92 737.412,1198.97C737.639,1198.99 737.865,1199.01 738.092,1199.03C740.868,1208.54 741.138,1225.01 738.584,1234.71L738.264,1235.86C745.644,1256.82 758.029,1321.24 758.116,1344.07L754.656,1342.91C754.003,1345.72 754.039,1346.42 753.828,1349.24C754.622,1394.45 751.783,1425.03 735.964,1468.42C733.226,1475.93 720.663,1501.07 719.55,1504.97C712.184,1517.14 673.914,1578.37 663.241,1582.02C664.478,1587.66 664.206,1583.75 666.341,1586.82C662.055,1593.12 663.786,1616.64 663.93,1625.82C670.834,1625.75 671.646,1625.57 677.55,1621.83C680.531,1638.93 711.098,1802.08 710.232,1806.44L706.625,1810.38C718.988,1830.76 705.146,1847.36 699.445,1836.07C698.192,1833.87 698.357,1832.57 697.004,1829.85L694.967,1834.72C694.365,1837.11 694.864,1835.99 692.937,1837.83C687.568,1838.9 681.182,1838.34 675.604,1838.16C674.617,1827.96 673.092,1818.08 664.402,1811.68C661.262,1811.08 662.645,1810.78 660.08,1812.43C659.95,1819.49 669.034,1817.95 669.512,1838.25C648.06,1838.67 630.642,1844.48 621.3,1821.39C614.667,1778.15 602.991,1725.82 594.355,1682.13L589.81,1685.98L588.704,1681.28L587.195,1680.52C582.427,1682.2 576.581,1688.93 572.061,1692.78C553.811,1711.91 535.165,1729.92 516.368,1748.4C505.455,1759.13 495.446,1775.79 483.917,1787.94C509.059,1788.35 562.716,1785.59 579.712,1802.57C570.783,1799.92 563.686,1791.89 553.533,1793.68L553.899,1795.01C560.868,1795.5 567.052,1798.16 572.762,1802.14L573.509,1803.69C584.404,1815.98 587.284,1821.64 586.871,1838.09L571.205,1838.24C571.14,1826.34 569.827,1812.25 556.548,1808.22L554.72,1808.56L554.113,1810.31C564.002,1821.85 565.383,1821.82 566.152,1838.09L545.369,1838.02C544.185,1826.11 541.743,1810.95 527.288,1808.94L526.182,1809.83C528.054,1815.63 533.544,1815.53 537.962,1824.1C542.241,1826.27 541.723,1834.58 540.317,1838.64C534.857,1842.6 361.701,1838.63 342.474,1839.8C339.904,1839.96 323.687,1837.57 320.077,1837L320.901,1837.65C319.39,1838.03 318.846,1838.26 317.296,1838.37C299.217,1829.63 286.916,1815.69 276.02,1799.1C275.496,1796.24 275.364,1797.3 276.042,1794.65L280.13,1794.66C260.296,1763.33 259.994,1738.08 254.343,1705.2C252.8,1705.59 251.289,1705.35 249.574,1705.29C234.946,1552.07 354.659,1420.53 443.91,1309.93C471.805,1275.36 501.448,1239.97 522.99,1201.04C519.772,1195.72 526.727,1170.29 530.102,1164.63C531.773,1163.91 533.094,1163.3 534.717,1162.49L535.859,1158.88Z" style="fill:rgb(251,200,2);fill-rule:nonzero;"/>
                    </g>
                    <g transform="matrix(0.5,0,0,0.5,0,0)">
                        <path d="M522.99,1201.04C525.669,1201.85 526.661,1201.78 528.308,1203.96C525.633,1208.32 521.986,1213.9 519.764,1218.37C540.46,1233.99 554.226,1247.13 558.525,1273.99C564.291,1310.02 532.875,1328.33 524.96,1355.4C517.489,1380.96 531.067,1411.52 509.84,1437.83C481.56,1472.87 435.87,1460.67 404.631,1476.65C373.917,1492.37 386.682,1550.71 342.55,1571.68C331.887,1576.75 325.697,1580.33 312.201,1581.63C298.925,1583 285.549,1580.25 273.88,1573.78C258.287,1621.65 252.058,1654.09 254.343,1705.2C252.8,1705.59 251.289,1705.35 249.574,1705.29C234.946,1552.07 354.659,1420.53 443.91,1309.93C471.805,1275.36 501.448,1239.97 522.99,1201.04Z" style="fill:rgb(253,136,125);fill-rule:nonzero;"/>
                    </g>
                    <g transform="matrix(0.5,0,0,0.5,0,0)">
                        <path d="M522.99,1201.04C525.669,1201.85 526.661,1201.78 528.308,1203.96C525.633,1208.32 521.986,1213.9 519.764,1218.37C499.248,1246.61 479.271,1274.67 457.444,1301.98C393.876,1381.5 307.515,1477.51 273.88,1573.78C258.287,1621.65 252.058,1654.09 254.343,1705.2C252.8,1705.59 251.289,1705.35 249.574,1705.29C234.946,1552.07 354.659,1420.53 443.91,1309.93C471.805,1275.36 501.448,1239.97 522.99,1201.04Z" style="fill:url(#_Linear3);fill-rule:nonzero;"/>
                    </g>
                    <g transform="matrix(0.5,0,0,0.5,0,0)">
                        <path d="M535.859,1158.88C536.519,1163.65 535.447,1163.46 539.646,1166.03C600.542,1196.09 656.36,1205.64 723.865,1196.15C729.751,1197.44 733.137,1195.92 737.412,1198.97C737.639,1198.99 737.865,1199.01 738.092,1199.03C740.868,1208.54 741.138,1225.01 738.584,1234.71L738.264,1235.86C735.137,1234.31 734.786,1234.58 731.35,1234.63C716.53,1239.4 700.396,1238.36 689.974,1241.92C688.366,1241.19 688.071,1241.5 686.027,1241.53C682.078,1240.56 655.705,1240.41 647.213,1239.53C605.678,1235.34 565.322,1223.27 528.308,1203.96C526.661,1201.78 525.669,1201.85 522.99,1201.04C519.772,1195.72 526.727,1170.29 530.102,1164.63C531.773,1163.91 533.094,1163.3 534.717,1162.49L535.859,1158.88Z" style="fill:rgb(64,35,127);fill-rule:nonzero;"/>
                    </g>
                    <g transform="matrix(0.5,0,0,0.5,0,0)">
                        <path d="M663.93,1625.82C670.834,1625.75 671.646,1625.57 677.55,1621.83C680.531,1638.93 711.098,1802.08 710.232,1806.44C700.361,1796.38 690.032,1793.03 677.22,1788.11C676.109,1785.14 675.349,1776.61 674.359,1772.35L672.164,1773.05L669.242,1770.39L668.203,1762.04C665.822,1747.73 661.808,1709.57 662.154,1695.44L663.729,1686.81L665.334,1691.22L666.415,1689.25L663.93,1625.82Z" style="fill:rgb(249,249,249);fill-rule:nonzero;"/>
                    </g>
                    <g transform="matrix(0.5,0,0,0.5,0,0)">
                        <path d="M662.154,1695.44L663.729,1686.81L665.334,1691.22L666.415,1689.25C668.907,1711.41 669.5,1732.94 672.515,1755.96C671.149,1758.02 669.843,1760.24 668.203,1762.04C665.822,1747.73 661.808,1709.57 662.154,1695.44Z" style="fill:url(#_Linear4);fill-rule:nonzero;"/>
                    </g>
                    <g transform="matrix(0.5,0,0,0.5,0,0)">
                        <path d="M672.515,1755.96C673.179,1761.22 674.077,1767.1 674.359,1772.35L672.164,1773.05L669.242,1770.39L668.203,1762.04C669.843,1760.24 671.149,1758.02 672.515,1755.96Z" style="fill:rgb(54,34,42);fill-rule:nonzero;"/>
                    </g>
                    <g transform="matrix(0.5,0,0,0.5,0,0)">
                        <path d="M570.466,1685.98C565.433,1634.92 564.814,1582.78 557.832,1531.81C557.062,1526.19 553.418,1506.01 555.939,1501.71C560.542,1506.09 569.186,1556.81 571.162,1566.58L594.355,1682.13L589.81,1685.98L588.704,1681.28L587.195,1680.52C582.427,1682.2 576.581,1688.93 572.061,1692.78C571.48,1690.49 570.984,1688.28 570.466,1685.98Z" style="fill:rgb(55,34,81);fill-rule:nonzero;"/>
                    </g>
                    <g transform="matrix(0.5,0,0,0.5,0,0)">
                        <path d="M686.027,1241.53C688.071,1241.5 688.366,1241.19 689.974,1241.92C695.547,1246.23 702.522,1246.12 707.542,1252.6C716.869,1264.65 715.357,1279.84 703.274,1289.38C698.123,1293.48 691.481,1295.22 684.984,1294.16C678.008,1292.99 671.821,1289 667.876,1283.13C664.004,1277.53 662.677,1270.56 664.224,1263.93C667.224,1251.13 675.977,1247.77 686.027,1241.53Z" style="fill:url(#_Linear5);fill-rule:nonzero;"/>
                    </g>
                    <g transform="matrix(0.5,0,0,0.5,0,0)">
                        <path d="M681.855,1250.75C688.526,1248.29 696.006,1249.64 701.393,1254.28C706.78,1258.92 709.227,1266.11 707.785,1273.08C706.342,1280.04 701.238,1285.67 694.451,1287.79C688.576,1289.62 682.182,1288.58 677.188,1284.99C672.195,1281.39 669.184,1275.65 669.059,1269.5C668.89,1261.16 674.028,1253.63 681.855,1250.75Z" style="fill:rgb(249,249,249);fill-rule:nonzero;"/>
                    </g>
                    <g transform="matrix(0.5,0,0,0.5,0,0)">
                        <path d="M522.172,1726.94C538.595,1691.82 546.627,1662.58 532.968,1624.03C525.01,1601.57 508.741,1584.31 486.871,1574.55C463.049,1563.84 435.924,1563.14 411.584,1572.62C404.054,1575.57 395.335,1582.99 388.405,1582.64C388.874,1580.2 392.407,1577.22 394.456,1576.06C476.017,1529.92 561.76,1595.99 542.27,1686.89C538.658,1703.74 533.614,1712.72 528.429,1727.58C527.211,1728.78 527.569,1728.29 525.532,1728.86L522.172,1726.94Z" style="fill:rgb(56,27,50);fill-rule:nonzero;"/>
                    </g>
                    <g transform="matrix(0.5,0,0,0.5,0,0)">
                        <path d="M570.466,1685.98C570.984,1688.28 571.48,1690.49 572.061,1692.78C553.811,1711.91 535.165,1729.92 516.368,1748.4C505.455,1759.13 495.446,1775.79 483.917,1787.94C509.059,1788.35 562.716,1785.59 579.712,1802.57C570.783,1799.92 563.686,1791.89 553.533,1793.68L553.899,1795.01C560.868,1795.5 567.052,1798.16 572.762,1802.14L573.509,1803.69C537.853,1787.65 512.865,1796.75 475.368,1792.83L473.688,1792.65C477.301,1786.55 488.14,1774.73 493.283,1768.6C504.265,1755.7 513.942,1741.74 522.172,1726.94L525.532,1728.86C527.569,1728.29 527.211,1728.78 528.429,1727.58C533.789,1726.09 565.318,1692.12 570.466,1685.98Z" style="fill:rgb(56,27,50);fill-rule:nonzero;"/>
                    </g>
                    <g transform="matrix(0.5,0,0,0.5,0,0)">
                        <path d="M280.13,1794.66C299.263,1822.43 313.96,1839.22 349.658,1838.39C367.062,1837.99 385.566,1838.29 403.069,1838.24L539.72,1838.18C539.247,1833.58 538.878,1828.59 537.962,1824.1C542.241,1826.27 541.723,1834.58 540.317,1838.64C534.857,1842.6 361.701,1838.63 342.474,1839.8C339.904,1839.96 323.687,1837.57 320.077,1837L320.901,1837.65C319.39,1838.03 318.846,1838.26 317.296,1838.37C299.217,1829.63 286.916,1815.69 276.02,1799.1C275.496,1796.24 275.364,1797.3 276.042,1794.65L280.13,1794.66Z" style="fill:rgb(56,27,50);fill-rule:nonzero;"/>
                    </g>
                    <g transform="matrix(0.5,0,0,0.5,0,0)">
                        <path d="M659.186,1535.88C667.572,1546.65 661.007,1558.76 663.14,1574.19C663.288,1576.98 663.477,1579.21 663.241,1582.02C664.478,1587.66 664.206,1583.75 666.341,1586.82C662.055,1593.12 663.786,1616.64 663.93,1625.82L666.415,1689.25L665.334,1691.22L663.729,1686.81L662.154,1695.44C660.546,1681 660.248,1662.08 659.735,1647.29C658.557,1610.17 658.374,1573.02 659.186,1535.88Z" style="fill:rgb(56,27,50);fill-rule:nonzero;"/>
                    </g>
                    <g transform="matrix(0.5,0,0,0.5,0,0)">
                        <path d="M731.35,1234.63C734.786,1234.58 735.137,1234.31 738.264,1235.86C745.644,1256.82 758.029,1321.24 758.116,1344.07L754.656,1342.91C754.003,1345.72 754.039,1346.42 753.828,1349.24C752.503,1340.32 752.2,1329.28 750.806,1320.02C747.151,1295.73 740.472,1256.68 731.35,1234.63Z" style="fill:url(#_Linear6);fill-rule:nonzero;"/>
                    </g>
                    <g transform="matrix(0.5,0,0,0.5,0,0)">
                        <path d="M659.186,1535.88C659.594,1520.03 660.844,1463.57 666.93,1452.21L668.175,1452.03C669,1454.73 669.38,1458.39 668.973,1461.16C663.478,1498.57 665.898,1536.95 663.14,1574.19C661.007,1558.76 667.572,1546.65 659.186,1535.88Z" style="fill:rgb(54,34,42);fill-rule:nonzero;"/>
                    </g>
                    <g transform="matrix(0.5,0,0,0.5,0,0)">
                        <path d="M677.22,1788.11C690.032,1793.03 700.361,1796.38 710.232,1806.44L706.625,1810.38C699.078,1802.78 688.988,1797.8 678.971,1794.28L677.691,1793.1L677.22,1788.11Z" style="fill:rgb(54,34,42);fill-rule:nonzero;"/>
                    </g>
                    <g transform="matrix(0.5,0,0,0.5,0,0)">
                        <path d="M685.664,1809C697.618,1811.96 700.574,1825.23 699.445,1836.07C698.192,1833.87 698.357,1832.57 697.004,1829.85L694.967,1834.72C693.865,1827.32 692.46,1822.71 688.31,1816.3C686.312,1813.22 685.229,1812.53 685.664,1809Z" style="fill:rgb(54,34,42);fill-rule:nonzero;"/>
                    </g>
                    <g transform="matrix(0.5,0,0,0.5,0,0)">
                        <path d="M669.242,1770.39L672.164,1773.05L674.359,1772.35C675.349,1776.61 676.109,1785.14 677.22,1788.11L677.691,1793.1C668.717,1790.1 670.138,1778.97 669.242,1770.39Z" style="fill:rgb(56,27,50);fill-rule:nonzero;"/>
                    </g>
                    <g transform="matrix(0.5,0,0,0.5,0,0)">
                        <path d="M1340.16,1763.73C1343.02,1758.87 1340.67,1764.51 1345.59,1760.44L1348.14,1729.09L1346.92,1728.47C1344.63,1734.24 1347.95,1753.37 1341.91,1757.93C1344.67,1735.04 1345.8,1711.7 1348.83,1688.92C1349.42,1671.04 1353.16,1642.94 1355.05,1624.39C1356.21,1622.28 1357.23,1620.42 1358.24,1618.22C1358.79,1620.23 1359.25,1622.27 1360.06,1624.17C1359.27,1645.67 1355.25,1678 1352.77,1700.02C1351.92,1713.81 1349.07,1750.03 1346.63,1762.57C1344.12,1764.52 1344.22,1763.81 1340.16,1763.73Z" style="fill:rgb(35,41,78);"/>
                    </g>
                    <g transform="matrix(0.5,0,0,0.5,0,0)">
                        <path d="M1474.65,1638.43C1487.42,1637.49 1498.56,1647.02 1499.62,1659.77C1500.68,1672.53 1491.26,1683.76 1478.52,1684.94C1465.59,1686.14 1454.17,1676.57 1453.1,1663.64C1452.02,1650.7 1461.71,1639.37 1474.65,1638.43ZM1471.29,1644.6C1480.72,1641.78 1490.65,1647.15 1493.46,1656.59C1496.27,1666.03 1490.88,1675.95 1481.44,1678.75C1472.02,1681.54 1462.11,1676.17 1459.31,1666.75C1456.5,1657.32 1461.86,1647.41 1471.29,1644.6Z" style="fill:rgb(55,34,81);"/>
                    </g>
                    <g transform="matrix(0.5,0,0,0.5,0,0)">
                        <path d="M1471.29,1644.6C1480.72,1641.78 1490.65,1647.15 1493.46,1656.59C1496.27,1666.03 1490.88,1675.95 1481.44,1678.75C1472.02,1681.54 1462.11,1676.17 1459.31,1666.75C1456.5,1657.32 1461.86,1647.41 1471.29,1644.6Z" style="fill:rgb(249,249,249);"/>
                    </g>
                    <g transform="matrix(0.5,0,0,0.5,0,0)">
                        <path d="M1818.06,1083.73C1822.92,1080.57 1827.76,1077.38 1832.58,1074.16C1860.06,1090.13 1890.64,1109.83 1917.45,1127.21C1918.53,1160.34 1918.25,1200.22 1917.64,1233.51C1895.67,1245.82 1866.27,1265.09 1845,1279.26L1809.63,1301.51C1797.82,1294.54 1784.37,1285.2 1772.4,1277.72C1756.86,1268.01 1738.76,1257.49 1723.93,1247.09L1724,1142.32C1755.49,1123.01 1786.84,1103.47 1818.06,1083.73ZM1910.74,1135.82L1911.82,1136.12C1913.7,1138.59 1912.8,1219.11 1912.76,1229.48C1907.33,1233.4 1900.28,1237.88 1894.53,1241.31C1867.25,1257.59 1840.78,1276.27 1813.59,1292.5L1812.79,1292.5C1811.45,1290.28 1812,1207.57 1812,1197.75C1839.94,1178.53 1881.33,1153.58 1910.74,1135.82ZM1729.15,1149.23C1734.12,1151.38 1749.96,1161.62 1755.28,1164.95C1772.53,1175.66 1789.68,1186.54 1806.71,1197.59L1806.84,1292.77C1800.8,1290.21 1781.55,1277.32 1774.68,1272.92C1759.56,1263.29 1744.32,1253.84 1728.98,1244.56L1729.15,1149.23Z" style="fill:rgb(55,34,81);"/>
                    </g>
                    <g transform="matrix(0.5,0,0,0.5,0,0)">
                        <path d="M1832.85,1080.86C1859.28,1095.57 1884.93,1114.3 1911.49,1129C1901.53,1134.32 1887.99,1143.3 1878.3,1149.41C1855.58,1164.02 1832.72,1178.42 1809.75,1192.63C1807.36,1192.23 1739,1148.46 1731.76,1143.81C1762.71,1126.65 1802.09,1100.11 1832.85,1080.86Z" style="fill:rgb(254,203,198);fill-rule:nonzero;"/>
                    </g>
                    <g transform="matrix(0.5,0,0,0.5,0,0)">
                        <path d="M1910.74,1135.82L1911.82,1136.12C1913.7,1138.59 1912.8,1219.11 1912.76,1229.48C1907.33,1233.4 1900.28,1237.88 1894.53,1241.31C1867.25,1257.59 1840.78,1276.27 1813.59,1292.5L1812.79,1292.5C1811.45,1290.28 1812,1207.57 1812,1197.75C1839.94,1178.53 1881.33,1153.58 1910.74,1135.82Z" style="fill:rgb(253,129,117);"/>
                    </g>
                    <g transform="matrix(0.5,0,0,0.5,0,0)">
                        <path d="M1729.15,1149.23C1734.12,1151.38 1749.96,1161.62 1755.28,1164.95C1772.53,1175.66 1789.68,1186.54 1806.71,1197.59L1806.84,1292.77C1800.8,1290.21 1781.55,1277.32 1774.68,1272.92C1759.56,1263.29 1744.32,1253.84 1728.98,1244.56L1729.15,1149.23Z" style="fill:rgb(255,240,239);"/>
                    </g>
                    <g transform="matrix(0.5,0,0,0.5,0,0)">
                        <path d="M1569.28,1050.39C1574.19,1053.75 1577.51,1055.91 1582.75,1058.84C1591.39,1064.63 1612.8,1078.16 1621.98,1082.62C1628.47,1088.02 1640.42,1094.02 1648.13,1099.63L1643.61,1112.93C1637.2,1128.55 1602.01,1206.38 1580.77,1199.05C1577.37,1188.05 1600.85,1164.94 1602.39,1152L1601.62,1150.64L1599.51,1150.65C1592.43,1159.18 1563.28,1218.29 1548.4,1204.71C1547.06,1201.29 1546.42,1198.84 1548.21,1195.33C1553.5,1184.9 1581.53,1149.78 1582.66,1140L1581.22,1138.49L1579.27,1138.58C1574.86,1144.34 1572.16,1150.7 1568.07,1156.77C1561.19,1167 1553.71,1176.84 1546.32,1186.7L1547.29,1188.4C1537.33,1200.47 1533.81,1207.23 1518.78,1197.78C1517.46,1200.32 1517.96,1198.99 1518.08,1202.2C1512.6,1192.76 1517.16,1193.21 1516.85,1184.12C1503.26,1182.65 1494.54,1177.13 1503.24,1162.35C1514.35,1143.48 1528.24,1128.15 1538.56,1108.35L1538.48,1104.77L1537.19,1104.42C1533.93,1106.43 1533.77,1106.48 1529.94,1107.27L1529.03,1107.45L1525.49,1109C1524.2,1109.57 1522.93,1110.19 1521.59,1110.67C1517.55,1112.12 1509.75,1113.11 1505.85,1110.91C1504.7,1110.25 1504.61,1109.85 1504.53,1108.32C1503.9,1097.46 1559.39,1060.23 1568.48,1051.21C1568.75,1050.94 1569.02,1050.66 1569.28,1050.39Z" style="fill:rgb(248,176,173);fill-rule:nonzero;"/>
                    </g>
                    <g transform="matrix(0.5,0,0,0.5,0,0)">
                        <path d="M1529.03,1107.45C1534.9,1103.37 1544.03,1097.42 1550.32,1093.76C1541.3,1121.17 1524.05,1140.4 1508.49,1163.68C1506.27,1166.99 1505.13,1171.28 1505.77,1175.29C1519.79,1192.52 1552.21,1132.2 1560.04,1125.09L1561.95,1125.32C1562.83,1126.79 1563.17,1126.67 1562.74,1128.47C1559.63,1141.46 1516,1185.34 1522.39,1197.76C1522.99,1198.93 1524.22,1199.73 1525.49,1200.06C1529.62,1201.12 1534.23,1198.98 1537.31,1196.34C1540.61,1193.52 1543.41,1189.92 1546.32,1186.7L1547.29,1188.4C1537.33,1200.47 1533.81,1207.23 1518.78,1197.78C1517.46,1200.32 1517.96,1198.99 1518.08,1202.2C1512.6,1192.76 1517.16,1193.21 1516.85,1184.12C1503.26,1182.65 1494.54,1177.13 1503.24,1162.35C1514.35,1143.48 1528.24,1128.15 1538.56,1108.35L1538.48,1104.77L1537.19,1104.42C1533.93,1106.43 1533.77,1106.48 1529.94,1107.27L1529.03,1107.45Z" style="fill:rgb(55,34,81);fill-rule:nonzero;"/>
                    </g>
                    <g transform="matrix(0.5,0,0,0.5,0,0)">
                        <path d="M572.061,1692.78C576.581,1688.93 582.427,1682.2 587.195,1680.52L588.704,1681.28L589.81,1685.98L596.873,1722.11C590.289,1732.4 584.632,1741.42 577.116,1751.08C569.308,1761.11 557.88,1772.45 551.077,1782.72C572.914,1783.63 588.889,1785.1 610.539,1789.49C612.006,1798.21 615.561,1820.76 618.434,1828.33C619.672,1832.65 621.531,1834.83 624.041,1838.5C612.927,1838.82 603.074,1838.72 591.982,1838.47C592.077,1836.25 592.093,1834.01 592.032,1831.78C591.699,1820.26 588.36,1810.55 579.712,1802.57C562.716,1785.59 509.059,1788.35 483.917,1787.94C495.446,1775.79 505.455,1759.13 516.368,1748.4C535.165,1729.92 553.811,1711.91 572.061,1692.78Z" style="fill:rgb(253,106,93);fill-rule:nonzero;"/>
                    </g>
                    <g transform="matrix(0.5,0,0,0.5,0,0)">
                        <path d="M1259.27,1013.71L1259.83,1009.94L1259.2,1009.45C1258.73,1006.18 1264.71,976.394 1265.6,971.294C1277.59,899.148 1285.32,826.359 1288.75,753.305C1288.98,748.67 1288.74,741.435 1292,738.49C1294.18,742.158 1291.94,778.977 1292.19,788.395C1293.14,844.79 1298.45,901.026 1308.05,956.605C1307.49,957.326 1304.69,961.03 1304.24,961.426C1291.53,977.513 1274.93,1000.69 1259.27,1013.71Z" style="fill:rgb(55,34,81);fill-rule:nonzero;"/>
                    </g>
                    <g transform="matrix(0.5,0,0,0.5,0,0)">
                        <path d="M589.81,1685.98L594.355,1682.13C602.991,1725.82 614.667,1778.15 621.3,1821.39C620.573,1820.54 619.845,1819.69 619.118,1818.84C611.953,1783.53 605.83,1748.03 598.528,1712.76C597.435,1707.48 596.414,1702.16 594.884,1696.99C594.213,1694.72 594.389,1692.33 594.214,1689.99C594.11,1687.94 594.186,1688.66 593.546,1686.6C588.376,1693.94 621.597,1812.7 618.434,1828.33C615.561,1820.76 612.006,1798.21 610.539,1789.49C588.889,1785.1 572.914,1783.63 551.077,1782.72C557.88,1772.45 569.308,1761.11 577.116,1751.08C584.632,1741.42 590.289,1732.4 596.873,1722.11L589.81,1685.98Z" style="fill:rgb(56,27,50);fill-rule:nonzero;"/>
                    </g>
                    <g transform="matrix(0.5,0,0,0.5,0,0)">
                        <path d="M597.612,1729.71C600.058,1732.67 607.687,1776.18 609.11,1783.69C598.626,1781.52 591.647,1780.49 581.098,1779.26C574.645,1778.68 568.185,1778.2 561.719,1777.79C577.68,1760 585.236,1750.71 597.612,1729.71Z" style="fill:rgb(249,249,249);fill-rule:nonzero;"/>
                    </g>
                    <g transform="matrix(0.5,0,0,0.5,0,0)">
                        <path d="M753.828,1349.24C754.039,1346.42 754.003,1345.72 754.656,1342.91L758.116,1344.07C760.444,1369.43 759.22,1395 754.479,1420.03C751.395,1436.4 746.889,1449.64 747.064,1466.33L745.651,1465.01C744.529,1447.06 757.248,1410.89 754.18,1403.26C751.389,1408.11 752.705,1410.8 752.034,1415.33C747.871,1443.39 734.774,1480.19 721.868,1503.7C720.884,1504.35 720.604,1504.72 719.55,1504.97C720.663,1501.07 733.226,1475.93 735.964,1468.42C751.783,1425.03 754.622,1394.45 753.828,1349.24Z" style="fill:rgb(56,27,50);fill-rule:nonzero;"/>
                    </g>
                    <g transform="matrix(0.5,0,0,0.5,0,0)">
                        <path d="M1459.42,570.07L1463.07,571.084L1466.14,572.558C1465.65,574.109 1456.77,586.3 1455.08,588.746C1441.5,608.344 1412.93,617.739 1396.28,596.25C1390.79,589.385 1390.84,585.849 1382.02,584.193C1387.33,582.697 1388.83,583.069 1390.99,577.872L1392.15,578.992C1392.78,581.91 1392.72,582.463 1394.82,584.584L1397.13,582.726L1397.97,583.288C1392.56,594.801 1408,602.574 1417.4,603.608C1426.9,604.569 1436.39,601.707 1443.77,595.656C1450.12,590.502 1454.23,582.661 1455.17,574.563C1459.01,572.839 1457.55,574.192 1459.42,570.07Z" style="fill:rgb(64,35,127);fill-rule:nonzero;"/>
                    </g>
                    <g transform="matrix(0.5,0,0,0.5,0,0)">
                        <path d="M1308.05,956.605C1308.44,966.128 1308.14,975.124 1311.65,984.006C1305.53,1013.5 1293.71,1051.86 1285.42,1081.25C1284.54,1075.48 1306.44,997.692 1309.81,985.026L1309.13,984.216C1305.38,992.451 1301.82,1008.4 1299.37,1017.86C1293.52,1040.5 1285.61,1063.81 1280.07,1086.38L1278.57,1086.09C1286.12,1050.93 1301.3,1014.28 1306.5,978.557C1307.01,975.013 1304.96,965.342 1304.24,961.426C1304.69,961.03 1307.49,957.326 1308.05,956.605Z" style="fill:rgb(64,35,127);fill-rule:nonzero;"/>
                    </g>
                    <g transform="matrix(0.5,0,0,0.5,0,0)">
                        <path d="M666.341,1586.82L669.682,1584.36L670.839,1584.88C672.768,1591.04 677.318,1615.49 677.55,1621.83C671.646,1625.57 670.834,1625.75 663.93,1625.82C663.786,1616.64 662.055,1593.12 666.341,1586.82Z" style="fill:rgb(234,233,231);fill-rule:nonzero;"/>
                    </g>
                    <g transform="matrix(0.5,0,0,0.5,0,0)">
                        <path d="M1738.42,1000.09C1738.75,993.26 1758.91,951.055 1763.1,939.158C1773.09,910.83 1771.39,895.428 1775.93,867.966L1776.15,869.965C1777.98,861.352 1776.33,854.543 1779.81,849.443C1779.7,875.43 1773.83,917.637 1763.78,942.576C1758.56,956.501 1746.17,987.835 1738.42,1000.09Z" style="fill:rgb(64,35,127);fill-rule:nonzero;"/>
                    </g>
                    <g transform="matrix(0.5,0,0,0.5,0,0)">
                        <path d="M1621.98,1082.62C1626.3,1082.28 1648.06,1092.65 1652.44,1095.48L1652.95,1096.85C1650.78,1096.3 1649.5,1095.94 1647.4,1095.18C1648.18,1097.55 1648.1,1097.27 1649.27,1099.45C1649.24,1104.27 1648.04,1108.79 1644.98,1112.63L1643.61,1112.93L1648.13,1099.63C1640.42,1094.02 1628.47,1088.02 1621.98,1082.62Z" style="fill:rgb(64,35,127);fill-rule:nonzero;"/>
                    </g>
                    <g transform="matrix(0.5,0,0,0.5,0,0)">
                        <path d="M1569.61,1044.58C1575.59,1047.53 1579.44,1049.34 1583.25,1054.78C1583.51,1057.36 1583.67,1056.43 1582.75,1058.84C1577.51,1055.91 1574.19,1053.75 1569.28,1050.39C1568.54,1049.92 1565.9,1048.82 1564.95,1048.4L1565.73,1046.2L1569.61,1044.58Z" style="fill:rgb(64,35,127);fill-rule:nonzero;"/>
                    </g>
                    <g transform="matrix(0.5,0,0,0.5,0,0)">
                        <path d="M1552.35,1040.37C1562.07,1039.83 1561.76,1038.46 1569.61,1044.58L1565.73,1046.2L1564.95,1048.4L1564.18,1048.53C1562.02,1046.69 1554.96,1042.12 1552.35,1040.37Z" style="fill:rgb(64,35,127);fill-rule:nonzero;"/>
                    </g>
                    <g transform="matrix(0.5,0,0,0.5,0,0)">
                        <path d="M742.509,1469.75C742.711,1479.75 743.177,1489.78 743.728,1499.77C749.064,1596.52 753.999,1693.83 768.194,1789.71C781.647,1798.18 799.998,1798.74 806.811,1816.22C809.566,1823.3 812.139,1836.24 802.897,1839.79C795.123,1835.73 793.807,1802.34 781.672,1809.58L781.886,1811.89C791.425,1822.33 791.096,1824.77 792.274,1838.49C785.645,1838.75 779.013,1838.46 772.379,1838.28C771.876,1831.07 770.905,1826.41 768.344,1819.74C764.908,1814.27 762.078,1810.49 755.397,1810.26C754.416,1812.12 755.016,1812.6 757.058,1815.04C765.963,1825.64 765.087,1824.96 767.061,1838.09C755.247,1838.53 743.647,1839.13 731.902,1837.73C729.02,1835.45 722.481,1830.4 721.584,1827.25C716.761,1810.31 713.196,1788.75 709.921,1771.38L682.346,1619.62C696.352,1586.99 709.776,1554.1 722.61,1520.99C727.397,1508.6 736.564,1479.38 742.509,1469.75Z" style="fill:rgb(253,106,93);fill-rule:nonzero;"/>
                    </g>
                    <g transform="matrix(0.5,0,0,0.5,0,0)">
                        <path d="M1608.1,832.741C1613.58,837.096 1622.26,856.517 1625.56,863.606C1622.01,877.289 1618.01,890.847 1613.55,904.26L1607.98,921.088C1607.85,891.04 1610.46,863.437 1608.1,832.741Z" style="fill:rgb(234,233,231);fill-rule:nonzero;"/>
                    </g>
                    <g transform="matrix(0.5,0,0,0.5,0,0)">
                        <path d="M256.891,660.345L248.134,654.011L248.038,316.67C314.037,294.005 381.992,273.818 448.345,251.324C489.509,277.514 537.158,307.577 577.244,334.968L577.293,575.421C577.303,611.635 576.643,649.85 577.387,685.908C571.53,688.006 565.781,690.097 559.843,691.963L556.611,687.092L568.139,683.086C529.061,651.702 487.683,622.694 449.166,591.566L452.941,587.721C491.578,618.639 532.864,647.767 572.022,678.936L571.868,349.514C572.034,346.741 572.612,344.305 571.166,342.124C561.233,342.108 468.443,374.897 451.112,380.071C451.076,425.284 450.237,473.483 451.196,518.457C450.907,538.386 450.269,566.699 451.214,586.273L445.693,585.047L445.793,381.648C428.807,387.241 395.332,397.205 379.997,403.773C379.993,423.463 379.252,604.766 380.792,607.561L382.248,607.985L381.978,609.259C379.273,609.956 374.69,611.882 373.063,610.94C375.773,605.769 374.604,543.805 374.566,531.895C374.43,489.173 374.798,445.7 374.263,402.97C335.671,376.315 293.066,349.349 253.64,323.656L253.466,546.96L253.406,613.76C253.403,621.174 253.017,642.24 253.931,649.101L257.806,652.609L258.392,654.85L255.947,656.502L256.409,658.046C256.933,659.841 256.858,659.128 256.891,660.345ZM442.84,259.072L445.057,259.057C446.696,262.072 445.78,364.21 445.746,376.042C423.888,382.473 399.404,391.105 377.518,398.253C354.861,382.874 330.971,367.642 308.028,352.5C291.133,341.992 274.533,330.127 257.39,319.509L442.84,259.072ZM451.171,259.736C490.3,284.534 529.332,310.533 568.356,335.673L538.038,345.929L451.187,374.231L451.171,259.736Z" style="fill:rgb(55,34,81);"/>
                    </g>
                    <g transform="matrix(0.5,0,0,0.5,0,0)">
                        <path d="M253.931,649.101C253.017,642.24 253.403,621.174 253.406,613.76L253.466,546.96L253.64,323.656C293.066,349.349 335.671,376.315 374.263,402.97C374.798,445.7 374.43,489.173 374.566,531.895C374.604,543.805 375.773,605.769 373.063,610.94C365.157,612.015 343.365,619.682 334.422,622.589L253.931,649.101Z" style="fill:rgb(249,249,249);fill-opacity:0.48;"/>
                    </g>
                    <g transform="matrix(0.5,0,0,0.5,0,0)">
                        <path d="M449.166,591.566C487.683,622.694 529.061,651.702 568.139,683.086L556.611,687.092L439.781,724.872C420.939,731.008 398.959,738.936 380.032,743.921L380.029,613.783C388.294,611.008 445.038,591.251 449.166,591.566Z" style="fill:rgb(251,200,2);"/>
                    </g>
                    <g transform="matrix(0.5,0,0,0.5,0,0)">
                        <path d="M258.392,654.85L257.806,652.609C269.043,650.468 290.486,642.83 302.161,639.008C326.387,631.236 350.525,623.194 374.571,614.883C375.33,657.285 373.886,700.253 374.802,742.444C336.869,714.1 296.44,682.012 258.392,654.85Z" style="fill:rgb(251,200,2);"/>
                    </g>
                    <g transform="matrix(0.5,0,0,0.5,0,0)">
                        <path d="M559.843,691.963C538.607,698.15 516.576,705.814 495.448,712.651L377.191,751.229C354.648,735.285 331.895,717.104 309.781,700.36C293.088,687.72 272.733,673.534 256.891,660.345C256.858,659.128 256.933,659.841 256.409,658.046L255.947,656.502L258.392,654.85C296.44,682.012 336.869,714.1 374.802,742.444C373.886,700.253 375.33,657.285 374.571,614.883C350.525,623.194 326.387,631.236 302.161,639.008C290.486,642.83 269.043,650.468 257.806,652.609L253.931,649.101L334.422,622.589C343.365,619.682 365.157,612.015 373.063,610.94C374.69,611.882 379.273,609.956 381.978,609.259L382.248,607.985C392.397,601.589 437.204,591.447 445.693,585.047L451.214,586.273L452.941,587.721L449.166,591.566C445.038,591.251 388.294,611.008 380.029,613.783L380.032,743.921C398.959,738.936 420.939,731.008 439.781,724.872L556.611,687.092L559.843,691.963Z" style="fill:rgb(56,27,50);"/>
                    </g>
                    <g transform="matrix(0.5,0,0,0.5,0,0)">
                        <path d="M451.196,518.457C450.237,473.483 451.076,425.284 451.112,380.071C468.443,374.897 561.233,342.108 571.166,342.124C572.612,344.305 572.034,346.741 571.868,349.514C570.096,359.361 570.872,394.369 570.909,405.945L571.073,518.784C544.704,525.29 515.727,537.326 491.501,549.628C478.404,556.279 465.476,564.242 452.183,570.674C452.198,561.614 452.679,525.086 451.196,518.457Z" style="fill:rgb(249,249,249);fill-opacity:0.48;"/>
                    </g>
                    <g transform="matrix(0.5,0,0,0.5,0,0)">
                        <path d="M382.248,607.985L380.792,607.561C379.252,604.766 379.993,423.463 379.997,403.773C395.332,397.205 428.807,387.241 445.793,381.648L445.693,585.047C437.204,591.447 392.397,601.589 382.248,607.985Z" style="fill:rgb(249,249,249);fill-opacity:0.48;"/>
                    </g>
                    <g transform="matrix(0.5,0,0,0.5,0,0)">
                        <path d="M571.868,349.514L572.022,678.936C532.864,647.767 491.578,618.639 452.941,587.721L451.214,586.273C450.269,566.699 450.907,538.386 451.196,518.457C452.679,525.086 452.198,561.614 452.183,570.674C465.476,564.242 478.404,556.279 491.501,549.628C515.727,537.326 544.704,525.29 571.073,518.784L570.909,405.945C570.872,394.369 570.096,359.361 571.868,349.514Z" style="fill:rgb(234,233,231);fill-opacity:0.48;"/>
                    </g>
                    <g transform="matrix(0.5,0,0,0.5,0,0)">
                        <path d="M442.84,259.072L445.057,259.057C446.696,262.072 445.78,364.21 445.746,376.042C423.888,382.473 399.404,391.105 377.518,398.253C354.861,382.874 330.971,367.642 308.028,352.5C291.133,341.992 274.533,330.127 257.39,319.509L442.84,259.072Z" style="fill:rgb(249,249,249);fill-opacity:0.48;"/>
                    </g>
                    <g transform="matrix(0.5,0,0,0.5,0,0)">
                        <path d="M451.171,259.736C490.3,284.534 529.332,310.533 568.356,335.673L538.038,345.929L451.187,374.231L451.171,259.736Z" style="fill:rgb(249,249,249);fill-opacity:0.48;"/>
                    </g>
                    <g transform="matrix(0.5,0,0,0.5,0,0)">
                        <path d="M945.806,474.413C958.509,473.07 976.936,474.362 989.479,476.789C1031.2,485.02 1067.95,509.448 1091.7,544.722C1115.54,580.792 1124.03,624.872 1115.3,667.217C1106.2,709.02 1080.76,745.447 1044.64,768.378C1007.58,792.272 965.077,798.831 922.244,789.65C903.555,785.096 891.586,779.305 874.926,770.63C858.189,777.145 812.302,794.533 796.36,798.165C801.736,777.851 816.377,741.659 823.92,720.558C810.02,699.343 801.597,675.012 799.407,649.744C790.858,558.635 855.125,482.976 945.806,474.413Z" style="fill:rgb(55,34,81);fill-rule:nonzero;"/>
                    </g>
                    <g transform="matrix(0.5,0,0,0.5,0,0)">
                        <path d="M949.655,479.425C960.803,478.684 971.999,479.272 983.007,481.176C1023.66,487.746 1060.03,510.231 1084.08,543.663C1108.22,577.522 1117.82,619.629 1110.75,660.608C1103.44,701.017 1080.37,736.866 1046.63,760.267C1008.54,786.851 969.222,792.464 924.342,784.48C902.688,778.835 895.664,774.941 875.658,764.333L804.599,790.164C809.905,775.834 827.014,731.984 829.869,719.084C815.731,698.279 807.124,674.216 804.859,649.165C800.75,608.066 813.229,567.028 839.522,535.173C868.511,500.468 905.212,483.487 949.655,479.425Z" style="fill:rgb(249,249,249);fill-rule:nonzero;"/>
                    </g>
                    <g transform="matrix(0.5,0,0,0.5,0,0)">
                        <path d="M1023.74,549.602C1029.19,552.834 1053.43,575.01 1056.13,581.048C1050.47,589.345 1039.34,601.139 1032.29,609.071L991.399,654.923L957.733,692.832C950.829,700.647 942.195,711.103 934.716,717.781C921.531,706.164 907.139,690.963 894.591,678.318C884.653,668.229 867.816,652.442 859.644,642.203C868.864,632.341 882.024,618.906 892.112,610.148C903.634,620.287 921.261,639.105 932.538,650.377C962.791,619.374 992.926,580.01 1023.74,549.602Z" style="fill:rgb(35,41,78);fill-rule:nonzero;"/>
                    </g>
                    <g transform="matrix(0.5,0,0,0.5,0,0)">
                        <path d="M1024.33,557.109C1028.48,560.215 1044.82,576.131 1049.9,580.728C1013.21,623.247 972.15,668.138 934.461,709.971C922.554,699.848 905.637,681.66 894.308,670.076L867.11,642.61L892.142,617.532C904.325,629.85 920.349,647.44 932.867,658.537C940.22,651.204 948.682,640.58 956.027,632.673C978.882,608.068 1001.17,581.243 1024.33,557.109Z" style="fill:rgb(119,228,225);fill-rule:nonzero;"/>
                    </g>
                    <g transform="matrix(0.5,0,0,0.5,0,0)">
                        <path d="M537.104,1142.36C508.887,1126.34 489.44,1096.95 476.189,1068.29C461.605,1035.84 474.93,1019.58 499.479,999.186C514.843,986.424 528.558,975.634 545.934,965.409C550.951,961.879 555.56,955.499 560.17,951.742C592.77,925.178 644.27,920.224 683.105,934.46C688.73,935.925 698.232,943.741 703.046,945.045C748.236,957.29 757.019,972.632 772.688,1017.29C781.515,1019.4 789.74,1021.01 798.707,1023.34C822.071,1028.34 827.271,1031.83 828.233,1056.07C828.403,1080.29 826.628,1102.56 808.453,1121.44C791.291,1139.26 751.384,1145.4 727.773,1144.95C726.564,1151.56 727.141,1162.78 727.238,1169.97C727.691,1176.05 728.169,1187.79 729.873,1193.08C733.846,1196.1 737.401,1192.52 738.092,1199.03C737.865,1199.01 737.639,1198.99 737.412,1198.97C733.137,1195.92 729.751,1197.44 723.865,1196.15C656.36,1205.64 600.542,1196.09 539.646,1166.03C535.447,1163.46 536.519,1163.65 535.859,1158.88C535.899,1153.92 536.66,1147.41 537.104,1142.36Z" style="fill:rgb(251,200,2);fill-rule:nonzero;"/>
                    </g>
                    <g transform="matrix(0.5,0,0,0.5,0,0)">
                        <path d="M537.104,1142.36C508.887,1126.34 489.44,1096.95 476.189,1068.29C461.605,1035.84 474.93,1019.58 499.479,999.186C514.843,986.424 528.558,975.634 545.934,965.409C550.951,961.879 555.56,955.499 560.17,951.742C592.77,925.178 644.27,920.224 683.105,934.46C688.73,935.925 698.232,943.741 703.046,945.045C748.236,957.29 757.019,972.632 772.688,1017.29C781.515,1019.4 789.74,1021.01 798.707,1023.34C795.726,1025.69 768.317,1018.29 763.74,1016.42L764.153,1015.12C763.739,1015.03 763.324,1014.94 762.909,1014.84L760.98,1014.37C758.518,1013.78 754.309,1012.87 752.545,1011.1C735.013,993.453 735.59,971.996 713.472,955.613C711.876,956.216 712.637,956.063 711.187,956.133L710.198,958.203C679.123,932.279 649.135,927.618 609.874,935.18C586.277,941.07 575.505,946.32 556.236,961.345C590.056,953.159 583.549,972.855 583.814,999.255C584.023,1017.88 584.121,1036.52 584.107,1055.15C582.933,1078.35 582.448,1123.58 564.219,1141.06C557.727,1147.29 550.288,1145.59 541.951,1144.76C541.383,1151.04 540.819,1160.08 539.646,1166.03C535.447,1163.46 536.519,1163.65 535.859,1158.88C535.899,1153.92 536.66,1147.41 537.104,1142.36Z" style="fill:rgb(56,27,50);fill-rule:nonzero;"/>
                    </g>
                    <g transform="matrix(0.5,0,0,0.5,0,0)">
                        <path d="M713.472,955.613L713.448,953.758C718.071,954.029 722.627,956.685 726.953,958.784C748.068,969.028 758.609,992.259 765.24,1013.37C765.462,1014.08 764.522,1014.74 764.153,1015.12C763.739,1015.03 763.324,1014.94 762.909,1014.84L760.98,1014.37C758.518,1013.78 754.309,1012.87 752.545,1011.1C735.013,993.453 735.59,971.996 713.472,955.613Z" style="fill:rgb(253,106,93);fill-rule:nonzero;"/>
                    </g>
                    <g transform="matrix(0.5,0,0,0.5,0,0)">
                        <path d="M567.752,964.22C570.018,964.235 576.037,964.957 576.632,966.418C579.659,973.85 579.486,1001.87 579.226,1009.78C577.47,1048.52 584.722,1104.07 560.95,1136.68C549.633,1152.21 519.865,1122.61 512.283,1114.65C497.944,1097.57 484.271,1077.3 477.466,1055.84C469.7,1031.35 487.925,1016.14 504.832,1002.17C516.631,992.427 528.43,982.209 541.984,974.644C550.092,970.081 558.752,966.578 567.752,964.22Z" style="fill:rgb(253,136,125);fill-rule:nonzero;"/>
                    </g>
                    <g transform="matrix(0.5,0,0,0.5,0,0)">
                        <path d="M556.236,961.345C575.505,946.32 586.277,941.07 609.874,935.18C613.054,938.714 631.346,943.774 637.057,946.266C664.384,958.187 687.501,983.137 689.135,1014C690.365,1046.81 663.2,1069.89 631.866,1069.95C617.753,1069.98 607.47,1066.41 595.036,1060.01C592.982,1058.99 585.974,1055.59 584.107,1055.15C584.121,1036.52 584.023,1017.88 583.814,999.255C583.549,972.855 590.056,953.159 556.236,961.345Z" style="fill:rgb(253,136,125);fill-rule:nonzero;"/>
                    </g>
                    <g transform="matrix(0.5,0,0,0.5,0,0)">
                        <path d="M653.163,1004.68C666.169,1005.39 670.298,1019.84 658.761,1027.86C644.548,1025.7 640.248,1013.01 653.163,1004.68Z" style="fill:rgb(55,34,81);fill-rule:nonzero;"/>
                    </g>
                    <g transform="matrix(0.5,0,0,0.5,0,0)">
                        <path d="M644.436,983.092C647.644,982.862 650.826,982.004 652.584,985.029C649.711,988.513 641.251,989.959 633.653,997.39L632.678,998.359L630.625,1000.43L628.565,1000.43C624.771,992.703 638.976,985.84 644.436,983.092Z" style="fill:rgb(56,27,50);fill-rule:nonzero;"/>
                    </g>
                    <g transform="matrix(0.5,0,0,0.5,0,0)">
                        <path d="M789.839,1026.4L789.985,1025.19C784.639,1023.83 760.149,1018.08 757.58,1016.01C760.174,1015.91 761.14,1016.09 763.74,1016.42C768.317,1018.29 795.726,1025.69 798.707,1023.34C822.071,1028.34 827.271,1031.83 828.233,1056.07L822.799,1055.95C814.935,1063.64 811.195,1066.55 802.748,1073.08C799.397,1074.09 800.943,1074.19 797.961,1073.33C789.215,1067.47 780.012,1068.26 770.099,1057.83C745.569,1032.05 789.536,1032.62 794.539,1028.29L789.839,1026.4Z" style="fill:rgb(55,34,81);fill-rule:nonzero;"/>
                    </g>
                    <g transform="matrix(0.5,0,0,0.5,0,0)">
                        <path d="M822.799,1055.95L828.233,1056.07C828.403,1080.29 826.628,1102.56 808.453,1121.44C791.291,1139.26 751.384,1145.4 727.773,1144.95L727.293,1139.63C747.371,1138.95 799.571,1133.97 808.683,1111.81C809.985,1110.49 810.594,1109.54 811.703,1108.05C805.595,1103.2 803.54,1100.87 798.856,1094.99C800.202,1087.69 801.499,1080.39 802.748,1073.08C811.195,1066.55 814.935,1063.64 822.799,1055.95Z" style="fill:rgb(56,27,50);fill-rule:nonzero;"/>
                    </g>
                    <g transform="matrix(0.5,0,0,0.5,0,0)">
                        <path d="M802.748,1073.08C811.195,1066.55 814.935,1063.64 822.799,1055.95C823.383,1074.44 822.103,1092.08 811.703,1108.05C805.595,1103.2 803.54,1100.87 798.856,1094.99C800.202,1087.69 801.499,1080.39 802.748,1073.08Z" style="fill:rgb(251,200,2);fill-rule:nonzero;"/>
                    </g>
                    <g transform="matrix(0.5,0,0,0.5,0,0)">
                        <path d="M721.491,1170.83C715.05,1165.45 668.796,1148.98 668.596,1138C670.172,1136.88 672.358,1136.22 674.283,1136.43C692.103,1138.35 709.387,1139.18 727.293,1139.63L727.773,1144.95C726.564,1151.56 727.141,1162.78 727.238,1169.97L721.491,1170.83Z" style="fill:rgb(55,34,81);fill-rule:nonzero;"/>
                    </g>
                    <g transform="matrix(0.5,0,0,0.5,0,0)">
                        <path d="M797.961,1073.33C800.943,1074.19 799.397,1074.09 802.748,1073.08C801.499,1080.39 800.202,1087.69 798.856,1094.99L795.541,1098.52C794.294,1100.72 792.812,1102.78 791.12,1104.66C762.351,1137.14 708.201,1131.31 676.122,1106.16C673.345,1103.99 671.934,1100.93 671.812,1097.43L673.062,1096.54C677.598,1098.26 679.728,1101.48 683.504,1104.45C707.11,1123.03 746.833,1128.74 773.212,1112.94C790.163,1102.78 793.809,1091.24 797.961,1073.33Z" style="fill:url(#_Linear7);fill-rule:nonzero;"/>
                    </g>
                    <g transform="matrix(0.5,0,0,0.5,0,0)">
                        <path d="M710.198,958.203L711.187,956.133C712.637,956.063 711.876,956.216 713.472,955.613C735.59,971.996 735.013,993.453 752.545,1011.1C754.309,1012.87 758.518,1013.78 760.98,1014.37L762.909,1014.84C763.324,1014.94 763.739,1015.03 764.153,1015.12L763.74,1016.42C761.14,1016.09 760.174,1015.91 757.58,1016.01C760.149,1018.08 784.639,1023.83 789.985,1025.19L789.839,1026.4C784.35,1026.01 766.754,1021.48 760.812,1019.74C750.171,1016.62 745.644,1013.9 740.522,1004.45C736.707,1004.5 734.74,1004.07 731.806,1006.4C730.177,997.246 729.321,993.971 720.259,990.947C722.916,989.958 722.918,989.77 725.179,987.973C725.867,984.28 724.406,981.975 723.26,977.788C720.964,977.742 718.667,977.725 716.37,977.736C711.546,977.744 706.891,978.312 703.436,974.859L704.62,973.468C712.455,970.987 715.515,972.023 723.552,973.263C719.711,968.363 714.463,962.882 710.198,958.203Z" style="fill:rgb(54,34,42);fill-rule:nonzero;"/>
                    </g>
                    <g transform="matrix(0.5,0,0,0.5,0,0)">
                        <path d="M723.26,977.788C731.238,980.935 736.67,996.086 740.522,1004.45C736.707,1004.5 734.74,1004.07 731.806,1006.4C730.177,997.246 729.321,993.971 720.259,990.947C722.916,989.958 722.918,989.77 725.179,987.973C725.867,984.28 724.406,981.975 723.26,977.788Z" style="fill:rgb(246,192,45);fill-rule:nonzero;"/>
                    </g>
                    <g transform="matrix(0.5,0,0,0.5,0,0)">
                        <path d="M720.259,990.947C729.321,993.971 730.177,997.246 731.806,1006.4C727.558,1013.7 719.99,1017.85 714.497,1009.11C712.688,1006.27 712.108,1002.82 712.891,999.548C714.001,994.996 716.541,993.325 720.259,990.947Z" style="fill:rgb(56,27,50);fill-rule:nonzero;"/>
                    </g>
                    <g transform="matrix(0.5,0,0,0.5,0,0)">
                        <path d="M721.491,1170.83L727.238,1169.97C727.691,1176.05 728.169,1187.79 729.873,1193.08C733.846,1196.1 737.401,1192.52 738.092,1199.03C737.865,1199.01 737.639,1198.99 737.412,1198.97C733.137,1195.92 729.751,1197.44 723.865,1196.15C722.896,1187.6 721.93,1179.45 721.491,1170.83Z" style="fill:rgb(56,27,50);fill-rule:nonzero;"/>
                    </g>
                    <g transform="matrix(0.5,0,0,0.5,0,0)">
                        <path d="M798.856,1094.99C803.54,1100.87 805.595,1103.2 811.703,1108.05C810.594,1109.54 809.985,1110.49 808.683,1111.81C802.902,1107.61 799.439,1104.48 795.541,1098.52L798.856,1094.99Z" style="fill:rgb(54,34,42);fill-rule:nonzero;"/>
                    </g>
                    <g transform="matrix(0.5,0,0,0.5,0,0)">
                        <path d="M905.153,1101.84C875.102,1069.69 841.676,1031.33 850.869,983.779C854.439,964.765 865.52,947.992 881.61,937.249C896.694,927.284 915.143,923.779 932.831,927.517C954.016,932 966.036,943.305 977.467,960.739C981.104,954.63 984.433,949.885 989.522,944.952C1002.31,932.55 1019.54,925.804 1037.35,926.229C1059.58,926.597 1074.33,935.513 1089.24,950.961L1090.24,952.345C1088.06,953.434 1087.48,953.5 1085.71,955.029C1098.39,975.494 1103.39,994.531 1098.01,1018.7C1096.87,1023.84 1093.52,1033.57 1090.65,1037.85C1087.37,1046.06 1079.41,1057.5 1074.34,1064.93C1072.24,1067.64 1069.56,1071.36 1067.19,1073.71L1067.1,1074.64C1068.11,1076.12 1069.33,1077.75 1070.15,1079.32C1077.02,1086.43 1080.52,1096.2 1085.46,1102.11L1088.16,1106.54C1063.94,1126.65 1042.7,1144.82 1013.72,1158.37C1000.86,1164.38 978.721,1178.91 964.549,1170.95C960.895,1168.9 960.52,1164.21 959.891,1160.47L959.614,1158.77C950.58,1159.12 942.462,1168.75 932.812,1160.04C927.987,1155.69 930.362,1150.06 928.954,1144.78C925.392,1145.08 917.189,1146.19 914.447,1144.05C904.996,1136.68 910.21,1128.36 915.214,1121.01C910.489,1116.05 908.293,1117.46 904.92,1113.51C903.715,1108.75 904.393,1106.74 905.153,1101.84Z" style="fill:rgb(234,233,231);fill-rule:nonzero;"/>
                    </g>
                    <g transform="matrix(0.5,0,0,0.5,0,0)">
                        <path d="M1085.22,955.088L1085.71,955.029C1098.39,975.494 1103.39,994.531 1098.01,1018.7C1096.87,1023.84 1093.52,1033.57 1090.65,1037.85C1087.37,1046.06 1079.41,1057.5 1074.34,1064.93C1072.24,1067.64 1069.56,1071.36 1067.19,1073.71L1067.1,1074.64C1052.91,1089.69 1039.84,1103.85 1024.34,1117.67C1009.06,1131.29 992.596,1142.97 977.071,1155.82C974.623,1153.72 971.82,1151.19 969.301,1149.25L968.03,1148.87L948.859,1133.93L946.511,1131.81C940.257,1126.83 935.16,1122.48 929.222,1117.11L926.825,1115.43L911.231,1099.52L908.916,1097.65C921.817,1084.11 959.429,1065.43 977.752,1054.68C965.166,1052.51 937.753,1050.38 936.151,1035.43C934.125,1016.51 976.759,1021.95 986.495,1020.9C1002.43,1019.2 1016.45,1017.63 1031.6,1016.44L1025.22,1004.35C1036.08,993.285 1053.19,981.837 1065.16,970.446C1069.62,975.936 1071.19,980.586 1074.46,986.863C1076.96,987.645 1075.64,987.578 1078.51,986.224L1079.46,983.547C1078.65,976.241 1075.58,971.615 1071.73,965.578C1076.51,962.102 1080.86,959.112 1085.22,955.088Z" style="fill:rgb(248,176,173);fill-rule:nonzero;"/>
                    </g>
                    <g transform="matrix(0.5,0,0,0.5,0,0)">
                        <path d="M1085.22,955.088L1085.71,955.029C1098.39,975.494 1103.39,994.531 1098.01,1018.7C1096.87,1023.84 1093.52,1033.57 1090.65,1037.85C1087.37,1046.06 1079.41,1057.5 1074.34,1064.93C1072.24,1067.64 1069.56,1071.36 1067.19,1073.71C1064.49,1067.31 1040.05,1027.19 1035.17,1020.7C1012.03,1026.79 975.282,1024.34 951.454,1027.07C948.864,1027.36 944.8,1029.98 943.667,1032.56C938.786,1046.87 979.286,1049.53 988.07,1050.92C996.345,1061.08 1007.64,1065.85 1020.28,1067.97C1025.63,1068.86 1038.58,1066.08 1042.37,1067.9C1042.14,1069.36 1042.33,1070.97 1041.01,1071.47C1019.9,1079.47 999.287,1068.7 985.664,1055.61C960.656,1070.64 936.15,1084.17 911.231,1099.52L908.916,1097.65C921.817,1084.11 959.429,1065.43 977.752,1054.68C965.166,1052.51 937.753,1050.38 936.151,1035.43C934.125,1016.51 976.759,1021.95 986.495,1020.9C1002.43,1019.2 1016.45,1017.63 1031.6,1016.44L1025.22,1004.35C1036.08,993.285 1053.19,981.837 1065.16,970.446C1069.62,975.936 1071.19,980.586 1074.46,986.863C1076.96,987.645 1075.64,987.578 1078.51,986.224L1079.46,983.547C1078.65,976.241 1075.58,971.615 1071.73,965.578C1076.51,962.102 1080.86,959.112 1085.22,955.088Z" style="fill:rgb(148,134,182);fill-rule:nonzero;"/>
                    </g>
                    <g transform="matrix(0.5,0,0,0.5,0,0)">
                        <path d="M1074.34,1064.93C1067.97,1059.83 1071.88,1056.01 1074.64,1049.41C1076.57,1044.78 1079.93,1039.85 1084.25,1037.15C1085.35,1037.97 1086.26,1038.76 1087.21,1039.73L1090.05,1036.22L1090.65,1037.85C1087.37,1046.06 1079.41,1057.5 1074.34,1064.93Z" style="fill:rgb(159,151,202);fill-rule:nonzero;"/>
                    </g>
                    <g transform="matrix(0.5,0,0,0.5,0,0)">
                        <path d="M926.825,1115.43C930.633,1111.51 970.618,1086.62 974.228,1086.04L975.808,1087.38C976.054,1093.85 936.239,1115.04 929.222,1117.11L926.825,1115.43Z" style="fill:rgb(148,134,182);fill-rule:nonzero;"/>
                    </g>
                    <g transform="matrix(0.5,0,0,0.5,0,0)">
                        <path d="M946.511,1131.81C955.611,1125.7 977.769,1110.59 986.602,1106.31L988.841,1106.8L989.738,1108.62C987.631,1114.11 955.441,1132.21 948.859,1133.93L946.511,1131.81Z" style="fill:rgb(148,134,182);fill-rule:nonzero;"/>
                    </g>
                    <g transform="matrix(0.5,0,0,0.5,0,0)">
                        <path d="M968.03,1148.87C973.978,1142.42 1000.49,1124.2 1008.83,1120.85C1002.75,1129.73 995.99,1136.28 986.826,1141.8C981.245,1145.16 977.288,1148.83 970.882,1148.62C970.355,1148.83 969.828,1149.04 969.301,1149.25L968.03,1148.87Z" style="fill:rgb(148,134,182);fill-rule:nonzero;"/>
                    </g>
                    <g transform="matrix(0.5,0,0,0.5,0,0)">
                        <path d="M905.153,1101.84C875.102,1069.69 841.676,1031.33 850.869,983.779C854.439,964.765 865.52,947.992 881.61,937.249C896.694,927.284 915.143,923.779 932.831,927.517C954.016,932 966.036,943.305 977.467,960.739C981.104,954.63 984.433,949.885 989.522,944.952C1002.31,932.55 1019.54,925.804 1037.35,926.229C1059.58,926.597 1074.33,935.513 1089.24,950.961L1090.24,952.345C1088.06,953.434 1087.48,953.5 1085.71,955.029L1085.22,955.088C1073.98,941.548 1059.62,933.43 1041.94,931.747C1025.14,930.24 1008.44,935.64 995.697,946.704C987.501,953.811 982.633,963.067 977.25,972.325C968.263,954.394 956.977,940.476 937.021,934.27C902.334,923.482 868.685,944.102 858.122,977.816C844.345,1021.79 878.219,1068.96 908.916,1097.65L911.231,1099.52L926.825,1115.43L929.222,1117.11C935.16,1122.48 940.257,1126.83 946.511,1131.81L948.859,1133.93L968.03,1148.87L969.301,1149.25C971.82,1151.19 974.623,1153.72 977.071,1155.82C992.596,1142.97 1009.06,1131.29 1024.34,1117.67C1039.84,1103.85 1052.91,1089.69 1067.1,1074.64C1068.11,1076.12 1069.33,1077.75 1070.15,1079.32C1077.02,1086.43 1080.52,1096.2 1085.46,1102.11L1088.16,1106.54C1063.94,1126.65 1042.7,1144.82 1013.72,1158.37C1000.86,1164.38 978.721,1178.91 964.549,1170.95C960.895,1168.9 960.52,1164.21 959.891,1160.47L959.614,1158.77C950.58,1159.12 942.462,1168.75 932.812,1160.04C927.987,1155.69 930.362,1150.06 928.954,1144.78C925.392,1145.08 917.189,1146.19 914.447,1144.05C904.996,1136.68 910.21,1128.36 915.214,1121.01C910.489,1116.05 908.293,1117.46 904.92,1113.51C903.715,1108.75 904.393,1106.74 905.153,1101.84Z" style="fill:url(#_Linear8);fill-rule:nonzero;"/>
                    </g>
                    <g transform="matrix(0.5,0,0,0.5,0,0)">
                        <path d="M1070.15,1079.32C1077.02,1086.43 1080.52,1096.2 1085.46,1102.11C1076.57,1109.24 1067.12,1118.81 1057.79,1125.02C1046.19,1132.75 970.5,1185.8 964.773,1160.12C965.988,1157.01 964.975,1158.21 968.083,1156.57C972.492,1157.71 972.718,1158.97 976.301,1162.37C1005.14,1145.62 1047.1,1103.71 1070.15,1079.32Z" style="fill:url(#_Linear9);fill-rule:nonzero;"/>
                    </g>
                    <g transform="matrix(0.5,0,0,0.5,0,0)">
                        <path d="M944.485,1137.75C949.896,1140.76 956.88,1146.72 961.91,1150.75C958.509,1152.68 953.322,1154.85 949.642,1156.52C928.982,1161.55 932.44,1148.23 944.485,1137.75Z" style="fill:rgb(248,176,173);fill-rule:nonzero;"/>
                    </g>
                    <g transform="matrix(0.5,0,0,0.5,0,0)">
                        <path d="M924.803,1120.66C926.892,1121.81 937.944,1131.17 941.593,1133.86C937.709,1135.86 934.306,1137.3 930.312,1139.01C908.476,1144.2 914.122,1130.92 924.803,1120.66Z" style="fill:rgb(248,176,173);fill-rule:nonzero;"/>
                    </g>
                    <g transform="matrix(0.5,0,0,0.5,0,0)">
                        <path d="M908.416,1106.63C912.823,1107.35 916.732,1112.55 919.401,1115.97C912.826,1114.85 909.845,1113.38 908.416,1106.63Z" style="fill:rgb(208,155,177);fill-rule:nonzero;"/>
                    </g>
                    <g transform="matrix(0.5,0,0,0.5,0,0)">
                        <path d="M1065.16,970.446C1056.68,957.557 1050.21,960.016 1045.07,953.807C1055.89,947.958 1061.31,960.499 1071.73,965.578C1075.58,971.615 1078.65,976.241 1079.46,983.547L1078.51,986.224C1075.64,987.578 1076.96,987.645 1074.46,986.863C1071.19,980.586 1069.62,975.936 1065.16,970.446Z" style="fill:rgb(249,249,249);fill-rule:nonzero;"/>
                    </g>
                    <g transform="matrix(0.5,0,0,0.5,0,0)">
                        <path d="M917.574,950.397C921.16,950.411 920.964,950.354 924.323,951.579L924.421,953.19C918.769,959.636 904.151,959.747 895.751,967.357C883.085,978.831 882.143,992.116 880.589,1007.81C878.862,1008.53 878.425,1008.26 876.35,1008.29C874.332,1006.57 873.532,1005.54 873.424,1002.64C872.42,975.774 890.755,952.607 917.574,950.397Z" style="fill:rgb(249,249,249);fill-rule:nonzero;"/>
                    </g>
                    <g transform="matrix(0.5,0,0,0.5,0,0)">
                        <path d="M1341.18,474.002C1319.18,464.802 1307.45,439.887 1329.12,422.261C1339.09,413.685 1357.24,419.456 1366.97,415.757C1396.07,404.697 1412.63,389.24 1434.11,423.281C1469.95,419.9 1466.39,459.829 1468.25,484.435C1469.67,503.154 1463.85,517.784 1451.11,531.359C1453.24,543.502 1456.75,557.855 1459.42,570.07C1457.55,574.192 1459.01,572.839 1455.17,574.563C1454.23,582.661 1450.12,590.502 1443.77,595.656C1436.39,601.707 1426.9,604.569 1417.4,603.608C1408,602.574 1392.56,594.801 1397.97,583.288L1397.13,582.726L1394.82,584.584C1392.72,582.463 1392.78,581.91 1392.15,578.992L1390.99,577.872C1390.44,576.34 1388.76,569.433 1387.83,569.135C1381.12,566.979 1370.61,565.082 1365.36,560.116C1344.96,540.829 1342.06,500.392 1341.18,474.002Z" style="fill:rgb(55,34,81);fill-rule:nonzero;"/>
                    </g>
                    <g transform="matrix(0.5,0,0,0.5,0,0)">
                        <path d="M1345.88,474.982C1363.06,474.985 1375.43,470.556 1390.94,463.346C1394.47,461.702 1409.19,454.224 1411.97,458.991C1416.19,466.244 1416.35,498.892 1432.19,492.098C1435.96,487.85 1439.16,481.029 1445.32,481.113C1463.17,481.357 1460.41,502.932 1448.88,509.746C1446.7,511.033 1443.82,512.018 1441.35,512.892C1446.19,533.396 1450.8,553.955 1455.17,574.563C1454.23,582.661 1450.12,590.502 1443.77,595.656C1436.39,601.707 1426.9,604.569 1417.4,603.608C1408,602.574 1392.56,594.801 1397.97,583.288C1409.26,577.105 1420.58,561.331 1423.94,549.068C1402.54,565.039 1375.35,572.569 1359.57,544.443C1355.03,536.353 1346.37,508.771 1348.85,500.443L1347.9,497.003C1346.57,492.147 1346.12,480.453 1345.88,474.982Z" style="fill:rgb(248,176,173);fill-rule:nonzero;"/>
                    </g>
                    <g transform="matrix(0.5,0,0,0.5,0,0)">
                        <path d="M1347.9,497.003C1354.53,494.614 1356.28,493.819 1363.03,495.325C1361.01,499.032 1353.67,498.321 1348.85,500.443L1347.9,497.003Z" style="fill:rgb(56,27,50);fill-rule:nonzero;"/>
                    </g>
                    <g transform="matrix(0.5,0,0,0.5,0,0)">
                        <path d="M1371.08,502.199C1377.33,505.607 1369.7,517.201 1374.07,523.071C1376.88,523.018 1377.77,522.77 1380.4,523.768L1381.17,526.637C1377.62,527.13 1376.97,527.096 1373.34,526.958C1364.85,521.867 1369.08,510.413 1371.08,502.199Z" style="fill:rgb(4,0,2);fill-rule:nonzero;"/>
                    </g>
                    <g transform="matrix(0.5,0,0,0.5,0,0)">
                        <path d="M1397.18,527.719C1398.68,528.426 1398.27,528.382 1399.43,529.922C1399.11,537.298 1385.45,542.432 1379.45,543.769C1377.63,541.639 1378.03,542.845 1377.62,540.339C1388.98,535.115 1388.74,537.802 1397.18,527.719Z" style="fill:rgb(4,0,2);fill-rule:nonzero;"/>
                    </g>
                    <g transform="matrix(0.5,0,0,0.5,0,0)">
                        <path d="M1448.61,486.568C1449.23,487.037 1449.84,487.507 1450.46,487.976C1446.61,494.755 1444.89,495.24 1440.35,504.512L1438.37,502.926C1437.21,496.097 1443.61,490.172 1448.61,486.568Z" style="fill:rgb(4,0,2);fill-rule:nonzero;"/>
                    </g>
                    <g transform="matrix(0.5,0,0,0.5,0,0)">
                        <path d="M1392.54,487.306C1395.22,487.293 1397.7,487.128 1399.27,489.277C1395.79,491.759 1393.71,491.423 1389.24,491.747C1386.21,492.281 1386.21,492.202 1383.12,491.872L1382.77,490.963C1386.55,488.088 1387.68,488.222 1392.54,487.306Z" style="fill:rgb(4,0,2);fill-rule:nonzero;"/>
                    </g>
                    <g transform="matrix(0.5,0,0,0.5,0,0)">
                        <path d="M1552.9,204.918C1563.49,205.171 1579.64,207.245 1590.5,208.361L1658.12,215.513L1711.95,221.299C1722.66,222.449 1735.81,223.419 1746.13,225.731C1743.51,230.814 1740.71,235.358 1737.57,240.126C1719.24,267.945 1701.87,296.329 1684.05,324.47C1675.73,336.914 1650.74,379.362 1642.97,387.614C1638.54,381.288 1633.01,369.449 1629.29,362.062L1605.83,315.05L1571.35,245.712C1568.04,239.035 1552.84,210.787 1552.9,204.918ZM1577.02,243.933C1572.32,234.638 1567.66,225.103 1562.56,216.039C1574.87,223.63 1598.71,238.381 1609.97,246.769C1614.02,248.87 1636.56,264.586 1639.98,267.756L1640.03,371.418C1619.49,328.83 1597.03,286.58 1577.02,243.933ZM1693.84,298.471C1677.62,322.706 1660.87,349.93 1645.26,374.692C1645.41,346.057 1645.1,298.655 1645.68,268.389C1646.16,267.897 1646.63,267.404 1647.11,266.912C1673.8,254.996 1707.54,244.315 1735.37,232.993C1721.22,254.629 1707.38,276.457 1693.84,298.471ZM1567.49,211.94C1580.94,211.969 1602.79,215.348 1617.01,216.685C1655.13,220.268 1693.79,225.962 1731.97,228.38L1706.76,237.911C1685.5,246.189 1664.15,254.234 1642.72,262.042L1567.49,211.94Z" style="fill:rgb(55,34,81);"/>
                    </g>
                    <g transform="matrix(0.5,0,0,0.5,0,0)">
                        <path d="M1693.84,298.471C1677.62,322.706 1660.87,349.93 1645.26,374.692C1645.41,346.057 1645.1,298.655 1645.68,268.389C1646.16,267.897 1646.63,267.404 1647.11,266.912C1648.25,268.143 1662.19,275.597 1665.48,277.833C1675.32,284.53 1684.58,290.82 1693.84,298.471Z" style="fill:rgb(234,233,231);fill-opacity:0.42;"/>
                    </g>
                    <g transform="matrix(0.5,0,0,0.5,0,0)">
                        <path d="M1647.11,266.912C1673.8,254.996 1707.54,244.315 1735.37,232.993C1721.22,254.629 1707.38,276.457 1693.84,298.471C1684.58,290.82 1675.32,284.53 1665.48,277.833C1662.19,275.597 1648.25,268.143 1647.11,266.912Z" style="fill:rgb(249,249,249);fill-opacity:0.42;"/>
                    </g>
                    <g transform="matrix(0.5,0,0,0.5,0,0)">
                        <path d="M1609.97,246.769C1614.02,248.87 1636.56,264.586 1639.98,267.756L1640.03,371.418C1619.49,328.83 1597.03,286.58 1577.02,243.933C1589.13,241.236 1605.51,253.174 1609.97,246.769Z" style="fill:rgb(234,233,231);fill-opacity:0.42;"/>
                    </g>
                    <g transform="matrix(0.5,0,0,0.5,0,0)">
                        <path d="M1577.02,243.933C1572.32,234.638 1567.66,225.103 1562.56,216.039C1574.87,223.63 1598.71,238.381 1609.97,246.769C1605.51,253.174 1589.13,241.236 1577.02,243.933Z" style="fill:rgb(249,249,249);fill-opacity:0.42;"/>
                    </g>
                    <g transform="matrix(0.5,0,0,0.5,0,0)">
                        <path d="M1567.49,211.94C1580.94,211.969 1602.79,215.348 1617.01,216.685C1655.13,220.268 1693.79,225.962 1731.97,228.38L1706.76,237.911C1685.5,246.189 1664.15,254.234 1642.72,262.042L1567.49,211.94Z" style="fill:rgb(249,249,249);fill-opacity:0.42;"/>
                    </g>
                    <g transform="matrix(0.5,0,0,0.5,0,0)">
                        <path d="M276.02,1799.1C270.529,1793.24 259.39,1791.53 251.247,1787.92C217.43,1772.59 189.604,1746.55 172.07,1713.82C148.005,1668.71 143.039,1615.83 158.284,1567.02C166.724,1538.68 181.324,1512.56 201.039,1490.52C207.753,1482.96 217.214,1471.13 228.141,1474.89C233.638,1479.54 230.704,1488.2 227.817,1493.65C198.739,1548.47 187.907,1615.66 219.503,1671.88C224.746,1681.21 239.68,1701.78 249.002,1706.56L249.574,1705.29C251.289,1705.35 252.8,1705.59 254.343,1705.2C259.994,1738.08 260.296,1763.33 280.13,1794.66L276.042,1794.65C275.364,1797.3 275.496,1796.24 276.02,1799.1Z" style="fill:rgb(55,34,81);fill-rule:nonzero;"/>
                    </g>
                    <g transform="matrix(0.5,0,0,0.5,0,0)">
                        <path d="M222.735,1478.66C229.65,1482.77 214.239,1508.88 211.386,1515.6C202.341,1537.08 196.887,1559.89 195.241,1583.14C192.267,1631.97 205.269,1667.96 237.17,1703.92C237.287,1722.57 237.567,1741.8 239.786,1760.3C240.449,1765.83 240.976,1771.16 241.276,1776.72C232.026,1771.58 226.083,1767.38 217.939,1760.76C159.183,1711.63 141.25,1633.23 165.774,1561.46C175.668,1532.51 197.35,1496.51 222.735,1478.66Z" style="fill:rgb(253,136,125);fill-rule:nonzero;"/>
                    </g>
                    <g transform="matrix(0.5,0,0,0.5,0,0)">
                        <path d="M261.575,1132.59C299.063,1128.05 333.106,1154.83 337.514,1192.34C341.921,1229.84 315.015,1263.79 277.495,1268.06C240.164,1272.31 206.427,1245.57 202.042,1208.26C197.657,1170.94 224.276,1137.11 261.575,1132.59Z" style="fill:rgb(177,166,203);fill-rule:nonzero;"/>
                    </g>
                    <g transform="matrix(0.5,0,0,0.5,0,0)">
                        <path d="M806.59,271.536C840.329,267.262 871.122,291.209 875.288,324.962C879.453,358.714 855.406,389.43 821.64,393.486C788.028,397.524 757.483,373.611 753.337,340.012C749.19,306.413 773.005,275.791 806.59,271.536Z" style="fill:rgb(54,34,42);fill-rule:nonzero;"/>
                    </g>
                    <g transform="matrix(0.5,0,0,0.5,0,0)">
                        <path d="M810.267,276.679C841.061,274.407 867.866,297.528 870.139,328.323C872.411,359.117 849.289,385.922 818.495,388.194C787.701,390.466 760.896,367.345 758.624,336.551C756.352,305.757 779.473,278.952 810.267,276.679Z" style="fill:rgb(251,200,2);fill-rule:nonzero;"/>
                    </g>
                    <g transform="matrix(0.5,0,0,0.5,0,0)">
                        <path d="M981.998,1523.68C998.369,1520 1015.46,1525.39 1026.75,1537.81C1038.03,1550.23 1041.77,1567.76 1036.54,1583.7C1031.31,1599.65 1017.92,1611.55 1001.47,1614.87C976.427,1619.93 951.978,1603.89 946.643,1578.91C941.307,1553.92 957.073,1529.3 981.998,1523.68Z" style="fill:rgb(254,203,198);fill-rule:nonzero;"/>
                    </g>
                    <circle cx="695.5" cy="250.5" r="1.5" style="fill:rgb(4,0,2);"/>
                    <g transform="matrix(1,0,0,1,-15.775076,5.095755)">
                        <circle cx="695.5" cy="250.5" r="1.5" style="fill:rgb(4,0,2);"/>
                    </g>
                    <g transform="matrix(0.5,0,0,0.5,0,0)">
                        <path d="M1203.79,305.513C1218.06,302.325 1232.94,307.059 1242.74,317.905C1252.55,328.75 1255.76,344.031 1251.15,357.905C1246.54,371.779 1234.82,382.101 1220.48,384.925C1198.69,389.214 1177.5,375.19 1172.93,353.456C1168.37,331.723 1182.12,310.356 1203.79,305.513Z" style="fill:rgb(55,34,81);fill-rule:nonzero;"/>
                    </g>
                    <g transform="matrix(0.5,0,0,0.5,0,0)">
                        <path d="M1184.9,366.032C1173.93,351.454 1176.13,330.868 1189.93,318.938C1203.74,307.009 1224.43,307.816 1237.26,320.784C1246.37,329.989 1249.59,343.5 1245.61,355.824C1241.64,368.148 1231.13,377.23 1218.36,379.377C1205.59,381.524 1192.69,376.378 1184.9,366.032Z" style="fill:rgb(254,190,185);fill-rule:nonzero;"/>
                    </g>
                    <g transform="matrix(0.5,0,0,0.5,0,0)">
                        <path d="M345.768,1031.52C358,1027.67 371.032,1034.5 374.832,1046.75C378.633,1058.99 371.755,1072 359.492,1075.75C347.299,1079.48 334.385,1072.65 330.606,1060.47C326.827,1048.29 333.605,1035.35 345.768,1031.52Z" style="fill:rgb(55,34,81);fill-rule:nonzero;"/>
                    </g>
                    <g transform="matrix(0.5,0,0,0.5,0,0)">
                        <path d="M347.318,1036.64C353.438,1034.73 360.111,1036.26 364.785,1040.65C369.458,1045.03 371.409,1051.6 369.89,1057.83C368.371,1064.05 363.618,1068.98 357.45,1070.73C348.088,1073.37 338.338,1068 335.566,1058.68C332.795,1049.35 338.031,1039.53 347.318,1036.64Z" style="fill:rgb(234,233,231);fill-rule:nonzero;"/>
                    </g>
                    <g transform="matrix(0.5,0,0,0.5,0,0)">
                        <path d="M254.264,847.058C270.869,847.046 268.445,860.055 277.767,865.842C289.12,872.889 293.238,850.904 303.073,847.802C319.873,842.504 319.873,861.4 330.197,866.101C341.001,871.021 345.049,850.093 353.81,847.609C370.939,842.754 370.805,863.541 383.047,867.76C384.559,868.281 384.059,868.332 384.973,869.856C383.426,872.321 384.386,871.236 381.521,872.645C373.702,871.808 368.246,858.041 360.282,852.402C349.311,851.029 350.383,866.052 335.777,872.623C319.946,871.426 321.888,861.056 312.92,854.369C299.701,844.512 296.74,870.735 284.037,872.521C269.216,874.606 269.72,858.533 261.036,853.321C250.02,846.709 244.214,870.319 235.416,872.289C221.167,875.479 218.47,856.415 208.56,852.59C206.235,851.693 205.686,851.543 204.262,849.685C206.592,847.19 205.197,848.185 208.932,847.152C217.91,848.878 221.943,862.736 229.138,866.896C241.388,868.089 240.174,853.888 254.264,847.058Z" style="fill:rgb(55,34,81);fill-rule:nonzero;"/>
                    </g>
                    <g transform="matrix(0.5,0,0,0.5,0,0)">
                        <path d="M1813.07,524.941C1826.52,525.105 1825.97,529.509 1833.38,538.863C1836.35,542.622 1840.93,544.738 1843.83,549.351L1842.53,550.778C1831.89,552.823 1827.89,534.11 1819.35,530.461C1808.82,525.966 1804.96,546.523 1796.78,549.307C1777.86,555.742 1779.23,533.763 1767.48,530.413C1758.98,527.988 1755.05,545.396 1748.08,548.884C1730.35,557.765 1729.22,533.65 1717.3,530.478C1707.88,527.973 1704.32,545.255 1696.94,548.656C1696.64,548.879 1696.33,549.101 1696.02,549.323C1677.38,554.353 1681.81,538.037 1665.2,529.126L1663.73,528.349L1663.36,526.928L1665.02,525.956C1678.11,525.588 1678.28,538.456 1687.21,544.446C1697.28,551.197 1702.23,527.386 1714.09,525.427C1728.41,523.062 1730.08,540.999 1737.73,544.267C1750.34,549.655 1751.66,529.483 1762.13,526.396C1778.31,521.63 1778.76,540.044 1788.69,544.917C1797.97,549.47 1804.37,527.636 1812.12,525.495C1812.44,525.31 1812.76,525.125 1813.07,524.941Z" style="fill:rgb(55,34,81);fill-rule:nonzero;"/>
                    </g>
                    <g transform="matrix(0.5,0,0,0.5,0,0)">
                        <path d="M1822.43,719.695C1831.78,718.766 1840.16,725.495 1841.26,734.827C1842.37,744.16 1835.8,752.66 1826.49,753.942C1820.31,754.794 1814.15,752.241 1810.39,747.266C1806.62,742.29 1805.84,735.669 1808.33,729.952C1810.83,724.234 1816.22,720.312 1822.43,719.695Z" style="fill:rgb(253,106,93);fill-rule:nonzero;"/>
                    </g>
                </g>
            </g>
        </g>
    </g>
    <defs>
        <linearGradient id="_Linear1" x1="0" y1="0" x2="1" y2="0" gradientUnits="userSpaceOnUse" gradientTransform="matrix(162.89,-1402.376,1402.376,162.89,1012.08,1938.81)"><stop offset="0" style="stop-color:rgb(54,31,83);stop-opacity:1"/><stop offset="1" style="stop-color:rgb(69,35,147);stop-opacity:1"/></linearGradient>
        <linearGradient id="_Linear2" x1="0" y1="0" x2="1" y2="0" gradientUnits="userSpaceOnUse" gradientTransform="matrix(-56.48,-6.41,6.41,-56.48,1420.3,1362.53)"><stop offset="0" style="stop-color:rgb(64,33,88);stop-opacity:1"/><stop offset="1" style="stop-color:rgb(18,48,92);stop-opacity:1"/></linearGradient>
        <linearGradient id="_Linear3" x1="0" y1="0" x2="1" y2="0" gradientUnits="userSpaceOnUse" gradientTransform="matrix(-97.046,-86.34,86.34,-97.046,436.023,1497.17)"><stop offset="0" style="stop-color:rgb(38,19,18);stop-opacity:1"/><stop offset="1" style="stop-color:rgb(66,24,74);stop-opacity:1"/></linearGradient>
        <linearGradient id="_Linear4" x1="0" y1="0" x2="1" y2="0" gradientUnits="userSpaceOnUse" gradientTransform="matrix(-7.53,-0.06,0.06,-7.53,670.265,1723.03)"><stop offset="0" style="stop-color:rgb(39,21,20);stop-opacity:1"/><stop offset="1" style="stop-color:rgb(50,23,46);stop-opacity:1"/></linearGradient>
        <linearGradient id="_Linear5" x1="0" y1="0" x2="1" y2="0" gradientUnits="userSpaceOnUse" gradientTransform="matrix(18.238,43.82,-43.82,18.238,679.043,1246.48)"><stop offset="0" style="stop-color:rgb(39,22,42);stop-opacity:1"/><stop offset="1" style="stop-color:rgb(67,41,49);stop-opacity:1"/></linearGradient>
        <linearGradient id="_Linear6" x1="0" y1="0" x2="1" y2="0" gradientUnits="userSpaceOnUse" gradientTransform="matrix(-6.078,0.93,-0.93,-6.078,749.604,1290.95)"><stop offset="0" style="stop-color:rgb(46,32,38);stop-opacity:1"/><stop offset="1" style="stop-color:rgb(57,38,64);stop-opacity:1"/></linearGradient>
        <linearGradient id="_Linear7" x1="0" y1="0" x2="1" y2="0" gradientUnits="userSpaceOnUse" gradientTransform="matrix(-5.78,-37.57,37.57,-5.78,741.584,1125.29)"><stop offset="0" style="stop-color:rgb(36,13,19);stop-opacity:1"/><stop offset="1" style="stop-color:rgb(70,38,45);stop-opacity:1"/></linearGradient>
        <linearGradient id="_Linear8" x1="0" y1="0" x2="1" y2="0" gradientUnits="userSpaceOnUse" gradientTransform="matrix(-144.999,-212.188,212.188,-144.999,1058.02,1128.94)"><stop offset="0" style="stop-color:rgb(57,22,76);stop-opacity:1"/><stop offset="1" style="stop-color:rgb(59,50,89);stop-opacity:1"/></linearGradient>
        <linearGradient id="_Linear9" x1="0" y1="0" x2="1" y2="0" gradientUnits="userSpaceOnUse" gradientTransform="matrix(-59.536,-35.37,35.37,-59.536,1055.95,1144.86)"><stop offset="0" style="stop-color:rgb(255,155,147);stop-opacity:1"/><stop offset="1" style="stop-color:rgb(244,175,181);stop-opacity:1"/></linearGradient>
    </defs>
</svg>
