<?xml version="1.0" encoding="UTF-8" standalone="no"?>
<!DOCTYPE svg PUBLIC "-//W3C//DTD SVG 1.1//EN" "http://www.w3.org/Graphics/SVG/1.1/DTD/svg11.dtd">
<svg width="100%" height="100%" viewBox="0 0 2048 2048" version="1.1" xmlns="http://www.w3.org/2000/svg" xmlns:xlink="http://www.w3.org/1999/xlink" xml:space="preserve" xmlns:serif="http://www.serif.com/" style="fill-rule:evenodd;clip-rule:evenodd;stroke-linejoin:round;stroke-miterlimit:2;">
    <g transform="matrix(1,0,0,1,-7655,-20313)">
        <g id="Playful-Agency.-VALORES.-Puntualidad" serif:id="Playful Agency. VALORES. Puntualidad" transform="matrix(1,0,0,1,0,277)">
            <rect x="7655" y="20036" width="2048" height="2048" style="fill:none;"/>
            <g transform="matrix(2.060547,0,0,2.060547,8679,21060)">
                <g transform="matrix(1,0,0,1,-512,-512)">
                    <g transform="matrix(0.5,0,0,0.5,0,0)">
                        <path d="M553.663,374.365C576.339,371.744 610.53,381.773 630.662,391.68C687.632,419.718 736.215,462.476 773.209,513.9C809.207,516.841 836.892,528.142 859.054,558.048C875.095,580.136 881.87,607.618 877.931,634.63C873.029,667.178 857.454,688.422 831.639,707.491C841.43,712.88 851.171,716.451 861.667,720.596C903.011,736.923 945.256,753.763 988.619,763.85C993.867,765.072 999.028,765.07 1004.33,764.946C1023.14,755.083 1079.19,674.964 1088.17,654.494C1053.2,635.395 1029.52,611.877 1022.93,570.852C1018.58,542.62 1025.53,513.809 1042.27,490.666C1059.16,467.452 1084.59,451.909 1112.95,447.464C1145.54,442.47 1171.78,450.697 1197.88,469.721C1207.74,459.62 1217.64,442.147 1232.09,440.517C1238.22,439.838 1244.35,441.673 1249.1,445.602C1253.84,449.505 1256.81,455.162 1257.31,461.285C1258.54,476.937 1237.68,493.852 1227.06,506.61C1248.54,553.15 1239.31,597.379 1203.84,633.582C1201.73,665.559 1150.59,734.552 1129.99,762.702C1187.94,763.641 1248.74,762.755 1306.88,762.754L1657.63,762.752L1799.95,762.747C1822.98,762.728 1847.52,762.089 1870.49,763.346C1878.94,763.808 1891.05,769.51 1897.11,775.406C1907.39,785.425 1911.91,801.265 1911.93,815.422C1912.02,867.331 1911.85,919.329 1911.93,971.235L1911.98,1024.55C1911.98,1034.01 1912.44,1050.17 1910.84,1058.95C1909.05,1069.03 1904.24,1078.32 1897.05,1085.6C1880.13,1102.64 1858.96,1099.35 1837.13,1099.58C1824.86,1099.72 1812.56,1099.49 1800.28,1099.53L1649.85,1099.63L1131.11,1099.7C1150.8,1124.04 1172.43,1161.32 1189.09,1188.31C1228.03,1251.39 1262.56,1319.13 1300.83,1382.35C1331.26,1360.6 1360.52,1342.53 1398.29,1336.52C1420.42,1332.2 1464.63,1333.39 1468.96,1362.58C1472.78,1388.34 1433.31,1411.33 1415.5,1423.43C1372.45,1452.67 1330.89,1482.61 1286.25,1509.19C1277.01,1516.17 1250.89,1516.76 1242.7,1507.52C1226.68,1489.46 1209.81,1460.88 1196.77,1440.46L1114.77,1311.71C1099.85,1287.74 1084.63,1263.96 1069.12,1240.37C1059.57,1225.74 1039.03,1191.65 1025.58,1182.42C1011.97,1175.59 985.462,1172.92 969.661,1170.45C925.986,1163.63 881.903,1158.53 838.333,1151.02C812.063,1208.46 784.318,1265.9 754.657,1321.67C738.479,1352.08 720.689,1388.41 692.419,1409.06C647.103,1442.17 591.874,1418.16 544.896,1402.37C494.523,1385.44 445.71,1363.13 395.783,1345.25C384.309,1392.78 366.576,1450.03 319.372,1472.83C281.869,1490.95 257.007,1464.35 264.865,1426.69C271.269,1395.99 280.805,1365.79 289.552,1335.87C295.655,1314.71 302.017,1293.62 308.637,1272.62C317.742,1243.9 325.466,1210.74 364.283,1219.63C381.417,1223.55 399.215,1230.49 415.954,1236.11C454.873,1249.26 493.867,1262.2 532.936,1274.9C554.865,1281.97 577.211,1289.57 599.72,1294.38C612.177,1297.04 621.051,1294.73 627.093,1283.26C634.703,1268.82 640.448,1253.65 646.484,1238.51C655.793,1215.15 664.968,1191.74 674.011,1168.28C679.88,1152.78 685.161,1137.07 691.81,1121.92C660.766,1105.39 648.075,1092.46 633.921,1060.2C599.743,1067.45 571.894,1054.53 557.493,1022.3C551.035,1007.85 546.279,982.1 551.755,967.015C558.733,947.798 590.305,962.833 602.513,968.879C603.567,951.333 606.986,927.963 609.153,910.048C613.399,872.628 618.641,835.327 624.874,798.186C602.633,793.642 547.679,784.086 527.079,791.208C508.235,797.723 463.775,891.108 452.247,913.965C454.925,934.168 459.527,954.479 445.389,971.618C458.653,992.105 466.889,1014.23 468.046,1038.73C469.624,1072.82 457.457,1106.12 434.271,1131.16C386.159,1183.52 307.18,1185.37 255.806,1136.56C231.17,1113.44 216.966,1081.31 216.441,1047.52C215.611,1008.79 228.829,980.644 255.077,953.089C247.461,942.637 236.66,934.811 248.341,922.679C263.876,906.545 271.721,920.213 281.112,933.238C288.486,929.761 295.377,926.564 303.072,923.78C306.96,922.373 315.436,921.051 317.387,918.324C316.687,906.335 289.451,899.363 290.82,863.927C291.457,849.939 297.828,836.831 308.432,827.687C333.768,805.438 363.487,812.855 384.319,836.177C401.331,804.402 451.594,722.885 486.088,707.261C523.759,695.374 582.261,701.364 620.988,707.192C663.409,713.576 672.91,712.619 713.749,707.734C664.809,669.928 653.664,621.126 680.431,565.466C662.89,563.107 651.503,559.845 632.562,559.222C594.275,557.964 556.734,562.083 518.523,561.198C491.041,560.109 456.426,558.123 435.921,537.239C422.821,523.898 424.252,504.261 439.411,493.134C480.103,463.266 534.012,466.07 581.575,471.942C556.007,458.421 498.454,425.125 522.136,387.523C527.575,378.887 543.924,375.522 553.663,374.365Z" style="fill:rgb(52,23,77);fill-rule:nonzero;"/>
                    </g>
                    <g transform="matrix(0.5,0,0,0.5,0,0)">
                        <path d="M1121.35,809.491L1548.16,809.481L1685.64,809.446C1710.6,809.432 1735.57,809.198 1760.58,809.758C1774.66,809.585 1787.57,814.626 1788.83,830.885C1790.2,848.604 1789.05,868.771 1789.07,886.718L1789.28,1019.09C1789.16,1052.42 1778.01,1053.16 1748.5,1052.69L1301.51,1052.59L1166.99,1052.6C1142.78,1052.62 1118.09,1053.08 1094.16,1052.05C1080.93,1051.49 1074.01,1041.51 1073.54,1029.56C1072.71,1008.15 1073.04,984.766 1073.05,963.539L1073.24,827.472C1078.95,821.593 1085.22,815.601 1091.08,809.805L1121.35,809.491Z" style="fill:rgb(248,248,245);fill-rule:nonzero;"/>
                    </g>
                    <g transform="matrix(0.5,0,0,0.5,0,0)">
                        <path d="M1228.61,843.405C1285.42,841.601 1282.26,852.201 1281.93,905.178C1281.84,918.638 1279.56,920.585 1270.33,929.242C1273.52,932.016 1280.4,938.677 1280.88,943.324C1282.69,960.891 1282.68,979.413 1281.11,997.041C1279.92,1010.44 1269.54,1016.35 1257.06,1018.92C1244.11,1019.18 1219.35,1021.67 1209.96,1011.51C1197.83,998.398 1202.68,969.805 1201.91,953.318C1201.32,940.763 1205.2,936.851 1213.56,928.955C1207.48,924.499 1202.16,917.848 1202.24,909.911C1202.51,884.439 1193.35,847.187 1228.61,843.405Z" style="fill:rgb(254,113,99);fill-rule:nonzero;"/>
                    </g>
                    <g transform="matrix(0.5,0,0,0.5,0,0)">
                        <path d="M1236.25,938.348C1242.63,938.243 1250.66,937.515 1256.17,940.529C1261.22,946.908 1261.58,960.72 1261.11,968.828C1260.42,981.103 1264.72,998.432 1248.78,1000.32C1217.33,1001.68 1224.22,995.134 1222.78,965.881C1222.18,953.765 1221.64,940.172 1236.25,938.348Z" style="fill:rgb(248,248,245);fill-rule:nonzero;"/>
                    </g>
                    <g transform="matrix(0.5,0,0,0.5,0,0)">
                        <path d="M1229.43,862.28C1234.69,862.081 1253.3,860.461 1256.77,864.492C1263.17,871.943 1260.6,897.646 1260.44,907.637C1260.34,913.526 1258.35,916.408 1254.23,919.767C1232.56,921.705 1221.03,922.833 1222.85,896.616C1223.65,885.104 1219.73,870.134 1229.43,862.28Z" style="fill:rgb(248,248,245);fill-rule:nonzero;"/>
                    </g>
                    <g transform="matrix(0.5,0,0,0.5,0,0)">
                        <path d="M1112.88,931.792C1116.88,935.294 1120.32,938.93 1124.02,942.728C1124.62,958.796 1120.87,983.415 1127.51,996.296C1131.18,1003.4 1157.77,1001.43 1159.42,996.308C1162.5,986.723 1161.13,953.572 1161.06,943.539C1165.46,938.189 1167.34,936.477 1172.46,931.947C1177.34,936.011 1178.58,936.929 1182.32,942.373L1182.27,960.927C1182.28,975.267 1185.09,1001.62 1174.81,1010.96C1160.13,1024.31 1107.09,1025.46 1104.05,997.937C1102.02,979.519 1103.06,959.325 1103.19,941.026C1106.24,937.97 1109.73,934.794 1112.88,931.792Z" style="fill:rgb(254,113,99);fill-rule:nonzero;"/>
                    </g>
                    <g transform="matrix(0.5,0,0,0.5,0,0)">
                        <path d="M1411.17,931.749C1415.73,935.439 1417.18,937.241 1420.87,941.595L1420.96,961.25C1421.3,986.503 1427.17,1018.4 1391.54,1019.12C1379.41,1019.46 1358.74,1020.78 1349.8,1010.55C1337.63,996.601 1341.92,959.009 1342.11,940.706C1345.23,937.259 1347.56,935.513 1351.12,932.657C1355.7,934.224 1359.65,939.206 1362.92,942.815C1363.09,949.444 1361.2,995.589 1365.99,997.384C1411.13,1014.28 1399.67,971.433 1399.81,942.98C1403.51,938.638 1406.99,935.57 1411.17,931.749Z" style="fill:rgb(10,206,196);fill-rule:nonzero;"/>
                    </g>
                    <g transform="matrix(0.5,0,0,0.5,0,0)">
                        <path d="M1589.76,932.7C1594.8,933.954 1598.2,938.671 1601.75,942.577C1601.91,948.7 1601.55,955.037 1601.59,960.907C1602.1,982.842 1593.44,1002.86 1624.8,1000.75C1646.52,999.284 1638.87,962.004 1639.12,943.58C1642.88,938.156 1645.34,936.068 1650.26,932.015C1654.94,935.826 1655.96,937.06 1659.8,941.693L1659.88,957.177L1659.91,960.208C1660.05,974.893 1662.87,1001.09 1651.73,1011.34C1639.31,1022.77 1599.76,1022.97 1587.81,1010.37C1584.73,1007.07 1582.58,1003.03 1581.56,998.636C1579.39,989.677 1580.73,951.548 1581.19,940.825C1583.76,937.927 1586.86,935.301 1589.76,932.7Z" style="fill:rgb(10,206,196);fill-rule:nonzero;"/>
                    </g>
                    <g transform="matrix(0.5,0,0,0.5,0,0)">
                        <path d="M1689,932.666C1693.11,933.53 1697.93,939.332 1700.97,942.493C1701.52,954.76 1700.6,967.882 1700.79,980.309C1701.05,996.627 1701.64,1001.5 1719.73,1000.19C1726.81,999.682 1730.09,1001.56 1735.97,996.064C1739.11,989.049 1738.04,953.283 1738.04,943.26C1741.39,938.872 1745.03,935.706 1749.04,931.972C1754.13,935.939 1754.96,936.731 1758.84,941.87L1758.82,959.5C1758.85,971.023 1761.88,1002.46 1751.06,1011.47C1735.95,1024.05 1686.64,1024.52 1681.55,1000.2C1678.72,986.682 1680.02,957.483 1680.22,941.186C1682.85,938.099 1686,935.413 1689,932.666Z" style="fill:rgb(10,206,196);fill-rule:nonzero;"/>
                    </g>
                    <g transform="matrix(0.5,0,0,0.5,0,0)">
                        <path d="M1509.94,931.741C1515.2,935.775 1515.95,936.414 1519.99,941.81L1520.08,962.25C1520.53,1000.56 1525.74,1018.61 1478.62,1019.45C1430.38,1020.32 1441.45,978.172 1441.45,941.189C1444.13,938.122 1447.24,935.474 1450.27,932.734C1455.02,934.299 1458.52,938.957 1461.91,942.708C1462.36,950.863 1459.94,991.763 1464.75,995.162C1486.62,1010.6 1504.53,998.053 1499.48,971.525C1498.75,967.706 1499.13,948.571 1499.23,942.851C1502.66,938.552 1505.99,935.527 1509.94,931.741Z" style="fill:rgb(10,206,196);fill-rule:nonzero;"/>
                    </g>
                    <g transform="matrix(0.5,0,0,0.5,0,0)">
                        <path d="M1128.49,843.394L1139.15,843.068C1193.83,841.692 1182.27,874.184 1182.5,917.553C1179.54,921.236 1175.94,924.481 1172.52,927.774C1167.97,923.748 1165.12,920.611 1161.03,916.143C1160.81,902.97 1164.22,872.262 1157.08,863.474C1146.98,860.808 1124.58,858.252 1124.13,873.299C1123.7,887.679 1124.45,902.45 1124.04,917.051C1120.85,920.741 1116.88,924.192 1113.27,927.528C1109.86,924.571 1106.55,921.064 1103.35,917.835C1102.89,890.826 1094.09,848.731 1128.49,843.394Z" style="fill:rgb(254,113,99);fill-rule:nonzero;"/>
                    </g>
                    <g transform="matrix(0.5,0,0,0.5,0,0)">
                        <path d="M1365.78,843.192C1371.17,843.021 1376.55,842.884 1381.93,842.78C1432.08,841.897 1421.23,879.32 1420.93,917.366C1417.87,921.219 1415.07,923.973 1411.65,927.462C1406.13,923.025 1404.23,920.976 1399.48,915.693C1399.45,903.227 1402.24,874.515 1397.02,864.559C1391.15,860.845 1370.79,859.591 1366.73,865.231C1359.72,874.98 1363.04,904.011 1362.98,916.498C1359.64,920.679 1356.05,923.568 1352.06,927.101C1347.3,922.809 1346.04,921.671 1342.15,916.356C1341.75,889.858 1333.23,849.828 1365.78,843.192Z" style="fill:rgb(10,206,196);fill-rule:nonzero;"/>
                    </g>
                    <g transform="matrix(0.5,0,0,0.5,0,0)">
                        <path d="M1604.77,843.314C1608.27,843.192 1611.77,843.089 1615.27,843.006C1671.49,841.692 1660.2,873.349 1659.85,917.446C1656.04,922.555 1654.82,923.525 1650.07,927.528C1644.8,922.83 1643.18,921.461 1638.91,915.739C1638.47,902.436 1641.78,872.741 1635.24,863.913C1629.87,861.39 1626.66,862.634 1621.56,861.329C1594.07,854.303 1601.58,898.003 1601.74,916.482C1598.27,920.946 1594.66,923.965 1590.5,927.765C1587.2,924.792 1584.18,921.565 1581.08,918.375C1580.62,902.04 1579.89,883.633 1580.97,867.374C1581.91,853.261 1591.28,845.692 1604.77,843.314Z" style="fill:rgb(10,206,196);fill-rule:nonzero;"/>
                    </g>
                    <g transform="matrix(0.5,0,0,0.5,0,0)">
                        <path d="M1705.87,843.364L1710.08,843.223C1771.53,841.228 1758.99,866.47 1758.97,917.549C1755.77,921.955 1753.48,923.821 1749.51,927.406C1745.21,923.801 1741.9,920.254 1738.01,916.243C1737.61,901.67 1739.39,883.079 1737.2,868.492C1736.95,866.822 1734.73,864.312 1733.51,862.956C1690.35,850.991 1701.27,887.749 1701.02,916.354C1697.21,921.382 1694.7,923.357 1690.03,927.423C1686.5,924.288 1683.8,921.317 1680.59,917.887C1679.34,903.636 1679.88,886.168 1680,871.705C1680.13,855.015 1689.61,845.624 1705.87,843.364Z" style="fill:rgb(10,206,196);fill-rule:nonzero;"/>
                    </g>
                    <g transform="matrix(0.5,0,0,0.5,0,0)">
                        <path d="M1465.64,843.315C1496.55,842.283 1521.48,839.491 1520.23,879.726C1519.86,891.725 1520.06,905.219 1519.93,917.37C1517.04,921.086 1513.69,924.012 1510.28,927.255C1505.75,923.34 1503.22,920.686 1499.17,916.339C1498.69,901.84 1500.55,883.614 1498.32,869.098C1498.05,867.399 1495.59,864.605 1494.35,863.194C1488.35,861.052 1471.05,859.235 1466.83,864.618C1458.55,875.181 1463.01,902.387 1461.95,916.372C1458.65,920.699 1455.06,923.746 1451.07,927.441C1447.3,923.824 1445.07,921.391 1441.65,917.459C1441.37,905.222 1441.31,892.942 1441.23,880.721C1441.12,861.651 1444.66,847.155 1465.64,843.315Z" style="fill:rgb(10,206,196);fill-rule:nonzero;"/>
                    </g>
                    <g transform="matrix(0.5,0,0,0.5,0,0)">
                        <path d="M1309.43,948.408C1313.5,948.328 1317.72,948.532 1321.81,948.651C1321.94,955.334 1322.79,964.36 1321.45,970.438C1319.12,973.465 1320.66,972.396 1316.25,973.091L1302.21,972.801C1301.98,965.766 1300.86,957.538 1302.67,951.187C1305.3,948.224 1304.44,949.163 1309.43,948.408Z" style="fill:rgb(52,23,77);fill-rule:nonzero;"/>
                    </g>
                    <g transform="matrix(0.5,0,0,0.5,0,0)">
                        <path d="M1302.49,888.147C1309.31,887.7 1314.66,887.833 1321.48,888.003C1322,895.952 1322.02,903.927 1321.53,911.879C1314.6,912.104 1309.07,911.958 1302.13,911.656C1302.02,903.922 1301.71,895.804 1302.49,888.147Z" style="fill:rgb(52,23,77);fill-rule:nonzero;"/>
                    </g>
                    <g transform="matrix(0.5,0,0,0.5,0,0)">
                        <path d="M1541.11,949.029C1547.74,948.5 1553.3,948.686 1559.94,948.833C1560.13,957.276 1560.16,964.498 1559.85,972.927C1553.64,973.065 1547.37,972.849 1541.16,972.716C1540.83,965.213 1541.06,956.628 1541.11,949.029Z" style="fill:rgb(52,23,77);fill-rule:nonzero;"/>
                    </g>
                    <g transform="matrix(0.5,0,0,0.5,0,0)">
                        <path d="M1541.02,888.095C1547.07,887.733 1553.57,887.764 1559.67,887.683C1560.21,894.354 1560.42,904.997 1559.61,911.532C1553.07,912.153 1547.6,911.888 1541.05,911.701C1540.86,903.925 1540.99,895.896 1541.02,888.095Z" style="fill:rgb(52,23,77);fill-rule:nonzero;"/>
                    </g>
                    <g transform="matrix(0.5,0,0,0.5,0,0)">
                        <path d="M895.825,999.467L897.282,999.528C898.778,1002.67 897.14,1015.17 896.777,1019.57C888.084,1017.86 859.586,1011.32 853.8,1017.22C861.107,1027.32 1065.09,1049.95 1096.78,1077.98C1136.69,1113.28 1155.45,1148.75 1180.46,1190.33C1210.16,1240.42 1239.23,1290.88 1267.67,1341.69C1272.88,1350.86 1292.49,1387.53 1298.86,1392.26C1305.94,1390.7 1325,1375.27 1333.26,1370.22C1350.4,1359.68 1369.08,1351.88 1388.63,1347.12C1407.69,1342.59 1432.99,1339.59 1450.77,1350.14C1458.32,1354.62 1464.44,1366.05 1458.49,1374.08C1454.07,1373.13 1440.26,1354.12 1422.2,1355.01C1418.39,1355.2 1402.46,1353.66 1397.5,1357.84C1396.29,1361.29 1396.29,1359.61 1397.41,1363.03C1406.14,1368.85 1429.96,1351.12 1453.29,1383.55C1446.37,1391.65 1439.76,1396.28 1431.04,1402.32C1421.59,1389.02 1410.49,1381.48 1393.6,1382.33C1385.21,1382.76 1372.24,1383.69 1366.27,1389.9C1365.6,1393.09 1365.34,1391.65 1366.95,1394.39C1374.01,1395.75 1390.84,1388.29 1401.91,1391.32C1412.84,1394.32 1416.71,1396.11 1423.4,1405.76L1424.19,1406.92C1414.96,1414.57 1397.73,1425.52 1387.53,1432.37C1365.77,1447.22 1294.2,1499.79 1273.05,1505.1C1265.22,1507.07 1256.33,1507.22 1249.85,1501.9C1236.13,1490.64 1216.68,1455.96 1206.28,1439.77L1097.92,1269.19C1086.7,1251.55 1075.27,1234.05 1063.64,1216.69C1056.97,1206.72 1047.26,1191.27 1039.19,1183.09C1021.73,1165.4 979.152,1163.46 954.952,1159.92L815.159,1139.49C781.911,1134.56 747.12,1130.3 714.812,1121.4C665.058,1107.69 644.743,1076.19 634.155,1029.02C664.079,1024.5 696.439,1021.87 726.596,1018.47L895.825,999.467Z" style="fill:rgb(247,228,197);fill-rule:nonzero;"/>
                    </g>
                    <g transform="matrix(0.5,0,0,0.5,0,0)">
                        <path d="M820.95,1162.45L822.331,1162.75C823.095,1167.33 795.344,1222.37 791.197,1230.86C778.06,1258.05 764.46,1285 750.401,1311.72C725.197,1359.93 694.189,1426.45 628.17,1416.83C589.183,1411.14 548.272,1395.22 511.439,1381.12L390.495,1333.85C387.563,1341.1 383.925,1358.65 381.353,1367.31C368.588,1410.29 354.845,1441.26 316.569,1465.82C321.777,1459.48 346.413,1426.38 336.107,1420.34C328.062,1424.24 311.941,1475.87 287.883,1468.62C281.959,1466.84 272.287,1457.58 274.525,1450.64L277.624,1449.9C295.136,1446.64 305.435,1434.83 312.51,1419.15C315.524,1412.47 319.159,1404.81 317.957,1397.38C315.922,1394.81 317.219,1395.59 313.873,1395.1C302.938,1403.56 310.543,1434.48 271.96,1442.9C272.193,1420.96 282.879,1390.8 288.872,1368.81C299.63,1329.32 311.939,1289.12 325.069,1250.36C327.099,1241.65 336.416,1228.12 346.237,1227.19C365.498,1225.38 394.829,1237.85 413.033,1243.92C453.744,1257.65 494.526,1271.17 535.377,1284.48C556.579,1291.23 578.176,1298.45 599.998,1302.76C616.656,1306.04 627.495,1300.7 635.365,1285.86C643.121,1271.24 648.876,1255.51 654.964,1240.13C664.707,1215.86 674.116,1191.46 683.188,1166.94C698.918,1165.5 720.498,1165.66 736.631,1165.25L820.95,1162.45Z" style="fill:rgb(247,228,197);fill-rule:nonzero;"/>
                    </g>
                    <g transform="matrix(0.5,0,0,0.5,0,0)">
                        <path d="M1123.56,771.172C1174.99,772.458 1232.88,771.184 1284.75,771.175L1606.01,771.198L1728.17,771.152C1749.77,771.128 1772.64,770.595 1794.17,772.028C1801.47,772.514 1809.12,777.112 1814.44,781.942C1825.95,792.393 1828.38,804.845 1828.41,819.706C1828.52,870.107 1828.26,920.604 1828.36,971.001L1828.6,1022.85C1828.69,1042.16 1830.91,1065 1816.18,1079.9C1811.14,1084.64 1802.05,1090.29 1794.96,1090.69C1772.8,1091.92 1749.9,1091.34 1727.7,1091.38L1583.92,1091.49L1124.6,1091.18C1098.39,1064.35 1070.58,1053.98 1034.05,1046.23L1034.01,874.75L1034.03,854.472C1047.26,847.913 1053.2,843.995 1064.8,834.802L1064.65,972.933C1064.68,993.587 1063.39,1015.42 1065.31,1035.87C1066.7,1050.59 1082.4,1060.47 1096.48,1060.62C1111.38,1060.78 1126.01,1060.98 1140.89,1060.97L1218.16,1060.91L1453.22,1060.9L1665.25,1060.91L1731.9,1060.99C1752.92,1061.01 1793.14,1066.64 1796.26,1036.54C1798.32,1016.73 1797.36,994.149 1797.39,973.997L1797.54,835.342C1797.64,825.475 1795.94,817.775 1788.61,810.648C1777.23,799.589 1761.29,801.052 1746.82,801.137C1733.75,801.213 1720.8,801.534 1707.81,801.475L1556.21,801.384L1098.45,801.265C1107.01,791.396 1115.38,781.363 1123.56,771.172Z" style="fill:rgb(255,197,191);fill-rule:nonzero;"/>
                    </g>
                    <g transform="matrix(0.5,0,0,0.5,0,0)">
                        <path d="M509.823,477.414C553.572,472.191 623.808,486.696 664.395,503.869C672.319,507.222 679.395,510.273 688.976,514.835C699.167,519.687 715.295,531.248 726.01,535.387C727.485,534.589 732.839,532.246 733.928,531.681C768.287,513.879 814.156,523.327 841.71,550.861C860.146,568.931 870.537,593.66 870.542,619.475C870.508,659.565 846.796,695.14 808.335,709.392C800.358,712.348 779.285,714.403 775.144,718.591L775.342,720.242C781.865,726.747 814.96,730.332 824.966,731.209C821.376,741.672 817.696,752.104 813.926,762.504C811.501,770.514 808.937,777.761 806.098,785.643C780.908,760.825 756.185,735.498 731.47,710.216C725.865,704.929 718.91,700.6 712.708,696.065C679.544,671.82 666.76,627.072 679.748,588.503C681.608,582.978 685.686,572.922 689.95,569.04C690.039,568.959 693.865,569.256 696.582,567.375L696.982,564.081C694.675,559.667 684.905,559.049 679.916,557.688C610.307,538.593 536.911,564.695 467.405,545.849C437.636,537.778 419.293,510.156 454.575,493.293C474.557,483.742 487.705,479.553 509.823,477.414Z" style="fill:rgb(247,228,197);fill-rule:nonzero;"/>
                    </g>
                    <g transform="matrix(0.5,0,0,0.5,0,0)">
                        <path d="M475.988,518.05C474.033,513.485 473.994,515.125 474.788,510.789C479.546,504.104 498.924,497.815 507.675,496.731C573.295,488.603 642.284,510.583 699.766,541.207C701.427,542.092 702.167,543.951 702.65,545.606C701.614,548.602 702.523,547.393 699.565,549.139C696.944,549.098 696.381,549.339 694.034,548.316C692.939,548.473 645.879,541.216 641.003,540.367C602.212,533.618 499.6,552.45 475.988,518.05Z" style="fill:rgb(254,113,99);fill-rule:nonzero;"/>
                    </g>
                    <g transform="matrix(0.5,0,0,0.5,0,0)">
                        <path d="M475.988,518.05C474.033,513.485 473.994,515.125 474.788,510.789C479.546,504.104 498.924,497.815 507.675,496.731C573.295,488.603 642.284,510.583 699.766,541.207C701.427,542.092 702.167,543.951 702.65,545.606C701.614,548.602 702.523,547.393 699.565,549.139C696.944,549.098 696.381,549.339 694.034,548.316C679.526,537.62 642.055,523.667 623.584,518.11C586.815,507.048 540.149,498.021 502.048,506.336C495.034,507.867 482.435,514.612 475.988,518.05Z" style="fill:rgb(52,23,77);fill-rule:nonzero;"/>
                    </g>
                    <g transform="matrix(0.5,0,0,0.5,0,0)">
                        <path d="M807.598,602.336C813.548,601.805 819.384,600.593 824.561,603.503C832.113,613.897 809.405,631.354 820.474,635.356C833.731,640.15 836.178,631.931 840.994,623.136C844.801,620.641 842.985,620.835 846.527,621.046C850.787,630.369 841.561,640.085 833.682,644.18C830.313,663.34 826.322,671.966 805.106,670.669C793.024,666.604 790.879,661.662 786.73,650.469C778.918,648.357 768.807,644.093 766.279,635.565C766.868,631.863 766.095,633.401 768.539,630.719C777.377,629.94 782.145,649.464 798.078,640.302C822.759,626.108 782.174,621.893 789.008,608.314C793.903,604.241 801.444,603.124 807.598,602.336Z" style="fill:rgb(52,23,77);fill-rule:nonzero;"/>
                    </g>
                    <g transform="matrix(0.5,0,0,0.5,0,0)">
                        <path d="M812.505,639.893C811.474,639.67 823.268,644.643 825.425,645.348C823.591,651.726 822.294,657.14 816.67,661.172C812.731,661.94 814.424,662.307 811.317,660.737C805.788,663.01 798.65,659.484 796.827,654.223C798.441,648.032 807.109,645.514 812.505,639.893Z" style="fill:rgb(248,248,245);fill-rule:nonzero;"/>
                    </g>
                    <g transform="matrix(0.5,0,0,0.5,0,0)">
                        <path d="M813.66,610.519L816.031,610.292L816.788,611.488C815.821,617.388 813.375,620.249 807.394,619.297C804.381,617.466 801.076,616.22 801.28,612.494C804.755,610.554 809.543,610.758 813.66,610.519Z" style="fill:rgb(254,113,99);fill-rule:nonzero;"/>
                    </g>
                    <g transform="matrix(0.5,0,0,0.5,0,0)">
                        <path d="M826.945,570.378C840.281,571.013 840.878,585.15 834.811,594.367C820.671,594.447 820.986,579.618 826.945,570.378Z" style="fill:rgb(52,23,77);fill-rule:nonzero;"/>
                    </g>
                    <g transform="matrix(0.5,0,0,0.5,0,0)">
                        <path d="M759.277,578.548C772.004,581.164 772.003,595.361 763.796,603.689C751.773,600.28 752.017,586.932 759.277,578.548Z" style="fill:rgb(52,23,77);fill-rule:nonzero;"/>
                    </g>
                    <g transform="matrix(0.5,0,0,0.5,0,0)">
                        <path d="M712.057,716.346L723.685,714.545C732.389,722.823 740.975,731.524 749.215,740.265C767.038,759.17 786.613,776.92 804.307,795.885C808.45,832.95 812.961,869.972 817.84,906.947C821.579,936.957 824.982,968.732 829.354,998.465C820.196,999.481 808.324,1000.48 799.39,1001.81L605.809,1023.2C606.117,1018.88 606.687,1007.44 607.479,1003.76L609.228,985.283C625.893,984.656 666.227,979.779 683.812,977.674C718.918,973.472 762.131,970.395 796.365,964.736C795.747,947.099 795.493,925.372 793.009,908.069L785.911,908.578C786.446,924.219 786.705,942.174 787.965,957.595L753.001,961.593C739.435,963.478 613.903,977.708 610.397,975.852C610.417,974.235 610.273,973.579 610.683,972.062C611.586,953.879 615.47,929.128 617.663,910.387C618.267,898.078 621.16,880.087 622.894,867.525C625.94,844.561 629.379,821.651 633.21,798.805C657.503,803.688 681.78,809.011 700.295,786.61C707.917,777.292 711.47,765.3 710.156,753.333C708.358,737.307 700.074,728.58 688.223,719.38C696.779,718.001 703.448,716.998 712.057,716.346Z" style="fill:rgb(136,82,227);fill-rule:nonzero;"/>
                    </g>
                    <g transform="matrix(0.5,0,0,0.5,0,0)">
                        <path d="M712.057,716.346L723.685,714.545C732.389,722.823 740.975,731.524 749.215,740.265C767.038,759.17 786.613,776.92 804.307,795.885C808.45,832.95 812.961,869.972 817.84,906.947C821.579,936.957 824.982,968.732 829.354,998.465C820.196,999.481 808.324,1000.48 799.39,1001.81L605.809,1023.2C606.117,1018.88 606.687,1007.44 607.479,1003.76L609.228,985.283C625.893,984.656 666.227,979.779 683.812,977.674C718.918,973.472 762.131,970.395 796.365,964.736C795.747,947.099 795.493,925.372 793.009,908.069C791.48,893.264 791.533,856.903 789.351,845.226C788.032,838.168 759.38,794.123 753.88,785.179L712.057,716.346Z" style="fill:rgb(10,206,196);fill-rule:nonzero;"/>
                    </g>
                    <g transform="matrix(0.5,0,0,0.5,0,0)">
                        <path d="M607.479,1003.76C640.012,999.78 672.909,996.705 705.504,993.033C736.073,989.59 767.465,985.384 798.117,983.146C798.396,989.376 798.82,995.599 799.39,1001.81L605.809,1023.2C606.117,1018.88 606.687,1007.44 607.479,1003.76Z" style="fill:rgb(136,82,227);fill-rule:nonzero;"/>
                    </g>
                    <g transform="matrix(0.5,0,0,0.5,0,0)">
                        <path d="M730.23,915.483C747.413,914.363 768.808,911.21 785.911,908.578C786.446,924.219 786.705,942.174 787.965,957.595L753.001,961.593C750.395,953.972 734.291,922.935 730.23,915.483Z" style="fill:rgb(10,206,196);fill-rule:nonzero;"/>
                    </g>
                    <g transform="matrix(0.5,0,0,0.5,0,0)">
                        <path d="M617.663,910.387C628.649,916.182 637.776,920.934 649.169,925.92C643.843,932.934 615.617,970.475 610.683,972.062C611.586,953.879 615.47,929.128 617.663,910.387Z" style="fill:rgb(255,236,162);fill-rule:nonzero;"/>
                    </g>
                    <g transform="matrix(0.5,0,0,0.5,0,0)">
                        <path d="M662.507,828.408C668.382,834.287 680.44,851.196 686.223,858.728C700.856,877.821 715.667,896.776 730.656,915.591L711.766,918.088C691.589,920.839 669.819,922.957 649.513,925.274C654.752,894.003 658.31,859.916 662.507,828.408Z" style="fill:rgb(10,206,196);fill-rule:nonzero;"/>
                    </g>
                    <g transform="matrix(0.5,0,0,0.5,0,0)">
                        <path d="M726.175,806.788C728.914,809.67 749.491,840.126 753.456,845.756L735.231,847.708C727.381,848.23 716.875,849.828 708.872,850.799L726.175,806.788Z" style="fill:rgb(255,236,162);fill-rule:nonzero;"/>
                    </g>
                    <g transform="matrix(0.5,0,0,0.5,0,0)">
                        <path d="M514.739,709.424C554.144,704.485 600.319,714.704 641.466,718.33C673.535,717.657 717.743,735.621 697.607,775.782C672.857,825.145 542.065,752.51 511.132,792.642C488.014,822.635 461.446,875.408 445.08,910.747C441.345,918.811 452.147,942.221 440.36,965.702L433.311,957.617L430.919,954.98C422.382,945.456 419.784,949.627 414.408,959.136C407.234,971.826 401.615,976.003 388.315,980.571C388.521,974.229 389.141,969.554 390.268,963.344C391.643,955.769 399.503,943.522 397.364,937.226C394.493,935.124 396.013,935.488 392.751,935.736C384.423,943.277 380.587,968.601 379.426,979.365C345.17,967.773 371.331,947.52 374.298,926.269L372.147,923.736L374.066,924.488L371.523,924.025C357.601,934.745 359.91,946.824 354.057,953.919C351.66,951.007 350.639,948.498 350.26,944.711C346.171,903.849 424.582,781.998 453.425,747.776C472.304,725.375 484.044,712.071 514.739,709.424Z" style="fill:rgb(247,228,197);fill-rule:nonzero;"/>
                    </g>
                    <g transform="matrix(0.5,0,0,0.5,0,0)">
                        <path d="M308.747,960.109C321.615,955.004 330.416,953.513 344.345,952.999L347.092,962.149C361.396,984.275 381.835,996.688 407.072,981.438C411.426,986.153 415.846,991.265 418.829,997.009C420.215,998.972 421.406,1000.81 422.519,1002.96C433.616,1024.26 435.701,1049.12 428.307,1071.97C420.846,1095.39 405.462,1114.46 383.539,1125.77C362.273,1136.79 337.481,1138.85 314.689,1131.49C292.174,1124.17 272.127,1107.2 261.624,1085.92C250.614,1063.35 249.093,1037.32 257.402,1013.62C266.71,986.849 284.038,971.961 308.747,960.109Z" style="fill:rgb(255,197,191);fill-rule:nonzero;"/>
                    </g>
                    <g transform="matrix(0.5,0,0,0.5,0,0)">
                        <path d="M308.747,960.109C321.615,955.004 330.416,953.513 344.345,952.999L347.092,962.149C361.396,984.275 381.835,996.688 407.072,981.438C411.426,986.153 415.846,991.265 418.829,997.009C411.168,1002.76 388.921,1014.57 385.445,1020.48C383.526,1018.86 383.488,1018.87 381.208,1017.79C374.443,1018.52 352.406,1033.88 344.459,1038.79C339.511,1027.57 320.75,979.582 315.273,973.743L313.671,973.4C310.765,968.95 310.144,965.236 308.747,960.109Z" style="fill:rgb(255,236,162);fill-rule:nonzero;"/>
                    </g>
                    <g transform="matrix(0.5,0,0,0.5,0,0)">
                        <path d="M338.161,979.702C338.085,976.719 338.04,973.734 338.027,970.75C338.022,966.811 337.75,964.071 340.641,961.192C344.048,960.563 343.337,960.921 347.092,962.149C346.921,968.267 348.546,976.191 344.752,980.579C340.956,981.419 342.321,981.271 338.161,979.702Z" style="fill:rgb(52,23,77);fill-rule:nonzero;"/>
                    </g>
                    <g transform="matrix(0.5,0,0,0.5,0,0)">
                        <path d="M340.894,1049.97C336.288,1043.01 312.184,987.009 310.577,978.777C311.725,975.248 311.413,976.34 315.273,973.743C320.75,979.582 339.511,1027.57 344.459,1038.79C352.406,1033.88 374.443,1018.52 381.208,1017.79C383.488,1018.87 383.526,1018.86 385.445,1020.48C383.572,1027.5 348.631,1046.43 340.894,1049.97Z" style="fill:rgb(52,23,77);fill-rule:nonzero;"/>
                    </g>
                    <g transform="matrix(0.5,0,0,0.5,0,0)">
                        <path d="M260.607,1040.36C266.636,1040.16 275.921,1038.63 280.21,1042.97C280.352,1046.87 280.609,1044.9 278.23,1048.96C272.369,1049.01 263.042,1050.46 259.038,1046.12C258.765,1043.04 259.056,1043.14 260.607,1040.36Z" style="fill:rgb(52,23,77);fill-rule:nonzero;"/>
                    </g>
                    <g transform="matrix(0.5,0,0,0.5,0,0)">
                        <path d="M405.761,1040.22C411.82,1040.05 421.4,1038.49 425.255,1043.31C425.309,1046.4 425.164,1046.22 423.614,1048.96C416.864,1049.15 409.283,1050.53 404.613,1046.27C404.186,1042.29 404.002,1044.27 405.761,1040.22Z" style="fill:rgb(52,23,77);fill-rule:nonzero;"/>
                    </g>
                    <g transform="matrix(0.5,0,0,0.5,0,0)">
                        <path d="M339.667,1106.38C350.44,1109.48 346.849,1119.2 345.599,1128.53C344.725,1128.41 343.85,1128.29 342.976,1128.18C334.655,1126.84 337.703,1111.51 339.667,1106.38Z" style="fill:rgb(52,23,77);fill-rule:nonzero;"/>
                    </g>
                    <g transform="matrix(0.5,0,0,0.5,0,0)">
                        <path d="M1194.76,640.886C1195.57,648.29 1180.39,671.853 1175.59,679.345C1138.96,736.589 1093.6,810.916 1033.51,845.311C1011.65,857.827 938.463,835.092 914.712,825.887C907.547,807.969 900.246,790.105 892.809,772.298L877.563,735.874C902.227,745.139 987.355,780.542 1009.26,771.686C1015.32,769.237 1020.4,764.571 1024.82,759.867C1040.01,743.732 1089.44,674.651 1096.32,656.789C1109.03,660.748 1115.61,661.378 1129.05,662.577C1126.98,668.119 1123.79,672.879 1128.32,677.585L1130.81,677.225C1136.58,672.856 1136.5,669.451 1138.05,662.418C1164.02,658.664 1172.69,654.729 1194.76,640.886Z" style="fill:rgb(247,228,197);fill-rule:nonzero;"/>
                    </g>
                    <g transform="matrix(0.5,0,0,0.5,0,0)">
                        <path d="M1116.64,455.287C1146.34,452.745 1168.71,457.816 1192.46,476.312L1125.38,552.447C1119.27,545.806 1113.2,538.917 1106.81,532.553C1087.56,513.397 1067.33,515.281 1060.76,543.227C1060.85,543.542 1060.94,543.857 1061.03,544.172L1061.5,545.739C1066.62,563.332 1081.4,570.974 1091.6,583.887C1126.82,628.482 1137.55,609.324 1168.97,573.025C1181.83,558.11 1194.77,543.263 1207.79,528.486C1211.93,523.474 1216.38,518.43 1220.64,513.483C1223.99,520.909 1226.48,528.695 1228.06,536.689C1233.06,562.113 1227.61,588.479 1212.94,609.837C1198.07,631.843 1175.09,647.07 1149.03,652.192C1122.85,657.38 1095.69,651.753 1073.73,636.595C1051.48,621.281 1036.29,597.705 1031.53,571.12C1026.87,544.61 1033.23,517.348 1049.14,495.635C1065.52,473.004 1089.35,459.757 1116.64,455.287Z" style="fill:rgb(15,191,125);fill-rule:nonzero;"/>
                    </g>
                    <g transform="matrix(0.5,0,0,0.5,0,0)">
                        <path d="M894.614,828.178C902.567,830.407 912.641,834.709 921.062,837.28C956.003,847.946 988.951,858.841 1025.81,856.788C1024.81,918.414 1025.69,982.386 1025.86,1044.15C1019.33,1042.89 1012.83,1041.51 1006.35,1039.99C972.634,1033.04 938.788,1026.71 904.833,1021.02C905.705,1012.78 905.955,1006.55 906.129,998.247C913.832,997.607 922.25,996.61 929.649,994.43C929.694,982.716 922.116,956.162 919.539,943.113C912.318,906.554 900.347,864.675 894.614,828.178Z" style="fill:rgb(248,248,245);fill-rule:nonzero;"/>
                    </g>
                    <g transform="matrix(0.5,0,0,0.5,0,0)">
                        <path d="M557.28,382.379C616.261,381.11 681.248,427.626 722.445,467.324C737.085,481.431 751.074,498.784 763.684,514.685C750.446,515.89 742.89,518.486 730.134,522.737L724.836,524.938C721.755,524.825 688.248,505.008 681.083,501.985C640.348,484.8 605.315,478.285 567.184,454.323C536.081,434.778 493.41,389.748 557.28,382.379Z" style="fill:rgb(247,228,197);fill-rule:nonzero;"/>
                    </g>
                    <g transform="matrix(0.5,0,0,0.5,0,0)">
                        <path d="M836.962,720.433C843.948,722.732 849.736,724.957 856.567,727.712C858.881,728.597 863.581,730.067 864.035,732.231C867.733,749.872 880.007,796.085 881.514,811.646C883.05,818.482 884.547,825.539 886.274,832.31C888.526,842.718 892.169,856.853 893.914,866.896C896.05,874.624 898.621,890.401 900.52,895.962C895.875,896.571 888.173,897.794 883.751,898.003C874.221,898.931 860.014,900.334 850.874,902.567L843.077,903.43C844.62,917.011 848.643,945.32 851.725,958.656C872.446,957.54 892.387,953.979 912.853,952.576C914.222,958.584 915.646,964.58 917.125,970.563C918.541,976.659 919.524,981.855 920.577,988.02C899.478,990.539 878.354,992.852 857.209,994.957L837.458,997.43L820.366,859.294C818.957,848.233 811.517,800.384 813.44,792.808C818.529,772.756 830.361,741.149 836.962,720.433Z" style="fill:rgb(10,206,196);fill-rule:nonzero;"/>
                    </g>
                    <g transform="matrix(0.5,0,0,0.5,0,0)">
                        <path d="M856.567,727.712C858.881,728.597 863.581,730.067 864.035,732.231C867.733,749.872 880.007,796.085 881.514,811.646C883.05,818.482 884.547,825.539 886.274,832.31C888.526,842.718 892.169,856.853 893.914,866.896C896.05,874.624 898.621,890.401 900.52,895.962C895.875,896.571 888.173,897.794 883.751,898.003C874.221,898.931 860.014,900.334 850.874,902.567L843.077,903.43C842.379,882.67 835.246,861.757 833.807,840.947C833.055,830.067 852.256,740.768 856.567,727.712Z" style="fill:rgb(136,82,227);fill-rule:nonzero;"/>
                    </g>
                    <g transform="matrix(0.5,0,0,0.5,0,0)">
                        <path d="M849.128,816.377L881.514,811.646C883.05,818.482 884.547,825.539 886.274,832.31C875.134,834.296 863.452,835.825 852.221,837.457L849.128,816.377Z" style="fill:rgb(255,236,162);fill-rule:nonzero;"/>
                    </g>
                    <g transform="matrix(0.5,0,0,0.5,0,0)">
                        <path d="M893.914,866.896C896.05,874.624 898.621,890.401 900.52,895.962C895.875,896.571 888.173,897.794 883.751,898.003C885.52,889.909 890.043,874.01 893.914,866.896Z" style="fill:rgb(10,206,196);fill-rule:nonzero;"/>
                    </g>
                    <g transform="matrix(0.5,0,0,0.5,0,0)">
                        <path d="M917.125,970.563C918.541,976.659 919.524,981.855 920.577,988.02C899.478,990.539 878.354,992.852 857.209,994.957C855.888,989.566 855.276,982.75 854.586,977.146C875.371,974.403 896.224,972.208 917.125,970.563Z" style="fill:rgb(136,82,227);fill-rule:nonzero;"/>
                    </g>
                    <g transform="matrix(0.5,0,0,0.5,0,0)">
                        <path d="M338.597,926.419C340.069,926.263 339.994,926.447 341.529,926.841C342.641,930.415 341.509,940.259 341.257,944.899C316.375,945.857 298.718,951.531 279.065,967.558C258.733,984.372 245.984,1008.63 243.668,1034.91C241.29,1061.48 249.469,1087.92 266.436,1108.51C291.829,1139.13 336.974,1153.7 374.02,1139.31C445.719,1111.46 462.107,1031.24 413.299,975.002C418.191,969.294 419.909,966.885 423.587,960.435C431.294,967.207 436.341,974.767 442.085,983.179C486.487,1060.59 440.601,1153.89 350.865,1163.02C287.664,1169.45 228.852,1116.32 224.906,1052.89C222.608,1021.01 233.374,989.57 254.729,965.79C276.915,940.657 305.588,928.519 338.597,926.419Z" style="fill:rgb(254,204,9);fill-rule:nonzero;"/>
                    </g>
                    <g transform="matrix(0.5,0,0,0.5,0,0)">
                        <path d="M1230.14,449.003C1245.15,447.603 1255.33,460.078 1245.31,472.477C1232.48,488.361 1218.05,503.341 1204.58,518.775C1184.05,542.298 1163.65,565.969 1143.05,589.429C1139.57,593.101 1132.5,601.329 1127.08,600.888C1113.44,599.778 1097.57,578.078 1088.59,568.085C1081.49,560.842 1066.39,549.081 1070.83,537.961C1072.54,533.734 1075.96,530.426 1080.24,528.85C1095.82,522.971 1112.37,555.979 1124.32,562.718C1126.39,563.889 1131.37,558.537 1132.93,556.789C1154.6,532.484 1175.83,507.498 1197.38,483.101C1205.97,473.384 1219.93,455.525 1230.14,449.003Z" style="fill:rgb(247,228,197);fill-rule:nonzero;"/>
                    </g>
                    <g transform="matrix(0.5,0,0,0.5,0,0)">
                        <path d="M561.697,966.066C575.564,964.833 589.396,970.933 601.146,977.727C600.797,988.835 595.152,1022.37 598.969,1030.38C605.221,1033.13 618.236,1030.53 625.652,1029.58C627.077,1037.87 628.578,1043.87 630.756,1052.03C583.962,1062.15 557.301,1023.58 557.593,981.11C557.633,975.387 558.261,970.77 561.697,966.066Z" style="fill:rgb(247,228,197);fill-rule:nonzero;"/>
                    </g>
                    <g transform="matrix(0.5,0,0,0.5,0,0)">
                        <path d="M883.751,898.003C888.173,897.794 895.875,896.571 900.52,895.962C903.865,912.295 907.543,928.557 911.551,944.74C902.327,945.607 893.052,946.586 883.801,946.977C876.064,947.535 866.348,949.007 858.5,949.971C855.655,934.495 853.583,918.258 850.874,902.567C860.014,900.334 874.221,898.931 883.751,898.003Z" style="fill:rgb(10,206,196);fill-rule:nonzero;"/>
                    </g>
                    <g transform="matrix(0.5,0,0,0.5,0,0)">
                        <path d="M883.751,898.003C888.173,897.794 895.875,896.571 900.52,895.962C903.865,912.295 907.543,928.557 911.551,944.74C902.327,945.607 893.052,946.586 883.801,946.977C883.578,930.653 883.561,914.328 883.751,898.003Z" style="fill:rgb(136,82,227);fill-rule:nonzero;"/>
                    </g>
                    <g transform="matrix(0.5,0,0,0.5,0,0)">
                        <path d="M337.294,842.122C355.829,841.4 361.069,847.409 367.989,863.566C366.267,871.316 363.404,876.289 359.686,883.148L345.708,882.86C338.574,882.774 330.088,882.556 323.236,884.211C313.09,865.744 316.621,849.849 337.294,842.122Z" style="fill:rgb(248,248,245);fill-rule:nonzero;"/>
                    </g>
                    <g transform="matrix(0.5,0,0,0.5,0,0)">
                        <path d="M338.264,823.239C357.301,821.504 368.704,830.329 379.53,844.562L374.266,855.622C368.805,846.323 363.758,839.421 353.07,835.412C344.946,832.303 335.899,832.684 328.065,836.465C318.74,840.928 313.727,848.4 310.178,857.74C306.73,873.426 310.577,879.599 318.832,892.307L317.372,902.866C308.791,894.553 302.567,887.193 300.149,874.91C297.926,863.329 300.51,851.343 307.308,841.707C315.13,830.607 325.291,825.464 338.264,823.239Z" style="fill:rgb(254,204,9);fill-rule:nonzero;"/>
                    </g>
                    <g transform="matrix(0.5,0,0,0.5,0,0)">
                        <path d="M328.397,891.385C337.685,891.005 346.666,891.252 355.943,891.433C352.57,898.926 349.247,906.442 345.974,913.979L344.394,917.146C340.622,918.591 330.562,918.635 325.624,918.975C325.689,912.41 324.969,896.251 328.397,891.385Z" style="fill:rgb(254,204,9);fill-rule:nonzero;"/>
                    </g>
                    <g transform="matrix(0.5,0,0,0.5,0,0)">
                        <path d="M260.57,923.723C265.992,924.59 271.097,932.657 274.646,937.181L262.771,946.157L261.047,946.635C256.528,943.26 253.291,936.766 250.672,931.744C253.835,928.584 257.003,926.391 260.57,923.723Z" style="fill:rgb(254,113,99);fill-rule:nonzero;"/>
                    </g>
                    <g transform="matrix(0.5,0,0,0.5,0,0)">
                        <path d="M1441.11,1467.43C1460.7,1466.66 1475.52,1467.11 1495.14,1468.25C1499.57,1486.37 1504.08,1506.93 1509.61,1524.52C1524.37,1527.38 1533.88,1529.34 1548.06,1534.92C1559.12,1525.38 1577.25,1501.52 1588.37,1493.76C1608.34,1503.86 1629.7,1515.94 1647.83,1529C1642.31,1547.25 1637.01,1565.56 1631.91,1583.94C1642.23,1593.84 1649.66,1601.22 1658.89,1612.08C1677.61,1607.27 1695.49,1601.93 1714.01,1596.43C1728.48,1617.75 1736.89,1633.61 1748.23,1656.64C1740.14,1666.28 1716.39,1687.16 1706.05,1696.98C1711.05,1711.12 1713.49,1720.44 1716.03,1735.2C1731.54,1738.78 1757.88,1744.02 1772.24,1748.81C1774.23,1764.19 1773.08,1797.11 1772.64,1812.81C1795.26,1812.76 1838.12,1812.06 1861.8,1813.51C1862.51,1814.09 1863.21,1814.66 1863.91,1815.23L1864.03,1817.62C1863.22,1818.72 1861.95,1820.74 1860.41,1820.79C1842.68,1821.37 1818.45,1820.99 1801.07,1821L1581.67,1821.03L490.132,1821.02L284.311,1821.01L228.847,1820.99C220.389,1821.05 186.06,1823.9 183.589,1816.24L185.094,1813.91C189.112,1811.99 194.089,1812.66 198.75,1812.77C228.157,1812.93 257.564,1812.86 286.97,1812.55C287.021,1801.49 287.166,1793.46 288.19,1782.37C301.671,1778.25 319.886,1774.18 333.939,1770.53C335.72,1759.3 338.569,1750.29 341.988,1739.58C332.281,1729.29 318.28,1716.92 307.836,1706.52C314.669,1691.48 327.174,1669.31 336.579,1655.58C351.834,1659.43 366.935,1664.27 382.266,1668.28C389.119,1659.52 396.493,1652.42 404.692,1644.98C399.918,1631.97 395.036,1613.74 391.346,1600.22C402.564,1590.58 428.487,1576.81 442.483,1570.39C451.525,1578.47 465.726,1593.99 474.662,1603.14C485.191,1599.95 495.57,1596.58 506.356,1594.43C509.162,1584.87 514.283,1556.08 518.371,1550.87C528.12,1545.87 565.126,1548.5 577.322,1549.58C580.388,1558.71 585.292,1583.81 587.699,1594.57C598.768,1595.85 610.01,1599.72 620.632,1603.15C631.309,1591.72 641.277,1581.24 652.454,1570.32C667.504,1576.84 690.33,1590.37 703.302,1600.13C699.885,1614.92 694.739,1629.98 690.11,1644.5C698.895,1652.89 705.638,1659.39 713.667,1668.52C728.33,1663.98 743.585,1659.3 758.536,1655.96C764.831,1664.91 783.308,1697.34 787.176,1707.64C776.704,1718.01 763.986,1728.8 752.951,1739.38C756.808,1749.84 758.619,1759.46 760.711,1770.31C776.049,1774.68 791.481,1778.72 806.995,1782.41C807.554,1791.82 807.418,1803.23 807.555,1812.79L1148.71,1812.81C1146.68,1794.47 1146.71,1766.94 1149.2,1748.73C1164.88,1744.33 1188.53,1739.05 1204.52,1736.24C1207.36,1720.77 1209.28,1711.44 1214.59,1696.72C1201.19,1683.46 1185.43,1670.03 1172.93,1657.04C1178.25,1640.18 1196.53,1611.22 1206.76,1596.17C1224.8,1601.54 1243.32,1607.28 1261.48,1612.1C1272.24,1601.14 1276.83,1594.69 1289.52,1584.16C1284.04,1568.92 1277.68,1545.21 1272.61,1529.11C1282.75,1520.4 1320.77,1499.3 1333.3,1493.11C1344.4,1503.76 1361.1,1522.77 1372.77,1534.84C1385.47,1529.62 1398.8,1526.1 1412.42,1524.39C1416.11,1507.64 1420.66,1484.38 1425.56,1468.6C1430.22,1468.02 1436.29,1467.77 1441.11,1467.43Z" style="fill:rgb(52,23,77);fill-rule:nonzero;"/>
                    </g>
                    <g transform="matrix(0.5,0,0,0.5,0,0)">
                        <path d="M1432.25,1476.11C1450.91,1475.5 1469.48,1475.84 1488.15,1476.05C1492.57,1494.38 1497.1,1512.68 1501.76,1530.95C1519.97,1535.19 1533.18,1538.88 1550.88,1544.87C1564.06,1531.54 1576.07,1517.25 1589.66,1503.81C1606.75,1513.15 1621.71,1521.44 1637.74,1532.52L1622.35,1586.69C1635.33,1599.15 1644.41,1608.52 1656.36,1621.84C1674.74,1617.08 1692,1611.71 1710.11,1606.1C1720.18,1622.04 1729.57,1638.41 1738.24,1655.16C1726.59,1665.81 1706.32,1683.41 1696.38,1694.88C1702.78,1712.08 1705.21,1724.58 1708.7,1742.3L1764.24,1755.65C1764.98,1775.46 1765.09,1792.02 1764.15,1811.81C1722.47,1813.83 1674.08,1812.66 1631.75,1812.67C1634.6,1783.07 1634.69,1760.3 1625.56,1731.5C1611.52,1686.69 1580.02,1649.41 1538.18,1628.08C1497.59,1607.53 1450.54,1603.84 1407.24,1617.81C1363.29,1632.41 1326.86,1663.72 1305.83,1704.98C1295.81,1724.98 1284.21,1761.42 1287.99,1785.49C1288.31,1787.53 1289.66,1787.84 1291.1,1788.53C1293.38,1787.71 1294.44,1788.01 1294.93,1784.91C1296.17,1776.98 1296.52,1768.5 1297.51,1760.58C1299.88,1742.45 1305.36,1724.86 1313.71,1708.59C1335.63,1666.13 1370.38,1639.06 1415.37,1624.52C1439.09,1618.86 1458.9,1616.48 1483.38,1619.85C1526.18,1626.16 1564.8,1648.99 1590.97,1683.44C1619.76,1721.56 1629.57,1765.73 1623.03,1812.65C1609.86,1812.77 1597.83,1812.75 1584.67,1812.25C1589.09,1794.77 1589.53,1776.53 1585.96,1758.86C1579.26,1724.94 1559.28,1695.11 1530.46,1676.01C1502.45,1657.31 1468.11,1650.62 1435.13,1657.44C1401.08,1664.81 1371.33,1685.36 1352.4,1714.6C1333.16,1744.26 1328.04,1777.93 1335.23,1812.25C1290.39,1813.66 1244.89,1812.06 1199.99,1812.7C1185.98,1812.9 1171.14,1813.01 1157.21,1811.79C1155.05,1797.24 1156.09,1771.44 1156.36,1755.72C1174.97,1751.44 1193.53,1746.98 1212.05,1742.33C1215.92,1721.29 1217.58,1714.15 1224.47,1694.07C1212.14,1681.42 1195.65,1666.75 1182.56,1654.41C1190.56,1637.98 1200.2,1621.53 1209.83,1606.01C1228.87,1611.57 1245.87,1616.67 1265.2,1621.43C1277.08,1607.64 1285.99,1598.92 1298.93,1586.34C1294.21,1568.82 1287.98,1549.97 1282.88,1532.28C1298.46,1521.86 1314.67,1512.43 1331.43,1504.05C1344.39,1516.8 1357.49,1531.88 1370.39,1545.13C1388.21,1538.6 1400.54,1534.5 1419.16,1531.39C1423.8,1514.35 1428.21,1493.46 1432.25,1476.11Z" style="fill:rgb(156,235,231);fill-rule:nonzero;"/>
                    </g>
                    <g transform="matrix(0.5,0,0,0.5,0,0)">
                        <path d="M1459.78,1565.29L1460.96,1565.29C1519.02,1565.39 1574.56,1588.97 1614.97,1630.66C1652.93,1669.74 1674.94,1722.12 1676.08,1777.44C1676.22,1783.83 1675.79,1784.71 1671.49,1788.86C1670.84,1788.44 1667.57,1786.01 1667.52,1785.53C1666.42,1775.43 1666.24,1765.25 1665.03,1755.15C1663.79,1744.63 1661.71,1734.22 1658.81,1724.03C1637.49,1650.32 1577.2,1594.41 1502.09,1578.68C1492.65,1576.76 1457.39,1576.44 1455.49,1569.6C1457,1566.96 1457.24,1567.09 1459.78,1565.29Z" style="fill:rgb(247,228,197);fill-rule:nonzero;"/>
                    </g>
                    <g transform="matrix(0.5,0,0,0.5,0,0)">
                        <path d="M523.921,1557.06C539.42,1556.71 554.925,1556.76 570.421,1557.22C573.815,1571.99 577.384,1586.72 581.128,1601.4C596.307,1604.97 608.499,1608.29 623.232,1613.15C633.567,1601.99 643.452,1591.32 654.262,1580.63C669.458,1587.83 679.796,1594.57 693.926,1603.6C689.132,1617.22 684.47,1633.05 680.681,1646.96C691.058,1657.59 700.17,1666.85 710.284,1677.84C725.226,1674.43 739.483,1669.4 754.611,1666.08C762.679,1678.87 770.138,1692.03 776.963,1705.52C765.818,1715.57 753.701,1726.14 743.161,1736.7C747.774,1751.59 750.441,1761.94 753.526,1776.97C763.636,1780.87 786.994,1786.3 798.957,1789.72L798.944,1812.39C774.741,1812.29 750.537,1812.34 726.334,1812.55C726.121,1801.77 725.747,1792.6 724.096,1781.9C716.876,1734.55 691.193,1691.99 652.668,1663.53C627.996,1645.45 599.15,1633.92 568.817,1629.99C562.23,1629.1 547.075,1626.41 542.975,1632.48C544.908,1638.71 557.763,1637.56 563.506,1638.29C660.673,1650.63 712.522,1721.05 717.876,1812.29C695.945,1812.49 674.013,1812.52 652.082,1812.38L652.078,1810.73C651.741,1778.48 639.658,1753.57 616.914,1731.38C598,1715.45 576.875,1706.19 551.984,1705.25C524.225,1704.03 497.13,1713.96 476.741,1732.84C452.827,1755.04 444.489,1780.61 443.481,1812.24C433.569,1812.33 423.657,1812.33 413.745,1812.27C414.894,1747.5 453.584,1694.48 517.201,1678.33C523.399,1676.75 547.672,1674.8 550.374,1673.25C551.756,1670.21 551.553,1671.74 551.11,1668.52C549.05,1666.4 545.742,1665.94 542.881,1666.09C462.281,1670.21 406.243,1733.49 404.916,1812.29L295.572,1812.52L295.956,1788.89C310.977,1785.03 326.033,1781.3 341.12,1777.7C344.311,1762.21 346.727,1752.27 351.729,1737.53C342.778,1727.64 327.968,1714.36 317.957,1704.86C324.073,1692.24 333.197,1677.25 340.392,1665.17C355.455,1669.14 369.917,1674.21 385.17,1677.81C395.422,1666.05 403,1658.24 414.267,1647.82C410.483,1633.22 405.598,1618.05 401.17,1603.57C414.845,1594.75 426.012,1587.9 440.738,1580.54C451.507,1590.52 461.896,1602.73 472.854,1613.32C487.709,1608.04 498.41,1605.09 513.571,1601.41C517.556,1587.32 520.793,1571.38 523.921,1557.06Z" style="fill:rgb(255,236,162);fill-rule:nonzero;"/>
                    </g>
                    <g transform="matrix(0.5,0,0,0.5,0,0)">
                        <path d="M1456,1663.42C1464.75,1662.87 1477.79,1664.59 1486.31,1666.53C1517.76,1673.57 1545,1693.09 1561.78,1720.61C1579.71,1749.79 1583.63,1779.73 1575.67,1812.7L1467.56,1812.77L1344.53,1812.73C1342.97,1807.35 1341.73,1800.18 1341.23,1794.59C1338.24,1762.65 1348.36,1730.86 1369.27,1706.53C1392.67,1679.1 1420.59,1666.32 1456,1663.42Z" style="fill:rgb(248,248,245);fill-rule:nonzero;"/>
                    </g>
                    <g transform="matrix(0.5,0,0,0.5,0,0)">
                        <path d="M540.079,1714.4C588.458,1709.49 632.337,1744.37 641.488,1791.63C642.839,1798.6 643.328,1805.61 643.9,1812.69L557.739,1812.8L451.913,1812.78C452.185,1759.47 486.95,1720.12 540.079,1714.4Z" style="fill:rgb(248,248,245);fill-rule:nonzero;"/>
                    </g>
                    <g transform="matrix(0.5,0,0,0.5,0,0)">
                        <path d="M1524.27,313.36C1548.62,315.026 1544.13,326.066 1554.92,340.645L1557.28,340.607C1567.13,334.153 1566.19,312.976 1588.6,313.363C1613.8,313.798 1610.54,331.464 1619.72,340.732C1628.22,338.568 1631.08,319.933 1641.1,316.199C1666.22,306.846 1673.89,320.215 1682.54,339.209C1685.65,340.848 1684.02,340.218 1688.24,340.125C1691.39,336.551 1692.69,330.21 1695.33,325.892C1703.04,313.274 1720.17,309.223 1732.54,317.575C1741.61,323.7 1744.68,330.349 1746.68,340.693C1755.45,340.632 1764.22,340.755 1772.99,341.063C1774.2,385.258 1773.1,435.992 1773.1,480.763L1772.97,716.893C1726.23,718.122 1674.84,717.114 1627.75,717.102C1557.82,717.109 1486.77,717.783 1416.94,716.972C1416.77,708.834 1417.42,703.785 1418.39,695.639C1393.89,695.533 1384.79,703.278 1394.04,674.065C1388.79,673.953 1383.16,674.059 1377.93,674.443C1359.52,675.794 1365.11,664.587 1368.89,652.892C1359.85,652.822 1341.04,654.256 1333.9,650.819C1332.33,646.529 1342.79,629.41 1345.13,624.746C1388.53,538.122 1403.68,436.723 1411.68,341.062C1417.93,340.566 1425.75,340.784 1432.14,340.801C1438.28,308.608 1476.24,302.525 1486.62,333.287C1488.86,339.929 1489.05,340.301 1495.2,340.367C1501.92,325.096 1506.5,315.709 1524.27,313.36Z" style="fill:rgb(52,23,77);fill-rule:nonzero;"/>
                    </g>
                    <g transform="matrix(0.5,0,0,0.5,0,0)">
                        <path d="M1412.25,411.242L1755.77,411.234C1751.1,429.722 1747.47,452.22 1742.91,471.585C1728.37,533.39 1710.23,581.468 1678.89,636.451L1674.11,644.542C1589.4,646.375 1503.7,643.442 1418.89,644.672C1394.55,645.025 1368.56,645.297 1344.36,644.254C1384.44,567.355 1401.7,497.793 1412.25,411.242Z" style="fill:rgb(248,248,245);fill-rule:nonzero;"/>
                    </g>
                    <g transform="matrix(0.5,0,0,0.5,0,0)">
                        <path d="M1593.93,486.288C1596.38,475.535 1601.11,438.907 1608.81,434.325L1610.2,434.968C1613.28,443.617 1604.73,475.045 1602.21,486.096L1654.3,486.364C1656.94,473.014 1660.55,449.042 1665.93,436.577C1666.48,435.302 1667.48,435.572 1669.12,435.363L1670.64,437.09C1672.56,446.478 1664.8,475.428 1662.18,486.22C1671.76,486.111 1714.06,482.999 1716.97,490.813L1715.86,492.862C1708.38,495.73 1670.39,494.333 1660.6,494.232C1654.95,515.219 1650.61,535.594 1644.58,557.172C1657.95,557.041 1671.45,556.854 1684.82,556.895C1689.64,556.909 1697,556.774 1698.76,561.903L1697.58,563.756C1689.49,566.433 1652.46,565.265 1641.72,565.185C1639.21,574.97 1630.41,607.639 1623.19,615.792C1622.36,616.723 1621.42,616.155 1620,615.846C1617.66,613.011 1618.29,614.638 1618.4,610.673L1633.97,565.161L1582.21,565.369C1579.67,573.644 1569.52,614.733 1561.32,616.379L1559.67,614.378C1558.73,607.11 1571.01,574.376 1574.04,565.097L1522.4,565.366C1519.96,573.838 1508.94,615.127 1501.39,616.349L1499.5,614.584C1498.54,608.481 1511.08,574.802 1513.9,565.064L1462.63,565.1C1459.73,574.087 1448.95,615.792 1440.85,616.063L1439.32,614.169C1439.2,606.161 1450.72,576.1 1453.94,565.146C1444.35,565.142 1405.09,567.905 1400.85,561.034L1401.58,559.22C1406.04,555.382 1447.99,557.055 1456.31,557.049L1471.96,494.169C1462.63,494.272 1421.06,497.103 1417.99,489.808L1419.47,487.799C1425.41,484.633 1464.49,486.168 1473.5,486.204C1476.18,474.933 1480.81,442.215 1485.66,434.444C1489.5,435.581 1488.12,434.502 1490.35,437.177C1491.99,445.318 1483.79,476.443 1481.47,486.354C1498.71,486.085 1516.25,486.224 1533.51,486.199C1535.3,478.263 1541.64,436.301 1548.92,435.203L1551.01,437.117C1552.42,443.456 1543.9,476.337 1542.22,486.08C1559.46,486.04 1576.7,486.109 1593.93,486.288Z" style="fill:rgb(52,23,77);fill-rule:nonzero;"/>
                    </g>
                    <g transform="matrix(0.5,0,0,0.5,0,0)">
                        <path d="M1479.98,494.211C1497.26,494.236 1514.53,494.366 1531.81,494.599C1527.3,515.45 1521.68,536.365 1516.35,557.042L1464.99,557.096C1470.36,536.223 1475.35,515.258 1479.98,494.211Z" style="fill:rgb(248,248,245);fill-rule:nonzero;"/>
                    </g>
                    <g transform="matrix(0.5,0,0,0.5,0,0)">
                        <path d="M1485.66,504.348C1492.61,506.125 1495.15,513.443 1498.38,519.476C1506.09,513.5 1510.42,509.212 1519.67,506.374L1521.14,507.917C1518.74,514.965 1509.55,521.568 1503.74,526.555C1508.02,532.621 1515.12,539.277 1512.17,546.238C1504.76,546.505 1500.54,537.94 1496.49,532.299C1491.01,536.665 1483.15,545.786 1475.69,544.328L1475.49,542.56C1479.43,533.662 1484.16,531.144 1491.88,524.97C1487.74,517.801 1480.7,511.837 1485.66,504.348Z" style="fill:rgb(254,113,99);fill-rule:nonzero;"/>
                    </g>
                    <g transform="matrix(0.5,0,0,0.5,0,0)">
                        <path d="M1540.53,494.242L1592.43,494.62C1587.25,515.478 1581.89,536.289 1576.34,557.053L1524.77,557.081C1530.22,536.186 1535.48,515.239 1540.53,494.242Z" style="fill:rgb(248,248,245);fill-rule:nonzero;"/>
                    </g>
                    <g transform="matrix(0.5,0,0,0.5,0,0)">
                        <path d="M1567.7,505.975C1572.58,505.715 1575.27,505.238 1579.01,508.498C1580.36,511.322 1579.96,511.818 1579.5,514.934C1576.2,517.777 1575.55,511.942 1568.84,513.636C1566.13,516.346 1566.37,516.469 1565.63,520.106C1571.81,526.099 1579.3,516.98 1575.59,535.486C1572.98,540.28 1568.67,545.184 1562.84,545.228C1549.74,540.378 1558.27,513.431 1567.7,505.975Z" style="fill:rgb(52,23,77);fill-rule:nonzero;"/>
                    </g>
                    <g transform="matrix(0.5,0,0,0.5,0,0)">
                        <path d="M1565.39,526.202C1568.73,527.155 1567.43,526.274 1569.6,528.641C1570.28,532.474 1568.7,534.959 1567.16,538.654C1565.48,538.977 1565.49,538.765 1563.69,538.508L1562.58,536.565C1562.74,531.85 1563.54,530.697 1565.39,526.202Z" style="fill:rgb(248,248,245);fill-rule:nonzero;"/>
                    </g>
                    <g transform="matrix(0.5,0,0,0.5,0,0)">
                        <path d="M1548.8,506.829C1550.3,506.861 1551.9,507.001 1553.41,507.1C1554.98,512.07 1549.17,535.988 1546.71,541.914C1545.73,544.271 1543.51,544.126 1540.81,544.767C1540.74,535.186 1546.55,521.856 1544.78,514.709L1541.84,514.665L1541.12,513.487C1542.49,510.394 1545.84,508.761 1548.8,506.829Z" style="fill:rgb(52,23,77);fill-rule:nonzero;"/>
                    </g>
                    <g transform="matrix(0.5,0,0,0.5,0,0)">
                        <path d="M1600.53,494.553L1651.84,494.808C1647.37,515.196 1641.21,536.305 1636.15,556.792C1626.58,557.897 1595.88,557.033 1584.81,556.963C1591.08,534.871 1595.66,517.1 1600.53,494.553Z" style="fill:rgb(15,191,125);fill-rule:nonzero;"/>
                    </g>
                    <g transform="matrix(0.5,0,0,0.5,0,0)">
                        <path d="M1637.16,507.596C1640.46,508.166 1640.78,508.582 1641.57,511.42C1639.04,519.098 1618.93,536.991 1612.19,542.976C1609.17,539.44 1607.03,536.16 1604.42,532.343C1601.66,527.831 1599.84,525.857 1601.01,520.9C1607.45,517.618 1610.73,525.74 1613.29,530.331C1621.42,522.628 1628.26,514.684 1637.16,507.596Z" style="fill:rgb(52,23,77);fill-rule:nonzero;"/>
                    </g>
                    <g transform="matrix(0.5,0,0,0.5,0,0)">
                        <path d="M1440.56,506.804C1447.92,506.427 1450.32,506.145 1457.61,507.485L1458.46,509.182C1453.37,511.294 1443.6,513.46 1443.24,519.208C1447.41,519.589 1447.73,519.635 1451.72,520.874C1461.05,528.644 1451.31,542.13 1441.06,545.113C1435.84,543.764 1433.07,541.764 1432.6,536.241C1435.12,533.06 1433.59,534.286 1437.55,532.664C1440.5,534.263 1439.76,534.564 1441.34,538.752L1442.78,539.327C1446.52,536.665 1449.28,530.682 1447.56,526.321C1443.05,524.582 1440.76,528.163 1436.37,526.694C1435.89,522.601 1439.33,511.45 1440.56,506.804Z" style="fill:rgb(52,23,77);fill-rule:nonzero;"/>
                    </g>
                    <g transform="matrix(0.5,0,0,0.5,0,0)">
                        <path d="M1688.72,506.494L1700.71,506.569C1697.3,516.929 1690.17,530.756 1685.28,540.707C1683.45,544.436 1682.26,543.989 1678.82,544.75C1677.25,538.425 1687.62,521.879 1690.93,515.11C1688.72,512.135 1685.82,512.181 1681.66,509.568L1681.89,508.225C1684.3,506.265 1685.59,506.577 1688.72,506.494Z" style="fill:rgb(52,23,77);fill-rule:nonzero;"/>
                    </g>
                    <g transform="matrix(0.5,0,0,0.5,0,0)">
                        <path d="M1674.92,505.84L1676.24,507.159C1676.37,512.098 1670.24,537.442 1668.4,543.013C1665.44,544.496 1665.24,543.824 1661.3,543.488C1663.21,536.761 1667.2,524.29 1667.76,516.994C1668.04,513.379 1665.87,516.602 1662.88,514.057C1665.18,509.157 1669.82,507.954 1674.92,505.84Z" style="fill:rgb(52,23,77);fill-rule:nonzero;"/>
                    </g>
                    <g transform="matrix(0.5,0,0,0.5,0,0)">
                        <path d="M1427.82,506.624L1430.81,507.279C1433.34,513.045 1426.8,536.436 1424.3,542.755C1423.88,543.794 1419.76,543.784 1418.53,543.905C1418.64,536.339 1424.99,519.181 1423.3,515.187L1419.65,514.7L1419.03,513.56C1420.54,510.462 1424.71,508.531 1427.82,506.624Z" style="fill:rgb(52,23,77);fill-rule:nonzero;"/>
                    </g>
                    <g transform="matrix(0.5,0,0,0.5,0,0)">
                        <path d="M1567.66,348.874C1586.5,348.787 1605.34,348.85 1624.18,349.061C1626.04,357.634 1627.07,363.482 1633.77,370.019C1637.49,373.655 1648.13,383.411 1652.93,377.632C1652.72,368.952 1646.13,371.01 1639.63,364.658C1635.91,361.025 1633.98,353.953 1632.37,348.936L1671.75,348.87L1688.07,348.986C1690.21,357.566 1692.11,364.559 1698.77,370.916C1702.89,374.857 1711.86,383.244 1717.21,377.754C1717.91,369.453 1709.43,370.495 1703.44,364.28C1699.75,360.448 1698.29,354.004 1696.9,348.883L1764.39,348.869C1763.05,364.275 1759.19,387.785 1756.66,403.007L1413.61,402.978C1414.69,386.082 1417.83,366.538 1419.27,348.921C1421.28,348.873 1428.93,348.567 1429.44,349.305C1434.37,356.509 1443.79,387.583 1458.9,377.68C1459.35,376.368 1460.11,373.727 1459.09,373.062C1446.76,365.001 1443.43,363.578 1439.77,348.868C1458.2,348.801 1476.63,348.861 1495.06,349.049C1497.38,358.46 1499.44,365.446 1507.05,372.133C1510.92,375.536 1519.69,382.727 1524.37,377.725C1524.41,376.604 1524.46,375.483 1524.5,374.362C1513.54,365.858 1507.87,364.42 1504.53,350.317L1504.22,348.935L1559.78,349.013C1561.58,358.74 1564.23,365.954 1571.96,372.54C1575.55,375.6 1584.78,382.227 1588.73,377.223C1588.41,370.676 1576.82,367.705 1572.99,361.147C1570.24,356.445 1569.4,353.965 1567.66,348.874Z" style="fill:rgb(254,113,99);fill-rule:nonzero;"/>
                    </g>
                    <g transform="matrix(0.5,0,0,0.5,0,0)">
                        <path d="M1745.87,495.83C1745.94,502.194 1742.17,520.739 1740.86,527.576C1731.47,574.384 1719.75,620.691 1705.73,666.324L1374.31,665.962C1374.18,662.257 1376.37,656.449 1377.52,652.586L1678.64,652.757C1683.64,646.422 1690.03,633.216 1694.22,625.814C1718.74,582.511 1730.87,542.477 1745.87,495.83Z" style="fill:rgb(247,228,197);fill-rule:nonzero;"/>
                    </g>
                    <g transform="matrix(0.5,0,0,0.5,0,0)">
                        <path d="M1762.25,522.171C1762.46,518.035 1762.98,504.231 1764.45,501.042C1765.8,519.067 1765.34,552.829 1764.82,571.517C1765.98,615.695 1764.92,664.584 1765.03,709.14L1425.08,708.944L1427.24,695.823C1478.8,696.543 1531.81,695.956 1583.45,695.962C1635.77,696.152 1688.1,696.069 1740.42,695.713C1744.54,679.514 1748.06,650.685 1750.23,633.792C1755.11,596.685 1759.12,559.468 1762.25,522.171Z" style="fill:rgb(247,228,197);fill-rule:nonzero;"/>
                    </g>
                    <g transform="matrix(0.5,0,0,0.5,0,0)">
                        <path d="M1762.25,522.171C1762.46,518.035 1762.98,504.231 1764.45,501.042C1765.8,519.067 1765.34,552.829 1764.82,571.517C1763.46,561.486 1765.84,528.012 1762.25,522.171Z" style="fill:rgb(217,193,218);fill-rule:nonzero;"/>
                    </g>
                    <g transform="matrix(0.5,0,0,0.5,0,0)">
                        <path d="M1755.62,495.058C1756.49,503.644 1753.28,531.457 1752.46,541.371C1748.41,590.302 1740.88,638.99 1734.4,687.658C1623.56,687.448 1511.58,688.572 1400.93,687.294L1400.27,686.999C1398.9,684.551 1401.04,677.849 1401.77,674.264C1434.4,673.225 1472.54,674.207 1505.52,674.19L1711.69,674.372C1728.12,627.061 1738.97,575.781 1749.28,526.786C1751.46,516.414 1752.62,505.142 1755.62,495.058Z" style="fill:rgb(247,228,197);fill-rule:nonzero;"/>
                    </g>
                    <g transform="matrix(0.5,0,0,0.5,0,0)">
                        <path d="M1713.01,322.025C1728.39,320.936 1733.47,326.579 1738.28,340.62L1721.75,340.768L1697.71,340.838C1701.37,330.357 1703.36,327.365 1713.01,322.025Z" style="fill:rgb(248,248,245);fill-rule:nonzero;"/>
                    </g>
                    <g transform="matrix(0.5,0,0,0.5,0,0)">
                        <path d="M1584.17,322.081C1600.13,320.804 1604.35,327.207 1609.98,340.648L1593.97,340.729L1568.71,340.897C1572.71,330.551 1574.63,327.571 1584.17,322.081Z" style="fill:rgb(248,248,245);fill-rule:nonzero;"/>
                    </g>
                    <g transform="matrix(0.5,0,0,0.5,0,0)">
                        <path d="M1456.1,322.02C1471.64,321.124 1475.9,327.336 1481.09,340.508L1465.88,340.631C1457.11,340.738 1448.33,340.777 1439.56,340.749C1444.28,331.026 1446.61,326.979 1456.1,322.02Z" style="fill:rgb(248,248,245);fill-rule:nonzero;"/>
                    </g>
                    <g transform="matrix(0.5,0,0,0.5,0,0)">
                        <path d="M1648.2,322.12C1663.43,321.191 1669.52,326.092 1673.87,340.685L1661.6,340.676L1632.8,340.819C1637.11,330.847 1639,327.752 1648.2,322.12Z" style="fill:rgb(248,248,245);fill-rule:nonzero;"/>
                    </g>
                    <g transform="matrix(0.5,0,0,0.5,0,0)">
                        <path d="M1520.09,322.012C1535.45,321.147 1540.24,326.889 1545.28,340.498L1530.03,340.586L1504.36,340.766C1508.63,330.529 1510.57,327.344 1520.09,322.012Z" style="fill:rgb(248,248,245);fill-rule:nonzero;"/>
                    </g>
                    <g transform="matrix(0.5,0,0,0.5,0,0)">
                        <path d="M884.728,1405.17C903.093,1404.49 921.478,1404.49 939.844,1405.16C943.131,1417.19 946.103,1431.01 949.195,1443.34C961.056,1446.38 967.355,1449.69 978.253,1455.46C987.623,1449.12 1000.86,1440.84 1010.67,1435.45C1019.94,1442.26 1043.3,1465.05 1049.18,1474.14C1043.72,1484.04 1035.09,1496.9 1028.9,1506.7C1035.32,1516.92 1037.61,1524.18 1041.57,1535.43C1049.65,1537.03 1071.18,1541.17 1077.3,1545.05C1080.57,1552.53 1079.11,1588.44 1078.7,1598.85C1070.96,1601.56 1050.43,1606.03 1041.59,1608.19C1037.75,1619.58 1035.46,1626.18 1029.37,1636.49C1035.92,1647.51 1042.98,1657.79 1049.54,1669.18C1040.27,1681.21 1022.27,1697.81 1010.8,1708.45C1000.4,1701.58 988.217,1694.46 977.503,1687.86C966.883,1693.6 960.457,1696.6 948.944,1700.07C946.713,1710.67 944.474,1721.58 941.958,1732.11C940.876,1736.64 940.689,1736.81 937.752,1738.46C923.777,1739.11 898.803,1739.01 884.938,1738.17C882.635,1732.27 877.208,1707.54 875.253,1699.72C864.503,1697.19 856.682,1692.88 846.879,1687.84C835.679,1694.93 825.198,1701.47 813.701,1708.06C800.709,1696.75 785.946,1682.18 774.978,1669.05C781.058,1658.56 788.689,1647.26 795.142,1636.71C788.694,1626.17 786.706,1620.23 782.983,1608.33C770.912,1605.37 758.064,1602.46 746.217,1598.9C744.394,1579.16 745.322,1564.09 746.161,1544.29C755.972,1540.94 771.903,1537.9 782.51,1535.59C786.737,1524.04 789.441,1517.84 795.045,1506.72C788.541,1495.5 781.118,1485.18 774.925,1473.48C781.867,1464.86 805.042,1441.94 813.935,1435.41C823.927,1440.38 836.649,1449.21 846.182,1455.48C857.094,1449.47 863.359,1446.61 875.256,1443.05C876.365,1436.55 882.079,1409.78 884.728,1405.17Z" style="fill:rgb(52,23,77);fill-rule:nonzero;"/>
                    </g>
                    <g transform="matrix(0.5,0,0,0.5,0,0)">
                        <path d="M892.688,1412.49C905.463,1411.54 919.892,1412.2 932.715,1412.86C936.296,1423.9 939.558,1438.36 942.524,1449.85C957.695,1454.81 965.467,1457.6 979.42,1465.17C990.534,1458.03 997.985,1452.85 1009.76,1446.55C1019.39,1453.51 1031.65,1465.58 1039.06,1474.59C1032.91,1485.63 1025.29,1495.55 1019.37,1506.85C1027.03,1520.07 1030.26,1528.51 1035.88,1542.67C1047.17,1544.84 1059.74,1548.16 1071.04,1550.9C1071.28,1564.43 1070.95,1578.89 1070.88,1592.49C1059.72,1595.73 1046.2,1598.72 1034.82,1601.48C1029.3,1615.3 1026.77,1623.89 1020.1,1637.82C1026.59,1648.31 1033.3,1658.65 1040.23,1668.84C1029.9,1678.33 1020.58,1688.47 1009.72,1697.54C998.818,1691 989.133,1684.36 977.525,1679.11C964.845,1685.69 954.938,1689.34 941.574,1694.47C940.188,1702.44 936.89,1726.69 931.903,1730.92C918.232,1731.67 905.476,1732.23 891.779,1731.61C887.267,1719.91 886.401,1706.31 882.183,1693.94C868.501,1689.31 859.662,1685.82 847.02,1678.93L814.573,1697.79L785.102,1668.61C790.54,1658.71 798.485,1646.88 804.489,1636.79C796.58,1622.95 794.115,1615.74 788.589,1600.83C776.816,1598.17 765.093,1595.29 753.427,1592.19C752.866,1577.65 752.538,1565.13 753.997,1550.63C764.574,1547.61 778.684,1544.79 789.662,1542.32C793.678,1526.89 796.591,1520.83 804.585,1506.96C799.955,1497.54 791.271,1485.16 785.653,1474.56C794.889,1463.88 804.749,1454.94 815.079,1445.39C825.345,1452.27 835.884,1458.72 846.669,1464.74C861.358,1456.46 866.12,1454.52 882.325,1449.65C884.466,1439.17 886.668,1428.34 889.246,1417.94C890.333,1413.56 889.894,1414.06 892.688,1412.49Z" style="fill:rgb(219,202,246);fill-rule:nonzero;"/>
                    </g>
                    <g transform="matrix(0.5,0,0,0.5,0,0)">
                        <path d="M901.581,1505.53C938.456,1499.61 973.074,1524.92 978.624,1561.85C984.175,1598.78 958.526,1633.14 921.541,1638.33C885.071,1643.44 851.288,1618.23 845.814,1581.81C840.34,1545.39 865.219,1511.36 901.581,1505.53Z" style="fill:rgb(52,23,77);fill-rule:nonzero;"/>
                    </g>
                    <g transform="matrix(0.5,0,0,0.5,0,0)">
                        <path d="M904.352,1513.66C936.371,1509.34 965.855,1531.73 970.297,1563.73C974.738,1595.73 952.464,1625.3 920.478,1629.86C888.323,1634.45 858.564,1612.03 854.099,1579.85C849.634,1547.68 872.164,1518.01 904.352,1513.66Z" style="fill:rgb(248,248,245);fill-rule:nonzero;"/>
                    </g>
                    <g transform="matrix(0.5,0,0,0.5,0,0)">
                        <path d="M901.774,1470.38C905.587,1469.81 911.125,1469.31 914.53,1471.08C916.402,1474.13 916.291,1472.63 915.834,1475.58C909.578,1481.39 894.6,1478.29 884.271,1482.9C871.334,1488.68 863.323,1491.44 852.422,1501.26C829.102,1522.26 822.138,1541.21 819.803,1571.24L819.536,1573.75C817.309,1576.44 818.69,1575.5 815.082,1576.41C811.73,1575.13 813.01,1576.2 811.194,1572.99C808.886,1520.21 850.331,1476.67 901.774,1470.38Z" style="fill:rgb(10,206,196);fill-rule:nonzero;"/>
                    </g>
                    <g transform="matrix(0.5,0,0,0.5,0,0)">
                        <path d="M1005.55,1566.53L1010.02,1567.25C1011.63,1568.87 1013.16,1570.73 1013.05,1573.24C1010.36,1632.12 969.655,1667.89 914.158,1673.24C910.275,1672.53 909.956,1672.13 907.931,1669.11C908.378,1667.38 908.659,1665.43 911.01,1665.24C954.639,1661.76 989.855,1636.61 1001.77,1593.59C1004.02,1585.47 1003.5,1575.49 1005.55,1566.53Z" style="fill:rgb(10,206,196);fill-rule:nonzero;"/>
                    </g>
                    <g transform="matrix(0.5,0,0,0.5,0,0)">
                        <path d="M1545.27,1163.42L1723.17,1163.23C1721.39,1188.54 1714.56,1204.92 1697.61,1223.59C1681.2,1238.13 1665.72,1247.21 1643.48,1249.05C1589.55,1253.51 1548.9,1216.62 1545.27,1163.42Z" style="fill:rgb(254,204,9);fill-rule:nonzero;"/>
                    </g>
                    <g transform="matrix(0.5,0,0,0.5,-31,-53)">
                        <path d="M259.836,333.632C318.241,332.336 381.562,332.936 440.181,333.48C435.742,385.401 403.372,420.662 350.034,422.185L349.935,398.732C331.471,399.164 320.939,402.914 304.086,410.034C280.919,392.632 265.689,376.562 261.253,346.164C260.666,342 260.193,337.821 259.836,333.632Z" style="fill:rgb(66,28,135);fill-rule:nonzero;"/>
                    </g>
                    <g transform="matrix(0.5,0,0,0.5,-31,-53)">
                        <path d="M304.086,410.034C320.939,402.914 331.471,399.164 349.935,398.732L350.034,422.185C349.253,448.99 350.031,479.836 350.046,506.972L246.558,506.893C247.641,463.027 266.829,432.458 304.086,410.034Z" style="fill:rgb(10,206,196);fill-rule:nonzero;"/>
                    </g>
                    <g transform="matrix(0.5,0,0,0.5,70,-30)">
                        <path d="M745.205,280.626C750.548,283.92 795.662,329.24 803.597,337.064C794.197,345.105 783.097,356.508 774.064,365.349L745.586,392.956L745.205,280.626Z" style="fill:rgb(10,206,196);fill-rule:nonzero;"/>
                    </g>
                    <g transform="matrix(0.5,0,0,0.5,0,0)">
                        <path d="M410.64,1514.46C413.307,1514.35 412.466,1514.31 415.075,1514.92C414.601,1519.37 395.151,1553.74 391.527,1560.4C388.616,1554.15 385.604,1547.95 382.492,1541.8C379.461,1543.83 376.475,1545.92 373.534,1548.07C308.669,1594.84 268.884,1659.81 256.065,1738.79C254.646,1742.47 253.945,1742.34 250.926,1743.79L249.303,1742.87C247.45,1738.79 248.205,1733.81 249.014,1729.47C265.05,1643.47 308.342,1584.43 378.022,1534.19C373.522,1528 370.228,1522.67 366.232,1516.12C380.818,1515.19 395.985,1514.91 410.64,1514.46Z" style="fill:rgb(52,23,77);fill-rule:nonzero;"/>
                    </g>
                    <g transform="matrix(0.5,0,0,0.5,0,0)">
                        <path d="M884.992,1338.78C891.128,1341.53 922.981,1360.04 927.999,1363.9C913.75,1372.21 898.991,1381.53 884.572,1389.31L885,1369.56C876.873,1370.21 868.797,1371.4 860.828,1373.12C802.47,1385.7 757.771,1419.86 725.728,1469.48C720.263,1478.6 710.479,1503.03 705.204,1505.51L702.593,1504.52L701.604,1501.95C702.501,1489.22 722.967,1456.28 731.471,1445.74C773.677,1393.41 819.974,1369.37 884.978,1360.81L884.992,1338.78Z" style="fill:rgb(52,23,77);fill-rule:nonzero;"/>
                    </g>
                    <g transform="matrix(0.5,0,0,0.5,0,0)">
                        <path d="M1493.11,1420.12C1574.07,1422.43 1648.78,1458.27 1708.37,1511.7C1713.2,1506.27 1718.87,1500.67 1723.98,1495.42L1736.35,1545.61C1721.19,1542.11 1702.03,1536.56 1687.09,1532.05L1702.08,1517.58C1667.09,1484.56 1619.58,1457.32 1573.89,1442.74C1556.31,1437.19 1538.3,1433.12 1520.04,1430.59C1512.71,1429.63 1497.9,1430.57 1492.91,1426.44C1491.68,1422.7 1491.98,1424.69 1493.11,1420.12Z" style="fill:rgb(52,23,77);fill-rule:nonzero;"/>
                    </g>
                    <g transform="matrix(0.5,0,0,0.5,0,0)">
                        <path d="M1615.3,1303.66C1637.48,1304.11 1634.66,1323.93 1646.34,1332.49C1657.64,1340.78 1664.48,1307.39 1676.93,1304.37C1699.66,1298.86 1698.08,1326.9 1710.59,1333.1C1721.95,1338.73 1727.76,1307.11 1739.3,1304.44C1762.8,1299.02 1760.75,1326.16 1774.03,1333.12C1784.33,1338.52 1791.89,1307.54 1802.25,1304.65C1827.53,1297.59 1823.68,1329.44 1840.71,1334.22C1842.34,1334.67 1842.05,1334.97 1843.29,1336.54C1843.06,1339.87 1842.19,1340.53 1840.17,1343.18C1819.49,1337.89 1822.37,1314.58 1807.36,1312.8C1796.12,1316.69 1792.64,1340.98 1778.06,1342.71C1761.56,1344.67 1758.1,1320.3 1749.09,1314.05C1735.65,1304.72 1729.9,1342.05 1716.98,1342.43C1698.27,1345.88 1696.16,1320.08 1683.55,1312.92C1665.39,1312.8 1659.06,1378.86 1625.28,1316.69C1624.47,1315.21 1618.01,1312.13 1616.08,1311.05C1614.24,1307.49 1614.87,1308.38 1615.3,1303.66Z" style="fill:rgb(52,23,77);fill-rule:nonzero;"/>
                    </g>
                    <g transform="matrix(0.5,0,0,0.5,666,-280)">
                        <path d="M161.412,680.509C183.225,683.4 177.651,706.779 191.059,711.477C200.917,707.453 202.998,682.603 216.307,680.865C234.277,678.518 233.182,702.934 243.56,710.77C255.24,713.048 256.865,687.047 267.153,682.537C289.419,672.775 287.263,707.204 300.999,711.445C309.175,708.878 313.452,684.939 323.281,681.026C337.691,675.289 346.336,700.819 351.522,710.271C355.5,712.032 357.335,712.428 359.389,715.832C358.467,719.634 359.267,717.833 356.177,721.068C334.616,714.508 341.409,695.483 327.944,689.583C318.583,692.152 316.114,716.377 304.23,719.819C284.981,725.394 285.249,693.563 274.377,690.032C265.996,687.31 261.813,715.908 249.885,720.004C231.318,726.381 230.43,694.363 219.316,690.098C210.247,686.619 205.949,717.49 194.983,719.869C174.074,724.404 176.655,695.998 164.488,690.39C161.704,689.107 162.478,689.738 159.525,687.5C159.145,683.851 159.612,684.418 161.412,680.509Z" style="fill:rgb(254,113,99);fill-rule:nonzero;"/>
                    </g>
                    <g transform="matrix(0.5,0,0,0.5,0,0)">
                        <path d="M1426.94,1188.46C1440.25,1187.7 1451.63,1197.9 1452.34,1211.21C1453.04,1224.51 1442.8,1235.86 1429.49,1236.52C1416.25,1237.17 1404.98,1226.99 1404.28,1213.76C1403.58,1200.52 1413.71,1189.21 1426.94,1188.46Z" style="fill:rgb(52,23,77);fill-rule:nonzero;"/>
                    </g>
                    <g transform="matrix(0.5,0,0,0.5,0,0)">
                        <path d="M1425.09,1197.5C1433.38,1195.7 1441.57,1200.95 1443.4,1209.24C1445.24,1217.53 1440.03,1225.74 1431.74,1227.61C1423.41,1229.49 1415.13,1224.24 1413.29,1215.9C1411.44,1207.56 1416.73,1199.3 1425.09,1197.5Z" style="fill:rgb(248,248,245);fill-rule:nonzero;"/>
                    </g>
                    <g transform="matrix(0.5,0,0,0.5,0,0)">
                        <path d="M931.234,1228.64C943.797,1227.2 955.203,1236.08 956.901,1248.61C958.599,1261.14 949.966,1272.73 937.474,1274.68C929.158,1275.99 920.788,1272.69 915.592,1266.07C910.396,1259.45 909.188,1250.53 912.434,1242.77C915.679,1235 922.871,1229.6 931.234,1228.64Z" style="fill:rgb(254,204,9);fill-rule:nonzero;"/>
                    </g>
                    <g transform="matrix(0.5,0,0,0.5,0,0)">
                        <path d="M219.758,1525.64C232.201,1524.03 243.641,1532.68 245.482,1545.09C247.324,1557.5 238.888,1569.1 226.514,1571.18C218.301,1572.55 209.985,1569.39 204.767,1562.9C199.549,1556.41 198.243,1547.6 201.352,1539.88C204.46,1532.15 211.499,1526.71 219.758,1525.64Z" style="fill:rgb(10,206,196);fill-rule:nonzero;"/>
                    </g>
                    <g transform="matrix(0.5,0,0,0.5,0,0)">
                        <path d="M1819.98,1456.69C1832.57,1455.27 1843.93,1464.33 1845.34,1476.93C1846.75,1489.52 1837.68,1500.87 1825.09,1502.28C1812.51,1503.68 1801.16,1494.62 1799.75,1482.04C1798.34,1469.45 1807.4,1458.1 1819.98,1456.69Z" style="fill:rgb(136,82,227);fill-rule:nonzero;"/>
                    </g>
                    <g transform="matrix(0.5,0,0,0.5,-39,-25)">
                        <path d="M355.231,610.302C376.196,611.507 373.022,628.805 387.416,635.828C401.117,642.513 407.734,614.295 419.599,611.192C440.763,605.134 443.352,628.279 456.699,636.312C459.839,638.202 461.462,637.206 462.935,641.418C461.493,644.831 462.553,643.422 459.538,645.729C446.227,647.258 439.29,623.928 427.079,618.409C412.428,620.757 411.242,639.354 400.308,643.576C375.56,654.256 373.384,625.1 358.624,619.123C348.101,614.861 336.753,648.47 322.235,645.346C320.254,643.275 320.072,643.448 319.605,640.692C322.176,636.96 328.358,635.389 330.684,632.68C339.767,622.104 340.181,613.448 355.231,610.302Z" style="fill:rgb(66,28,135);fill-rule:nonzero;"/>
                    </g>
                    <g transform="matrix(0.5,0,0,0.5,-225,-96)">
                        <path d="M1031.8,329.673C1040,328.616 1047.54,334.286 1048.81,342.455C1050.08,350.624 1044.6,358.315 1036.47,359.792C1031.02,360.782 1025.46,358.737 1021.95,354.451C1018.44,350.164 1017.53,344.311 1019.58,339.163C1021.62,334.014 1026.3,330.381 1031.8,329.673Z" style="fill:rgb(254,204,9);fill-rule:nonzero;"/>
                    </g>
                    <g transform="matrix(0.5,0,0,0.5,0,0)">
                        <path d="M521.835,1148.55C527.22,1147.43 532.79,1149.31 536.403,1153.45C540.017,1157.6 541.111,1163.37 539.265,1168.55C537.42,1173.73 532.922,1177.52 527.501,1178.44C519.322,1179.85 511.529,1174.43 509.983,1166.28C508.438,1158.13 513.711,1150.24 521.835,1148.55Z" style="fill:rgb(136,82,227);fill-rule:nonzero;"/>
                    </g>
                    <g transform="matrix(0.5,0,0,0.5,10,0)">
                        <path d="M1858.01,648.504C1865.08,646.757 1872.25,650.977 1874.16,658.007C1876.07,665.038 1872.01,672.305 1865.03,674.373C1860.37,675.753 1855.32,674.501 1851.85,671.1C1848.37,667.699 1847.01,662.683 1848.29,657.992C1849.57,653.301 1853.29,649.67 1858.01,648.504Z" style="fill:rgb(66,28,135);fill-rule:nonzero;"/>
                    </g>
                    <g transform="matrix(0.5,0,0,0.5,10,0)">
                        <path d="M1857.32,580.664C1861.93,579.273 1866.93,580.482 1870.39,583.825C1873.86,587.168 1875.24,592.123 1874.02,596.778C1872.79,601.433 1869.14,605.062 1864.48,606.263C1857.47,608.069 1850.31,603.939 1848.36,596.971C1846.41,590.003 1850.39,582.755 1857.32,580.664Z" style="fill:rgb(254,204,9);fill-rule:nonzero;"/>
                    </g>
                    <g transform="matrix(0.5,0,0,0.5,10,0)">
                        <path d="M1856.63,513.503C1863.58,510.976 1871.25,514.602 1873.71,521.571C1876.16,528.54 1872.46,536.175 1865.47,538.563C1858.57,540.917 1851.07,537.279 1848.65,530.407C1846.22,523.535 1849.79,515.994 1856.63,513.503Z" style="fill:rgb(254,113,99);fill-rule:nonzero;"/>
                    </g>
                    <g transform="matrix(0.5,0,0,0.5,10,0)">
                        <path d="M1859.25,445.602C1866.4,444.593 1873.04,449.488 1874.2,456.617C1875.36,463.745 1870.6,470.489 1863.49,471.792C1858.77,472.659 1853.94,470.902 1850.88,467.199C1847.81,463.497 1846.99,458.427 1848.73,453.946C1850.47,449.465 1854.49,446.273 1859.25,445.602Z" style="fill:rgb(10,206,196);fill-rule:nonzero;"/>
                    </g>
                    <g transform="matrix(0.5,0,0,0.5,0,0)">
                        <path d="M1219.75,296.46C1223.58,295.528 1227.62,296.739 1230.31,299.627C1233,302.514 1233.92,306.628 1232.71,310.384C1231.51,314.141 1228.37,316.955 1224.51,317.743C1218.68,318.93 1212.98,315.235 1211.68,309.434C1210.39,303.633 1213.98,297.863 1219.75,296.46Z" style="fill:rgb(15,191,125);fill-rule:nonzero;"/>
                    </g>
                    <g transform="matrix(0.5,0,0,0.5,0,0)">
                        <path d="M1288.91,296.362C1294.82,295.417 1300.39,299.425 1301.37,305.334C1302.36,311.243 1298.38,316.836 1292.48,317.854C1286.53,318.881 1280.87,314.865 1279.88,308.904C1278.89,302.943 1282.94,297.315 1288.91,296.362Z" style="fill:rgb(255,197,191);fill-rule:nonzero;"/>
                    </g>
                    <g transform="matrix(0.5,0,0,0.5,0,0)">
                        <path d="M1152.31,296.462C1158.05,295.357 1163.63,298.991 1164.94,304.683C1166.25,310.375 1162.82,316.085 1157.18,317.601C1153.35,318.632 1149.25,317.485 1146.51,314.613C1143.77,311.74 1142.82,307.599 1144.03,303.817C1145.23,300.034 1148.41,297.213 1152.31,296.462Z" style="fill:rgb(136,82,227);fill-rule:nonzero;"/>
                    </g>
                    <g transform="matrix(0.5,0,0,0.5,-39,-25)">
                        <path d="M258.336,609.4C262.063,608.251 266.015,610.344 267.159,614.073C268.303,617.801 266.205,621.751 262.474,622.89C258.751,624.027 254.811,621.933 253.669,618.211C252.527,614.489 254.616,610.546 258.336,609.4Z" style="fill:rgb(52,23,77);fill-rule:nonzero;"/>
                    </g>
                </g>
            </g>
        </g>
    </g>
</svg>
