<svg xmlns="http://www.w3.org/2000/svg" viewBox="-0.8333333333333357 -0.8333333333333357 41.66666666666667 41.66666666666667" width="512" height="512"><circle cx="20" cy="20" r="14" fill="#FFEFD1"/><path d="M 33.323 5.697 C 29.504 1.91 24.895 0.011 19.497 0 C 14.087 0 9.458 1.908 5.67 5.697 C 1.882 9.486 0 14.083 0 19.52 C 0 24.956 1.908 29.555 5.698 33.344 C 9.488 37.133 14.087 39.043 19.525 39.043 C 24.934 39.043 29.563 37.133 33.353 33.346 C 37.143 29.559 39.052 24.929 39.052 19.521 C 39.022 14.112 37.112 9.504 33.323 5.697 Z M 26.497 26.114 C 26.094 27.671 25.204 29.06 23.957 30.076 C 22.719 31.118 21.148 31.682 19.53 31.667 C 17.913 31.67 16.346 31.107 15.1 30.076 C 13.821 29.052 12.908 27.641 12.496 26.055 C 12.441 25.867 12.412 25.673 12.41 25.477 C 12.41 24.669 12.931 24.321 13.944 24.321 L 25.254 24.321 C 26.41 24.321 26.816 24.871 26.497 26.114 Z" fill="#440099" fill-rule="nonzero"/></svg>